<svg width="20" height="20" viewBox="0 0 20 20" fill="none" xmlns="http://www.w3.org/2000/svg">
<g clip-path="url(#clip0_1837_53855)">
<path d="M9.83567 3.54094C11.7797 1.59703 14.9316 1.59703 16.8756 3.54094C18.8197 5.48485 18.8197 8.63655 16.8756 10.5805L9.53929 17.9163L8.61295 16.9901L15.9493 9.65417C17.3817 8.22184 17.3817 5.89956 15.9493 4.46723C14.5169 3.03489 12.1944 3.03489 10.762 4.46723L8.31657 6.91252L7.39022 5.98623L9.83567 3.54094Z" fill="black"/>
<path d="M8.31657 6.91252L3.6293 11.5993C2.75962 12.469 2.75962 13.8789 3.6293 14.7485C4.49899 15.6182 5.90902 15.6182 6.77871 14.7485L13.5037 8.02396C13.8107 7.71704 13.8107 7.21943 13.5037 6.91251C13.1968 6.60559 12.6991 6.60559 12.3922 6.91251L5.46344 13.8408L4.53709 12.9146L11.4659 5.98622C12.2844 5.16773 13.6115 5.16772 14.4301 5.98622C15.2486 6.80471 15.2486 8.13176 14.4301 8.95025L7.70505 15.6748C6.32376 17.056 4.08425 17.056 2.70296 15.6748C1.32167 14.2936 1.32167 12.0542 2.70296 10.673L7.39022 5.98623L8.31657 6.91252Z" fill="black"/>
</g>
<defs>
<clipPath id="clip0_1837_53855">
<rect width="20" height="20" fill="white"/>
</clipPath>
</defs>
</svg>
