<svg width="20" height="20" viewBox="0 0 20 20" fill="none" xmlns="http://www.w3.org/2000/svg">
<g clip-path="url(#clip0_1837_48222)">
<path d="M9.83518 3.54124C11.7792 1.59733 14.9311 1.59734 16.8751 3.54125C18.8192 5.48515 18.8192 8.63686 16.8751 10.5808L9.5388 17.9166L8.61246 16.9904L15.9488 9.65448C17.3812 8.22214 17.3812 5.89987 15.9488 4.46753C14.5164 3.0352 12.194 3.0352 10.7615 4.46753L8.31608 6.91283L7.38974 5.98654L9.83518 3.54124Z" fill="#295CF5"/>
<path d="M8.31608 6.91283L3.62881 11.5996C2.75913 12.4693 2.75913 13.8792 3.62881 14.7488C4.4985 15.6185 5.90853 15.6185 6.77822 14.7488L13.5032 8.02427C13.8102 7.71735 13.8102 7.21973 13.5032 6.91281C13.1963 6.60589 12.6987 6.60589 12.3917 6.91281L5.46295 13.8411L4.5366 12.9149L11.4654 5.98653C12.2839 5.16803 13.611 5.16803 14.4296 5.98652C15.2481 6.80502 15.2481 8.13206 14.4296 8.95056L7.70456 15.6751C6.32327 17.0563 4.08376 17.0563 2.70247 15.6751C1.32118 14.2939 1.32118 12.0546 2.70247 10.6734L7.38974 5.98654L8.31608 6.91283Z" fill="#295CF5"/>
</g>
<defs>
<clipPath id="clip0_1837_48222">
<rect width="20" height="20" fill="white"/>
</clipPath>
</defs>
</svg>
