<svg width="20" height="20" viewBox="0 0 20 20" fill="none" xmlns="http://www.w3.org/2000/svg">
<g id="headphone">
<path id="Union" fill-rule="evenodd" clip-rule="evenodd" d="M16.6668 8.33329C16.6668 4.65139 13.6821 1.66663 10.0002 1.66663C6.31826 1.66663 3.3335 4.65139 3.3335 8.33329V11.6666C3.3335 12.7551 4.02917 13.6812 5.00016 14.0244V15C5.00016 16.3807 6.11945 17.5 7.50016 17.5H7.6405C7.87456 17.9927 8.37675 18.3333 8.9585 18.3333H9.37516C10.1806 18.3333 10.8335 17.6804 10.8335 16.875C10.8335 16.0695 10.1806 15.4166 9.37516 15.4166H8.9585C8.37675 15.4166 7.87456 15.7573 7.6405 16.25H7.50016C6.80981 16.25 6.25016 15.6903 6.25016 15V14.1666H6.66683V9.16663H4.5835V8.33329C4.5835 5.34175 7.00862 2.91663 10.0002 2.91663C12.9917 2.91663 15.4168 5.34175 15.4168 8.33329V9.16663H13.3335V14.1666H14.1668C14.3088 14.1666 14.448 14.1548 14.5835 14.1321C15.7659 13.9337 16.6668 12.9054 16.6668 11.6666V8.33329ZM14.5835 10.4166H15.4168V11.6666C15.4168 12.2109 15.069 12.6739 14.5835 12.8455V10.4166ZM4.5835 11.6666V10.4166H5.41683V12.8455C4.93133 12.6739 4.5835 12.2109 4.5835 11.6666ZM8.9585 16.6666H9.37516C9.49022 16.6666 9.5835 16.7599 9.5835 16.875C9.5835 16.99 9.49022 17.0833 9.37516 17.0833H8.9585C8.84344 17.0833 8.75016 16.99 8.75016 16.875C8.75016 16.7599 8.84344 16.6666 8.9585 16.6666Z" fill="#323232"/>
</g>
</svg>
