<svg width="20" height="20" viewBox="0 0 20 20" fill="none" xmlns="http://www.w3.org/2000/svg">
<path fill-rule="evenodd" clip-rule="evenodd" d="M8.75 7.29167C8.75 8.3272 7.91053 9.16667 6.875 9.16667C5.83947 9.16667 5 8.3272 5 7.29167C5 6.25613 5.83947 5.41667 6.875 5.41667C7.91053 5.41667 8.75 6.25613 8.75 7.29167ZM7.5 7.29167C7.5 7.63684 7.22018 7.91667 6.875 7.91667C6.52982 7.91667 6.25 7.63684 6.25 7.29167C6.25 6.94649 6.52982 6.66667 6.875 6.66667C7.22018 6.66667 7.5 6.94649 7.5 7.29167Z" fill="#323232"/>
<path fill-rule="evenodd" clip-rule="evenodd" d="M16.25 17.5H12.5L12.4748 17.5253L12.4495 17.5H3.75C3.05964 17.5 2.5 16.9404 2.5 16.25V3.75C2.5 3.05964 3.05964 2.5 3.75 2.5H16.25C16.9404 2.5 17.5 3.05964 17.5 3.75V16.25C17.5 16.9404 16.9404 17.5 16.25 17.5ZM3.75 3.75H16.25V12.866L12.9168 9.53278L9.5834 12.8661L7.91671 11.1994L3.75 15.3662L3.75 3.75ZM12.9673 16.25H16.25V14.5834L16.2248 14.6086L12.9168 11.3005L10.4673 13.75L12.9673 16.25ZM7.91671 12.9672L11.1995 16.25H4.63393L7.91671 12.9672Z" fill="#323232"/>
</svg>
