<svg width="20" height="20" viewBox="0 0 20 20" fill="none" xmlns="http://www.w3.org/2000/svg">
<path fill-rule="evenodd" clip-rule="evenodd" d="M2.55069 14.0891C2.06253 13.601 2.06253 12.8095 2.55069 12.3214L12.3214 2.55069C12.8095 2.06253 13.601 2.06253 14.0891 2.55069L17.4496 5.91112C17.9377 6.39928 17.9377 7.19074 17.4496 7.67889L7.67889 17.4496C7.19073 17.9377 6.39928 17.9377 5.91112 17.4496L2.55069 14.0891ZM4.91574 11.7241L5.95495 10.6849L7.63514 12.3651L8.51902 11.4812L6.83883 9.801L7.87801 8.76182L8.91713 9.80093L9.80101 8.91705L8.7619 7.87793L9.80113 6.8387L11.4813 8.51884L12.3652 7.63496L10.685 5.95482L11.7242 4.91564L12.7634 5.9548L13.6472 5.07092L12.6081 4.03175L13.2053 3.43457L16.5657 6.79501L6.79501 16.5657L3.43457 13.2053L4.03186 12.608L5.07105 13.6472L5.95493 12.7633L4.91574 11.7241Z" fill="black"/>
</svg>
