<svg width="20" height="20" viewBox="0 0 20 20" fill="none" xmlns="http://www.w3.org/2000/svg">
<path fill-rule="evenodd" clip-rule="evenodd" d="M13.4183 14.3019C12.2643 15.2584 10.7827 15.8333 9.16667 15.8333C5.48477 15.8333 2.5 12.8486 2.5 9.16667C2.5 5.48477 5.48477 2.5 9.16667 2.5C12.8486 2.5 15.8333 5.48477 15.8333 9.16667C15.8333 10.7825 15.2585 12.264 14.3022 13.4179L17.317 16.4331L16.4331 17.3169L13.4183 14.3019ZM14.5833 9.16667C14.5833 12.1582 12.1582 14.5833 9.16667 14.5833C6.17512 14.5833 3.75 12.1582 3.75 9.16667C3.75 6.17512 6.17512 3.75 9.16667 3.75C12.1582 3.75 14.5833 6.17512 14.5833 9.16667Z" fill="#295CF5"/>
</svg>
