<svg width="100" height="100" viewBox="0 0 100 100" fill="none" xmlns="http://www.w3.org/2000/svg">
<g clip-path="url(#clip0_425_13282)">
<rect width="100" height="100" rx="50" fill="#F6F8FB"/>
<rect x="-41.5" y="74.9121" width="183.5" height="40.5" fill="#E4EAF2"/>
<path d="M31.9282 48.1348C31.9939 47.815 32.1714 47.5271 32.4304 47.3202C32.6895 47.1134 33.0142 47.0002 33.3493 47H68.1505C68.4856 47.0002 68.8103 47.1134 69.0694 47.3202C69.3284 47.5271 69.5059 47.815 69.5716 48.1348L72.4717 54.2494C72.5137 54.4541 72.5086 54.6653 72.4566 54.8678C72.4047 55.0704 72.3073 55.2592 72.1714 55.4206C72.0354 55.5821 71.8644 55.7122 71.6706 55.8016C71.4768 55.8909 71.2651 55.9374 71.0506 55.9375H30.4492C30.2347 55.9374 30.023 55.8909 29.8292 55.8016C29.6354 55.7122 29.4644 55.5821 29.3284 55.4206C29.1925 55.2592 29.0951 55.0704 29.0432 54.8678C28.9912 54.6653 28.9861 54.4541 29.0281 54.2494L31.9282 48.1348Z" fill="#8089A0"/>
<path d="M32.4146 72.0915V57.9873H38.0562V72.0915H63.4437V57.9873H69.0854V72.0915H71.9062V74.9123H29.5938V72.0915H32.4146Z" fill="#C7CCD8"/>
<path d="M47.25 63.0312L47.25 67.9687C47.25 68.521 47.6977 68.9687 48.25 68.9687C48.8023 68.9687 49.25 68.521 49.25 67.9688L49.25 63.0312C49.25 62.479 48.8023 62.0312 48.25 62.0312C47.6977 62.0312 47.25 62.479 47.25 63.0312Z" fill="#8089A0"/>
<path d="M52.25 63.0312L52.25 67.9687C52.25 68.521 52.6977 68.9687 53.25 68.9687C53.8023 68.9687 54.25 68.521 54.25 67.9688L54.25 63.0312C54.25 62.479 53.8023 62.0312 53.25 62.0312C52.6977 62.0312 52.25 62.479 52.25 63.0312Z" fill="#8089A0"/>
<path d="M50.75 19C45.2274 19 40.75 23.7013 40.75 29.5C40.75 35.2987 45.2274 40 50.75 40C56.2726 40 60.75 35.2987 60.75 29.5C60.75 23.7013 56.2726 19 50.75 19ZM56.0113 30.7745C54.9186 35.7476 51.6764 39.2069 48.7714 38.5011C45.8664 37.7977 44.3961 33.1937 45.4887 28.223C46.5814 23.2499 49.8236 19.7906 52.7286 20.4964C55.6336 21.1998 57.1039 25.8038 56.0113 30.7745V30.7745Z" fill="#C7CCD8"/>
<path d="M53.6531 24.4887C53.3119 26.1273 52.1834 27.2306 51.1353 26.9589C50.0849 26.6871 49.5097 25.1436 49.846 23.5077C50.1872 21.8773 51.3108 20.7713 52.3613 21.0403C53.4142 21.3121 53.9919 22.8556 53.6531 24.4887Z" fill="#8089A0"/>
</g>
<defs>
<clipPath id="clip0_425_13282">
<rect width="100" height="100" rx="50" fill="white"/>
</clipPath>
</defs>
</svg>
