<svg width="36" height="36" viewBox="0 0 36 36" fill="none" xmlns="http://www.w3.org/2000/svg">
<rect x="0.5" y="0.5" width="35" height="35" rx="17.5" fill="#F38951"/>
<path d="M11.7997 26.5H24.5V22.9564H17.9078V22.8638L19.5904 21.4046C23.359 18.22 24.3156 16.5872 24.3156 14.6417C24.3156 11.5497 21.7917 9.5 17.8387 9.5C14.0009 9.5 11.4885 11.654 11.5 15.1512H15.672C15.6605 13.7268 16.5479 12.9046 17.8387 12.9046C19.1179 12.9046 20.0399 13.7037 20.0514 15.0123C20.0399 16.2282 19.2677 17.0157 18 18.0926L11.7997 23.327V26.5Z" fill="white"/>
<rect x="0.5" y="0.5" width="35" height="35" rx="17.5" stroke="#EC621A"/>
</svg>
