<svg width="36" height="36" viewBox="0 0 36 36" fill="none" xmlns="http://www.w3.org/2000/svg">
<rect x="0.5" y="0.5" width="35" height="35" rx="17.5" fill="#ECC34C"/>
<path d="M17.923 26.5C21.7834 26.5 24.5109 24.4435 24.4999 21.5417C24.5109 19.5081 23.2021 18.0685 20.6725 17.7715V17.6344C22.5532 17.4173 23.917 16.1492 23.906 14.2984C23.917 11.5336 21.4644 9.5 17.967 9.5C14.3925 9.5 11.8409 11.6136 11.8299 14.6183H15.8333C15.8553 13.5901 16.7462 12.8589 17.967 12.8589C19.0888 12.8589 19.8697 13.5672 19.8587 14.5726C19.8697 15.6122 18.9458 16.3548 17.615 16.3548H16.0093V19.371H17.615C19.0778 19.3824 20.0786 20.125 20.0786 21.1761C20.0786 22.2386 19.2098 22.9812 17.945 22.9812C16.6692 22.9812 15.7563 22.2728 15.7233 21.2903H11.5C11.533 24.3407 14.1946 26.5 17.923 26.5Z" fill="white"/>
<rect x="0.5" y="0.5" width="35" height="35" rx="17.5" stroke="#EFB300"/>
</svg>
