<svg width="36" height="36" viewBox="0 0 36 36" fill="none" xmlns="http://www.w3.org/2000/svg">
<rect x="0.5" y="0.5" width="35" height="35" rx="17.5" fill="#80AD9A"/>
<path d="M17.9476 26C21.6021 26 24.0104 23.6676 24 20.376C24.0104 17.3787 21.9895 15.2534 19.267 15.2534C17.7591 15.2534 16.534 15.9401 16.0419 16.8665H15.9581L16.2722 13.3134H23.0576V10H12.9843L12.3351 19.3951H15.8743C16.2408 18.5995 16.911 18.1417 17.9476 18.1526C19.246 18.1417 20.157 19.079 20.1466 20.5068C20.157 21.9128 19.246 22.8501 17.9476 22.8392C16.8272 22.8501 15.9057 22.1308 15.8743 21.03H12C12.0209 23.9401 14.5026 26 17.9476 26Z" fill="white"/>
<rect x="0.5" y="0.5" width="35" height="35" rx="17.5" stroke="#46876B"/>
</svg>
