<svg width="208" height="28" viewBox="0 0 208 28" fill="none" xmlns="http://www.w3.org/2000/svg">
<g clip-path="url(#clip0_222_33158)">
<path d="M64.8557 1.17236H69.0949V3.54228L62.2472 10.5625L69.3842 18.6995V21.0396H64.9696L57.5784 12.2078V21.0396H52.4492V1.17236H57.5784V9.02805L64.8557 1.17236Z" fill="#00204F"/>
<path d="M73.7686 0C75.3161 0 76.4033 1.03151 76.4033 2.48074C76.4033 3.92998 75.3161 4.93165 73.7686 4.93165C72.2211 4.93165 71.1602 3.90014 71.1602 2.48074C71.1602 1.06135 72.2474 0 73.7686 0ZM71.5065 6.74319H76.0614V21.0352H71.5065V6.74319Z" fill="#00204F"/>
<path d="M93.9125 12.0626V21.0351H89.3577V13.124C89.3577 11.3423 88.2705 10.0891 86.6659 10.0891C85.0614 10.0891 83.9435 11.3167 83.9435 13.043V21.0393H79.3887V6.74308H83.8033V8.69528C84.8642 7.1608 86.4117 6.18896 88.3318 6.18896C91.5715 6.18896 93.9213 8.66971 93.9213 12.0669L93.9125 12.0626Z" fill="#00204F"/>
<path d="M112.11 13.8186V21.2012C112.11 25.242 108.901 27.9998 104.201 27.9998C100.391 27.9998 97.2088 26.2436 96.4065 23.6819V21.8704H100.448C100.733 23.4858 102.198 24.658 104.03 24.658C106.095 24.658 107.555 23.1534 107.555 21.0349V19.6709C106.468 20.6172 104.946 21.231 103.316 21.231C99.0763 21.231 95.9199 18.0811 95.9199 13.8186C95.9199 9.55616 99.3569 6.18457 104.113 6.18457C108.87 6.18457 112.11 9.38993 112.11 13.8186ZM100.475 13.9039C100.475 16.0777 101.992 17.6079 104.113 17.6079C106.235 17.6079 107.726 16.1331 107.726 13.9039C107.726 11.6746 106.266 10.0847 104.087 10.0847C101.908 10.0847 100.475 11.6448 100.475 13.9039Z" fill="#00204F"/>
<path d="M122.198 8.46924C123.088 7.02001 124.719 6.18457 126.494 6.18457C128.616 6.18457 130.334 7.16067 131.194 8.72072C132.11 7.16067 134.087 6.21441 136.095 6.21441C139.418 6.21441 141.711 8.58433 141.711 11.9815V21.0349H137.156V12.9278C137.156 11.3379 136.126 10.1401 134.578 10.0847C133.004 10.0847 131.943 11.2569 131.943 12.9278V21.0349H127.388V12.9278C127.388 11.227 126.415 10.0847 124.925 10.0847C123.434 10.0847 122.373 11.227 122.373 12.9278V21.0349H117.818V6.74295H122.202V8.46924H122.198Z" fill="#00204F"/>
<path d="M160.11 13.9042V21.0353H155.927V19.3346C154.722 20.7838 152.977 21.5894 150.943 21.5894C146.673 21.5894 143.723 18.4395 143.723 13.9C143.723 9.36045 147.103 6.18066 151.89 6.18066C156.677 6.18066 160.114 9.4116 160.114 13.9L160.11 13.9042ZM148.273 13.9042C148.273 16.1036 149.79 17.6935 151.912 17.6935C154.034 17.6935 155.55 16.1036 155.55 13.9042C155.55 11.7048 154.034 10.0851 151.912 10.0851C149.79 10.0851 148.273 11.675 148.273 13.9042Z" fill="#00204F"/>
<path d="M172.659 6.74324H176.614V8.91708L171.686 13.6271L176.903 19.0319V21.0395H172.778L167.363 15.1317V21.0395H162.809V0.33252H167.363V12.1182L172.664 6.73897L172.659 6.74324Z" fill="#00204F"/>
<path d="M193.146 13.8484C193.146 14.377 193.089 15.2124 193.001 15.6046H181.853C182.37 17.22 183.602 18.2516 185.29 18.2516C186.724 18.2516 188.012 17.5823 188.411 16.6062H192.081V18.2217C191.134 20.2847 188.297 21.5933 185.202 21.5933C180.358 21.5933 177.035 18.388 177.035 13.793C177.035 9.19812 180.415 6.18457 185.316 6.18457C189.928 6.18457 193.142 9.33452 193.142 13.8484H193.146ZM181.625 13.0386H188.56C188.53 11.0608 187.101 9.52633 185.066 9.52633C183.146 9.52633 181.884 10.9457 181.629 13.0386H181.625Z" fill="#00204F"/>
<path d="M207.389 7.30163V11.3126H205.153C204.895 10.588 204.066 10.085 203.176 10.085C201.716 10.085 200.682 11.4788 200.682 13.4822V21.031H196.127V6.74325H200.511V8.58037C201.344 7.13114 202.773 6.21045 204.439 6.21045C205.614 6.21045 206.819 6.65801 207.389 7.29737V7.30163Z" fill="#00204F"/>
<path d="M15.6543 20.7923L20.0075 14.0065C20.4546 13.3117 21.5638 13.3117 22.0109 14.0065L26.3641 20.7923C26.5702 21.1163 26.9516 21.3123 27.3637 21.3123H40.511C41.4053 21.3123 41.962 20.4343 41.5105 19.7352L36.0876 11.2828C35.658 10.6093 34.5927 10.5838 34.1192 11.2317L31.9317 14.2239C31.4582 14.8718 30.3973 14.8462 29.9633 14.1727L21.9189 1.62411C21.4717 0.929333 20.3626 0.929333 19.9154 1.62411L11.8666 14.1685C11.437 14.842 10.3717 14.8675 9.89821 14.2196L7.71065 11.2274C7.23719 10.5795 6.17628 10.6051 5.74228 11.2785L0.323779 19.7352C-0.123379 20.4343 0.433376 21.3123 1.32331 21.3123H14.6504C15.0624 21.3123 15.4438 21.112 15.6499 20.7923H15.6543Z" fill="url(#paint0_linear_222_33158)"/>
</g>
<defs>
<linearGradient id="paint0_linear_222_33158" x1="20.9193" y1="-8.60149" x2="20.9193" y2="33.1364" gradientUnits="userSpaceOnUse">
<stop offset="0.14" stop-color="#00E1FF"/>
<stop offset="1" stop-color="#0045FD"/>
</linearGradient>
<clipPath id="clip0_222_33158">
<rect width="207.667" height="28" fill="white" transform="translate(0.166016)"/>
</clipPath>
</defs>
</svg>
