<svg width="74" height="18" viewBox="0 0 74 18" fill="none" xmlns="http://www.w3.org/2000/svg">
<g clip-path="url(#clip0_152_51406)">
<path d="M4.93458 16.3618C4.00753 16.3618 3.08047 16.3572 2.15401 16.3658C1.93647 16.3675 1.86727 16.3355 1.9265 16.0974C2.26425 14.7368 2.58323 13.3722 2.90808 12.0082C3.50208 9.51144 4.09548 7.01467 4.69006 4.51791C4.88063 3.71713 5.41482 3.29814 6.24805 3.29757C7.95556 3.29642 9.66307 3.301 11.3706 3.29299C11.6204 3.29184 11.6802 3.33706 11.6216 3.5975C11.1067 5.87791 10.6077 8.16232 10.1075 10.4462C9.76334 12.0179 9.41973 13.5897 9.08433 15.1632C8.93187 15.8787 8.35664 16.3572 7.59846 16.3607C6.7107 16.3647 5.82293 16.3618 4.93458 16.3618Z" fill="#C0C0C0"/>
<path d="M47.6885 9.85999C47.6914 10.7621 47.7008 11.6642 47.6932 12.5662C47.6914 12.7597 47.7336 12.8227 47.9459 12.8221C49.8686 12.8135 51.7913 12.8124 53.714 12.8233C53.9515 12.8244 53.9761 12.7443 53.9755 12.5479C53.9703 9.00541 53.975 5.46231 53.965 1.91978C53.9644 1.65477 54.0125 1.55746 54.3074 1.57406C54.7935 1.60153 55.2837 1.59524 55.7704 1.5752C56.0014 1.56547 56.0372 1.64217 56.0372 1.84595C56.0308 5.6449 56.0325 9.44443 56.0325 13.2434C56.0325 14.3544 56.0261 15.466 56.0378 16.577C56.0401 16.7934 55.9774 16.85 55.7604 16.8432C55.2532 16.8277 54.7454 16.8266 54.2382 16.8432C54.0113 16.8506 53.9597 16.7773 53.9662 16.5684C53.9814 16.0464 53.9574 15.5232 53.9773 15.0018C53.9867 14.7579 53.9292 14.6892 53.6648 14.6898C49.7806 14.6995 45.8959 14.6938 42.0118 14.703C41.7456 14.7036 41.6617 14.6417 41.6764 14.3784C41.7004 13.952 41.694 13.5233 41.6782 13.0969C41.67 12.8822 41.7204 12.8078 41.9614 12.8107C43.113 12.8244 44.2647 12.8095 45.4163 12.8227C45.6514 12.8255 45.7042 12.7597 45.7018 12.5399C45.6913 11.6476 45.7018 10.7546 45.7036 9.8617C46.1973 9.70945 46.704 9.76669 47.2035 9.80217C47.3613 9.81305 47.5343 9.78443 47.6879 9.85999H47.6885Z" fill="#151919"/>
<path d="M65.6729 10.4866C67.7522 10.4866 69.8321 10.4934 71.9113 10.4786C72.2057 10.4763 72.2538 10.5604 72.252 10.8237C72.2397 12.7332 72.2403 14.6433 72.252 16.5528C72.2538 16.7989 72.1805 16.851 71.9442 16.8418C71.4469 16.8235 70.9479 16.8229 70.4507 16.8418C70.2196 16.851 70.1821 16.7737 70.1839 16.5699C70.1933 15.2494 70.1827 13.9284 70.1944 12.6079C70.1962 12.3903 70.1358 12.3463 69.9212 12.3463C66.4164 12.3531 62.9111 12.348 59.4064 12.3577C59.1443 12.3583 59.0745 12.293 59.0874 12.0435C59.1097 11.617 59.1067 11.1883 59.088 10.7613C59.0786 10.5381 59.1443 10.4786 59.3759 10.4797C61.4751 10.4889 63.5737 10.4849 65.6729 10.4849V10.4866Z" fill="#151919"/>
<path d="M62.8235 5.99855C62.5415 6.39464 62.2594 6.78101 61.9029 7.10612C60.919 8.0042 59.7791 8.6035 58.4369 8.81185C58.0164 8.8771 58.0164 8.87538 58.0164 8.46899C58.0164 8.02252 58.0235 7.57606 58.0129 7.12959C58.0088 6.96474 58.061 6.90865 58.2322 6.87373C59.2883 6.65909 60.196 6.20003 60.8146 5.30252C61.34 4.54067 61.5399 3.67464 61.6338 2.77942C61.6695 2.44 61.6813 2.09771 61.6889 1.75656C61.6918 1.62434 61.7241 1.57569 61.8683 1.5774C62.4828 1.58427 63.0979 1.58713 63.713 1.57626C63.9089 1.57282 63.9036 1.67299 63.9048 1.80693C63.9118 2.58767 63.9904 3.35811 64.205 4.11481C64.6313 5.61905 65.6533 6.50168 67.1961 6.82451C67.4851 6.88518 67.5649 6.98936 67.5502 7.26296C67.5262 7.70828 67.5315 8.15589 67.5491 8.60178C67.5573 8.81643 67.4793 8.85249 67.2817 8.83074C65.5613 8.64414 64.2267 7.81989 63.1894 6.50053C63.0657 6.34313 62.9531 6.17656 62.8241 5.99855H62.8235Z" fill="#151919"/>
<path d="M72.2451 5.40725C72.2451 6.58523 72.2339 7.76321 72.2533 8.94062C72.258 9.22796 72.1683 9.28577 71.8956 9.27375C71.3989 9.25143 70.9005 9.26173 70.4027 9.27032C70.242 9.27318 70.184 9.23483 70.1846 9.06654C70.1899 6.63503 70.1904 4.20351 70.1846 1.772C70.1846 1.5957 70.2532 1.57452 70.4056 1.57681C70.9422 1.58426 71.4793 1.58998 72.0158 1.57452C72.221 1.5688 72.2498 1.64321 72.2492 1.81665C72.2422 3.01351 72.2457 4.21038 72.2457 5.40668L72.2451 5.40725Z" fill="#151919"/>
<path d="M33.9214 2.89823C34.2345 2.5588 34.5658 2.32641 34.9921 2.24112C35.6829 2.1026 36.1842 2.45691 36.2042 3.13977C36.23 4.02183 36.2229 4.90446 36.2376 5.78651C36.2393 5.89584 36.1989 5.91701 36.1051 5.91415C36.0171 5.91129 35.9286 5.90557 35.8418 5.9153C35.6653 5.93533 35.65 5.8655 35.6541 5.70523C35.6747 4.92735 35.6846 4.1489 35.6741 3.37102C35.667 2.85072 35.2079 2.58169 34.6767 2.75856C34.1759 2.92513 33.9126 3.28116 33.9138 3.79344C33.9156 4.4391 33.9132 5.08419 33.9273 5.72927C33.9308 5.88839 33.8792 5.91587 33.732 5.91701C33.3274 5.92045 33.3362 5.92732 33.3368 5.53866C33.3386 4.05789 33.3444 2.57711 33.3233 1.09691C33.3198 0.841054 33.4424 0.867956 33.6007 0.874253C33.759 0.881121 33.9455 0.799269 33.9296 1.10378C33.9003 1.68075 33.9208 2.26001 33.9208 2.89765L33.9214 2.89823Z" fill="#151919"/>
<path d="M31.227 3.67035C31.227 4.31543 31.2135 4.96109 31.234 5.60503C31.241 5.83628 31.1982 5.91641 30.9443 5.90668C30.7057 5.89752 30.6124 5.88722 30.6189 5.59186C30.65 4.25476 30.6336 2.91708 30.6406 1.57941C30.6412 1.4323 30.5802 1.40712 30.45 1.41055C30.1187 1.41914 29.7857 1.40025 29.4567 1.42658C29.2052 1.44661 29.2603 1.29836 29.248 1.16156C29.2327 0.994996 29.2749 0.938329 29.4684 0.941191C30.4623 0.954356 31.4568 0.945771 32.4507 0.949777C32.524 0.949777 32.6905 0.864491 32.643 1.04537C32.6085 1.17816 32.7603 1.42772 32.4449 1.42486C32.1329 1.422 31.8192 1.43459 31.5096 1.40712C31.2522 1.38422 31.2094 1.47981 31.2146 1.70648C31.2305 2.36072 31.2205 3.01553 31.2205 3.66978C31.2223 3.66978 31.224 3.66978 31.2264 3.66978L31.227 3.67035Z" fill="#151919"/>
<path d="M45.8806 9.79642C45.9334 9.77753 45.9903 9.73517 46.0383 9.74318C46.4547 9.81359 46.8704 9.75521 47.2861 9.74719C47.3934 9.87598 47.5852 9.71571 47.6884 9.85824C47.027 9.85881 46.3655 9.85995 45.7041 9.86053C45.7375 9.77295 45.8179 9.80844 45.8806 9.79642Z" fill="#ABACAC"/>
<path fill-rule="evenodd" clip-rule="evenodd" d="M13.5056 16.3734C13.3485 16.3734 13.1915 16.3731 13.0344 16.3729C12.6156 16.3722 12.1969 16.3715 11.7782 16.3757C11.6169 16.3774 11.5395 16.3557 11.5383 16.1628C11.536 15.8405 11.2827 15.6156 10.9819 15.6178C10.6781 15.6201 10.4313 15.8434 10.4383 16.1691C10.4429 16.3795 10.3365 16.3768 10.2136 16.3736C10.1961 16.3731 10.1782 16.3727 10.1604 16.3728C9.69947 16.3774 9.52024 16.1649 9.62266 15.7352L10.3155 12.8238L10.3156 12.8235L10.3159 12.8222L10.3161 12.8213C11.1177 9.45258 11.9192 6.08385 12.7257 2.71616C12.7444 2.6382 12.761 2.55963 12.7776 2.481C12.8389 2.19076 12.9004 1.89962 13.0647 1.63434C13.359 1.15926 13.7835 0.915418 14.3418 0.913129C15.2096 0.909474 16.0775 0.909686 16.9454 0.909898C17.8442 0.910118 18.7431 0.910337 19.642 0.90626C19.9183 0.904889 19.8613 1.04157 19.8152 1.15206C19.8036 1.17989 19.7927 1.20606 19.788 1.22794C19.5706 2.23422 19.3463 3.23902 19.1219 4.24383L19.1218 4.24424C19.0339 4.63789 18.9461 5.03154 18.8586 5.42528C18.6159 6.51781 18.3738 7.61048 18.1316 8.70323C17.9055 9.72304 17.6795 10.7429 17.4531 11.7628C17.4138 11.9385 17.3586 12.1045 17.2543 12.2608C17.13 12.4468 17.0748 12.6614 17.1446 12.887C17.1745 12.9826 17.1587 13.0718 17.137 13.1663C17.0092 13.7215 16.8843 14.2767 16.7652 14.8337C16.7412 14.9459 16.7177 15.014 16.5788 15.0414C15.9308 15.1691 15.6107 15.5091 15.5644 16.145C15.5509 16.331 15.4805 16.3665 15.3216 16.366C14.868 16.3642 14.4144 16.3645 13.9608 16.3647H13.9601L13.5062 16.3648V16.3717L13.5056 16.3734ZM15.4137 13.974C14.9082 13.9717 14.4977 13.5762 14.5007 13.0931C14.503 12.5899 14.9176 12.1893 15.4295 12.1944C15.9285 12.1996 16.3407 12.5997 16.343 13.0805C16.3454 13.5802 15.9332 13.9768 15.4137 13.9745V13.974ZM13.586 15.7844C14.0902 15.7775 14.4843 15.3797 14.4802 14.8817C14.4761 14.3786 14.0861 14.006 13.566 14.0071C13.05 14.0083 12.6566 14.3889 12.6548 14.8875C12.653 15.3917 13.0682 15.7918 13.586 15.7844ZM16.7306 10.0244C17.0379 10.0244 17.2836 10.2625 17.2871 10.5625C17.2912 10.8779 17.0408 11.1183 16.7154 11.1108C16.4046 11.104 16.1689 10.8647 16.173 10.5613C16.1771 10.2597 16.4222 10.0239 16.7301 10.0239L16.7306 10.0244ZM13.2335 12.2162C13.2423 11.9277 12.9896 11.6781 12.6824 11.6724C12.3634 11.6667 12.1265 11.8847 12.1183 12.1915C12.1101 12.5041 12.3598 12.7616 12.67 12.7599C12.9609 12.7582 13.2247 12.5035 13.2335 12.2162Z" fill="#3CB6B9"/>
<path fill-rule="evenodd" clip-rule="evenodd" d="M23.1498 16.3347V16.334C23.7746 16.2554 24.2241 15.8016 24.3747 15.1155L24.8038 13.1616C25.5072 9.95759 26.2107 6.75317 26.9208 3.55033C26.9671 3.34083 26.9325 3.28989 26.7138 3.29103C25.7094 3.29531 24.705 3.29524 23.7005 3.29516C22.9582 3.29511 22.2158 3.29506 21.4734 3.29676C20.7293 3.29848 20.1722 3.73349 19.9928 4.43982C19.9422 4.63952 19.8955 4.8404 19.8487 5.04124L19.8487 5.04133C19.8223 5.15477 19.7959 5.2682 19.7688 5.3814L19.7086 5.63334L19.7086 5.63344C19.2373 7.60779 18.7659 9.5826 18.2917 11.5564C18.2513 11.7235 18.2524 11.8116 18.4682 11.8752C18.9256 12.0103 19.1566 12.4859 19.0405 12.9553C18.9397 13.3634 18.4741 13.6702 18.0296 13.5895C17.8619 13.5586 17.8021 13.5941 17.7687 13.7446C17.6754 14.1613 17.5758 14.5769 17.4749 14.9918C17.4444 15.1155 17.469 15.1985 17.5822 15.2826C17.8795 15.5041 18.029 15.8167 18.0191 16.1738C18.0138 16.3553 18.0712 16.377 18.2261 16.377C19.4264 16.373 20.6267 16.3724 21.827 16.3776C21.9917 16.3782 22.0357 16.3295 22.0404 16.1681C22.0498 15.8424 22.2919 15.6186 22.5928 15.6192C22.9065 15.6198 23.1351 15.8556 23.1498 16.195C23.151 16.2254 23.1506 16.2557 23.1502 16.2867V16.2868C23.15 16.3023 23.1498 16.318 23.1498 16.334L23.1492 16.3341L23.1498 16.3347ZM20.0116 14.0079C20.5264 14.0084 20.9198 14.3891 20.9222 14.8882C20.9245 15.3919 20.5076 15.7926 19.9899 15.7851C19.4838 15.7783 19.0939 15.3839 19.0968 14.8825C19.0997 14.3816 19.492 14.0067 20.0116 14.0073V14.0079ZM20.9175 12.7601C21.2206 12.7566 21.4587 12.5151 21.4593 12.2088C21.4599 11.8992 21.2294 11.6725 20.9128 11.6725C20.6003 11.6719 20.3464 11.9055 20.3423 12.1974C20.3381 12.491 20.6161 12.7635 20.9175 12.7601Z" fill="#B8D434"/>
<path fill-rule="evenodd" clip-rule="evenodd" d="M45.655 9.6997C45.7386 9.70924 45.8224 9.71881 45.8804 9.79695V9.79637C45.9391 9.79877 45.9979 9.80063 46.0567 9.80248C46.1809 9.80641 46.305 9.81034 46.4293 9.81927C46.716 9.84045 47.0056 9.83301 47.2859 9.74772C47.3246 9.74099 47.3633 9.73475 47.4021 9.72851C47.4886 9.7146 47.575 9.70069 47.66 9.68132C50.9044 8.94981 52.1921 5.74614 50.7238 3.2259C49.9158 1.839 48.6082 1.10291 46.9634 0.999304C45.1603 0.885971 43.6739 1.51274 42.6489 2.97004C41.0856 5.19264 41.8925 8.86223 45.5673 9.68648C45.5957 9.69293 45.6254 9.69631 45.655 9.6997ZM49.2139 5.38383C49.2069 4.02612 48.0336 2.92884 46.5964 2.93571L46.5969 2.93514C45.1433 2.94258 44.0052 4.02612 44.0052 5.40157C44.0052 6.7444 45.1961 7.88632 46.6011 7.89147C48.0001 7.89662 49.2209 6.72551 49.2139 5.38383Z" fill="#151919"/>
<path fill-rule="evenodd" clip-rule="evenodd" d="M38.6192 4.22466C38.7116 4.22386 38.8041 4.22305 38.8965 4.22305H39.5104C39.94 4.22305 40.1276 4.01585 40.0733 3.60144C39.9642 2.76803 39.5162 2.29524 38.7698 2.22713C38.0621 2.16245 37.4605 2.59002 37.2048 3.34157C37.0699 3.73709 37.0453 4.14406 37.1151 4.55103C37.3426 5.88241 38.6537 6.44564 39.8405 5.73016C39.9619 5.65689 40.0147 5.60824 39.9226 5.45083C39.8262 5.28597 39.7537 5.32797 39.6531 5.38618C39.6399 5.39386 39.6262 5.40182 39.6118 5.40962C38.6608 5.92763 37.7232 5.43709 37.7249 4.43426C37.7255 4.24824 37.7888 4.21275 37.96 4.21962C38.1796 4.22848 38.3994 4.22657 38.6192 4.22466ZM38.4092 3.83344C38.4763 3.83422 38.5433 3.83499 38.6104 3.83499V3.83442L38.8184 3.8346C38.9918 3.83484 39.1652 3.83507 39.3386 3.83384C39.348 3.83377 39.3573 3.83401 39.3665 3.83425C39.4299 3.8359 39.4888 3.83743 39.5098 3.73654C39.6447 3.08687 39.0144 2.49445 38.3758 2.6759C38.0134 2.77893 37.7765 3.14583 37.7355 3.63465C37.7214 3.80179 37.7783 3.84644 37.9407 3.83785C38.0963 3.82984 38.2527 3.83164 38.4092 3.83344Z" fill="#151919"/>
</g>
<defs>
<clipPath id="clip0_152_51406">
<rect width="74" height="17" fill="white" transform="translate(0 0.5)"/>
</clipPath>
</defs>
</svg>
