<svg width="170" height="36" viewBox="0 0 170 36" fill="none" xmlns="http://www.w3.org/2000/svg">
<path d="M71.5876 23.9522L71.5811 23.9587V25.4977H82.5689V23.502H74.4884L82.495 12.0669L82.5016 12.0604V10.5215H71.5137V12.5172H79.5942L71.5876 23.9522Z" fill="black"/>
<path d="M86.6139 10.5215H84.248V25.4998H86.6139V10.5215Z" fill="black"/>
<path d="M91.6432 14.5561H91.7411L99.502 25.4847L99.5107 25.4977H101.676V10.5215H99.3324V21.476H99.2367L91.4671 10.5323L91.4584 10.5215H89.2773V25.4977H91.6432V14.5561Z" fill="black"/>
<path d="M106.706 10.5215H104.34V25.4998H106.706V10.5215Z" fill="black"/>
<path d="M118.334 24.5951C119.429 23.9955 120.278 23.1254 120.858 22.0085C121.437 20.8916 121.73 19.541 121.73 17.989C121.73 16.4371 121.439 15.0951 120.865 13.9869C120.291 12.8765 119.453 12.0128 118.379 11.4176C117.305 10.8224 116.002 10.5215 114.506 10.5215H109.37V25.4998H114.348C115.898 25.4998 117.24 25.1968 118.334 24.5972V24.5951ZM114.363 12.5475C115.468 12.5475 116.405 12.7596 117.148 13.1773C117.892 13.5951 118.457 14.2163 118.834 15.0215C119.21 15.8288 119.401 16.8288 119.401 17.989C119.401 19.1492 119.208 20.1643 118.829 20.9739C118.451 21.7834 117.873 22.4089 117.109 22.8332C116.346 23.2574 115.374 23.4739 114.219 23.4739H111.734V12.5475H114.363Z" fill="black"/>
<path d="M125.71 21.5498H131.642L133.033 25.4784L133.04 25.4979H135.551L130.035 10.539L130.028 10.5195H127.323L121.8 25.4979H124.311L125.712 21.5498H125.71ZM128.639 13.2901H128.717L130.95 19.5975H126.401L128.639 13.2901Z" fill="black"/>
<path d="M138.737 25.4977H141.096V12.5172H145.865V10.5215H133.975V12.5172H138.737V25.4977Z" fill="black"/>
<path d="M146.815 25.4979L148.215 21.5498H154.148L155.539 25.4784L155.546 25.4979H158.057L152.541 10.539L152.534 10.5195H149.829L144.306 25.4979H146.817H146.815ZM148.907 19.5975L151.145 13.2901H151.223L153.456 19.5975H148.907Z" fill="black"/>
<path d="M44.3106 26.1577C44.328 26.1577 45.8371 26.2096 47.3593 25.5451C48.7836 24.9218 50.6037 23.5495 51.2104 20.5495H49.0293C48.6336 22.0148 47.7899 23.0408 46.5199 23.5992C45.4762 24.0581 44.3128 24.0408 44.3041 24.0408C41.6599 24.0408 40.7357 22.833 40.4313 22.4369C39.6571 21.4283 39.2483 19.9282 39.244 18.1014C39.2461 16.2724 39.6571 14.7724 40.4313 13.7637C40.7357 13.3676 41.6599 12.1599 44.3063 12.1599C44.315 12.1599 45.4783 12.1425 46.5221 12.6014C47.792 13.1599 48.6357 14.1858 49.0315 15.6534H51.2126C50.6037 12.6534 48.7836 11.2811 47.3615 10.6577C46.0524 10.0841 44.752 10.043 44.4041 10.043C44.3476 10.043 44.3171 10.043 44.315 10.043C41.8599 10.043 39.9877 10.8611 38.7504 12.4759C37.6914 13.8568 37.1303 15.8027 37.126 18.0992C37.1282 20.3979 37.6892 22.3417 38.7504 23.7226C39.9898 25.3373 41.8599 26.1555 44.3128 26.1555L44.3106 26.1577Z" fill="black"/>
<path d="M64.714 23.5234H55.107V18.8069H63.4767V16.8221H55.107V12.519H64.714V10.5342H53.0107V25.5104H64.714V23.5234Z" fill="black"/>
<path d="M36.5407 23.5175H32.5656V12.5218H36.5407V10.5283H26.4922V12.5218H30.4694V23.5175H26.4922V25.511H36.5407V23.5175Z" fill="black"/>
<path d="M14.024 13.7727L22.0806 25.5108H24.6074V10.5303H22.5112V22.2056L14.5024 10.5303H11.9277V25.5108H14.024V13.7727Z" fill="black"/>
<path d="M163.22 6.75098H6.78027V29.251H163.218V6.75098H163.22ZM161.663 27.699H8.3394V8.30076H161.663V27.699Z" fill="black"/>
</svg>
