<svg width="15" height="15" viewBox="0 0 15 15" fill="none" xmlns="http://www.w3.org/2000/svg">
<path d="M12.8958 6.77148H8.22909V2.10482C8.22909 2.01732 8.17075 1.95898 8.08325 1.95898H6.91659C6.82909 1.95898 6.77075 2.01732 6.77075 2.10482V6.77148H2.10409C2.01659 6.77148 1.95825 6.82982 1.95825 6.91732V8.08398C1.95825 8.17148 2.01659 8.22982 2.10409 8.22982H6.77075V12.8965C6.77075 12.984 6.82909 13.0423 6.91659 13.0423H8.08325C8.17075 13.0423 8.22909 12.984 8.22909 12.8965V8.22982H12.8958C12.9833 8.22982 13.0416 8.17148 13.0416 8.08398V6.91732C13.0416 6.82982 12.9833 6.77148 12.8958 6.77148Z" fill="black"/>
</svg>
