<svg width="10" height="10" viewBox="0 0 10 10" fill="none" xmlns="http://www.w3.org/2000/svg">
<path d="M8.85425 4.47852H5.52091V1.14518C5.52091 1.08268 5.47925 1.04102 5.41675 1.04102H4.58341C4.52091 1.04102 4.47925 1.08268 4.47925 1.14518V4.47852H1.14591C1.08341 4.47852 1.04175 4.52018 1.04175 4.58268V5.41602C1.04175 5.47852 1.08341 5.52018 1.14591 5.52018H4.47925V8.85352C4.47925 8.91602 4.52091 8.95768 4.58341 8.95768H5.41675C5.47925 8.95768 5.52091 8.91602 5.52091 8.85352V5.52018H8.85425C8.91675 5.52018 8.95841 5.47852 8.95841 5.41602V4.58268C8.95841 4.52018 8.91675 4.47852 8.85425 4.47852Z" fill="white"/>
</svg>
