<svg width="20" height="20" viewBox="0 0 20 20" fill="none" xmlns="http://www.w3.org/2000/svg">
<g clip-path="url(#clip0_468_30042)">
<path d="M10.0001 3.33268C13.6751 3.33268 16.6667 6.32435 16.6667 9.99935C16.6667 13.6743 13.6751 16.666 10.0001 16.666C6.32508 16.666 3.33341 13.6743 3.33341 9.99935C3.33341 6.32435 6.32508 3.33268 10.0001 3.33268ZM10.0001 1.66602C5.40008 1.66602 1.66675 5.39935 1.66675 9.99935C1.66675 14.5993 5.40008 18.3327 10.0001 18.3327C14.6001 18.3327 18.3334 14.5993 18.3334 9.99935C18.3334 5.39935 14.6001 1.66602 10.0001 1.66602ZM10.0001 12.4993L6.66675 9.16602H13.3334L10.0001 12.4993Z" fill="#666666"/>
</g>
<defs>
<clipPath id="clip0_468_30042">
<rect width="20" height="20" fill="white"/>
</clipPath>
</defs>
</svg>
