<svg width="17" height="16" viewBox="0 0 17 16" fill="none" xmlns="http://www.w3.org/2000/svg">
<path fill-rule="evenodd" clip-rule="evenodd" d="M3.26687 5.75011C3.26687 5.52011 3.35687 5.29011 3.52687 5.11011C3.69554 4.94218 3.92386 4.8479 4.16187 4.8479C4.39988 4.8479 4.6282 4.94218 4.79687 5.11011L8.66687 8.98011L12.5269 5.11011C12.6955 4.94218 12.9239 4.8479 13.1619 4.8479C13.3999 4.8479 13.6282 4.94218 13.7969 5.11011C13.9648 5.27878 14.0591 5.5071 14.0591 5.74511C14.0591 5.98312 13.9648 6.21144 13.7969 6.38011L9.29687 10.8801C9.1282 11.048 8.89988 11.1423 8.66187 11.1423C8.42386 11.1423 8.19554 11.048 8.02687 10.8801L3.52687 6.38011C3.35687 6.21011 3.26687 5.98011 3.26687 5.75011" fill="#181C1D"/>
</svg>
