<svg width="24" height="24" viewBox="0 0 24 24" fill="none" xmlns="http://www.w3.org/2000/svg">
<rect x="3" y="2.5" width="9" height="10" fill="#0AB5C4"/>
<rect x="12" y="11.5" width="9" height="10" fill="#0AB5C4"/>
<path d="M6.43905 16.5002L5.46933 15.5306C5.17642 15.2377 5.1764 14.7628 5.46928 14.4699C5.76216 14.177 6.23704 14.177 6.52994 14.4699L7.49976 15.4396L8.4698 14.4696C8.76271 14.1768 9.23758 14.1768 9.53047 14.4697C9.82335 14.7626 9.82333 15.2375 9.53042 15.5304L8.56046 16.5002L9.53031 17.47C9.82321 17.7629 9.82323 18.2378 9.53035 18.5307C9.23747 18.8236 8.7626 18.8236 8.46969 18.5307L7.49976 17.5609L6.53018 18.5304C6.23727 18.8232 5.7624 18.8232 5.46952 18.5303C5.17664 18.2374 5.17666 17.7625 5.46956 17.4696L6.43905 16.5002Z" fill="#0AB5C4"/>
<path d="M14.5 6.75C14.0858 6.75 13.75 7.08579 13.75 7.5C13.75 7.91421 14.0858 8.25 14.5 8.25H18.5C18.9142 8.25 19.25 7.91421 19.25 7.5C19.25 7.08579 18.9142 6.75 18.5 6.75H14.5Z" fill="#0AB5C4"/>
<path fill-rule="evenodd" clip-rule="evenodd" d="M2 22V2H22V22H2ZM3.5 3.5H11.25V11.25L3.5 11.25V3.5ZM3.5 12.75V20.5H11.25V12.75L3.5 12.75ZM12.75 12.75V20.5H20.5V12.75L12.75 12.75ZM20.5 11.25V3.5H12.75V11.25L20.5 11.25Z" fill="#0AB5C4"/>
<path d="M13.75 15C13.75 14.5858 14.0858 14.25 14.5 14.25H18.5C18.9142 14.25 19.25 14.5858 19.25 15C19.25 15.4142 18.9142 15.75 18.5 15.75H14.5C14.0858 15.75 13.75 15.4142 13.75 15Z" fill="white"/>
<path d="M14.5 17.25C14.0858 17.25 13.75 17.5858 13.75 18C13.75 18.4142 14.0858 18.75 14.5 18.75H18.5C18.9142 18.75 19.25 18.4142 19.25 18C19.25 17.5858 18.9142 17.25 18.5 17.25H14.5Z" fill="white"/>
<path d="M5.5 6.75C5.08579 6.75 4.75 7.08579 4.75 7.5C4.75 7.91421 5.08579 8.25 5.5 8.25H6.75V9.5C6.75 9.91421 7.08579 10.25 7.5 10.25C7.91421 10.25 8.25 9.91421 8.25 9.5V8.25H9.5C9.91421 8.25 10.25 7.91421 10.25 7.5C10.25 7.08579 9.91421 6.75 9.5 6.75H8.25V5.5C8.25 5.08579 7.91421 4.75 7.5 4.75C7.08579 4.75 6.75 5.08579 6.75 5.5V6.75H5.5Z" fill="white"/>
</svg>
