<svg width="24" height="24" viewBox="0 0 24 24" fill="none" xmlns="http://www.w3.org/2000/svg">
<circle cx="10" cy="8.5" r="8" fill="#BFC3C4"/>
<path d="M5.76279 5.03869C6.15575 4.90771 6.58049 5.12008 6.71147 5.51303L7.99996 9.3785L9.28845 5.51303C9.39053 5.20678 9.67714 5.0002 9.99996 5.0002C10.3228 5.0002 10.6094 5.20678 10.7115 5.51303L12 9.3785L13.2884 5.51303C13.4194 5.12008 13.8442 4.90771 14.2371 5.03869C14.6301 5.16968 14.8425 5.59442 14.7115 5.98737L14.1633 7.63184H15.0001C15.4143 7.63184 15.7501 7.96762 15.7501 8.38184C15.7501 8.79605 15.4143 9.13184 15.0001 9.13184L13.6633 9.13184L12.7115 11.9874C12.6094 12.2936 12.3228 12.5002 12 12.5002C11.6771 12.5002 11.3905 12.2936 11.2884 11.9874L9.99996 8.12191L8.71147 11.9874C8.60939 12.2936 8.32278 12.5002 7.99996 12.5002C7.67714 12.5002 7.39053 12.2936 7.28845 11.9874L6.3366 9.13184H5C4.58579 9.13184 4.25 8.79605 4.25 8.38184C4.25 7.96762 4.58579 7.63184 5 7.63184H5.8366L5.28845 5.98737C5.15746 5.59442 5.36983 5.16968 5.76279 5.03869Z" fill="white"/>
<path d="M23 14.2997H17.8572V16.2997H19.5863L16.7621 19.124L14.4049 16.7668L9.58594 21.5858L11.0002 23L14.4049 19.5952L16.7621 21.9524L21 17.7144V19.4425H23V14.2997Z" fill="#BFC3C4"/>
</svg>
