<svg width="20" height="21" viewBox="0 0 20 21" fill="none" xmlns="http://www.w3.org/2000/svg">
<path d="M8.75008 4.66675C7.34913 4.66675 5.97964 5.08218 4.81479 5.86051C3.64995 6.63883 2.74206 7.7451 2.20594 9.03941C1.66982 10.3337 1.52954 11.7579 1.80286 13.132C2.07617 14.506 2.75079 15.7681 3.74141 16.7588C4.73203 17.7494 5.99416 18.424 7.36819 18.6973C8.74222 18.9706 10.1664 18.8303 11.4608 18.2942C12.7551 17.7581 13.8613 16.8502 14.6397 15.6854C15.418 14.5205 15.8334 13.151 15.8334 11.7501C15.8335 11.7113 15.826 11.673 15.8113 11.6372C15.7965 11.6014 15.7748 11.5688 15.7474 11.5414C15.72 11.514 15.6875 11.4923 15.6517 11.4776C15.6159 11.4628 15.5775 11.4553 15.5388 11.4554H9.04473V4.9614C9.04487 4.92267 9.03734 4.88429 9.02258 4.84848C9.00782 4.81267 8.98612 4.78013 8.95873 4.75275C8.93134 4.72536 8.89881 4.70366 8.863 4.6889C8.82719 4.67414 8.78881 4.66661 8.75008 4.66675Z" fill="#181C1D"/>
<path d="M11.1328 2.16675C11.0534 2.16698 10.9774 2.19861 10.9212 2.25473C10.8651 2.31085 10.8335 2.3869 10.8333 2.46627V9.36723C10.8335 9.44659 10.8651 9.52264 10.9212 9.57877C10.9774 9.63489 11.0534 9.66652 11.1328 9.66675H18.0337C18.1131 9.66651 18.1891 9.63488 18.2453 9.57876C18.3014 9.52264 18.333 9.44659 18.3333 9.36723C18.3305 7.45838 17.571 5.6285 16.2213 4.27874C14.8715 2.92898 13.0416 2.16948 11.1328 2.16675Z" fill="#181C1D"/>
</svg>
