<svg width="20" height="21" viewBox="0 0 20 21" fill="none" xmlns="http://www.w3.org/2000/svg">
<g clip-path="url(#clip0_567_54774)">
<path d="M12.0837 10.2913C12.659 10.2913 13.1253 9.82497 13.1253 9.24967C13.1253 8.67438 12.659 8.20801 12.0837 8.20801C11.5084 8.20801 11.042 8.67438 11.042 9.24967C11.042 9.82497 11.5084 10.2913 12.0837 10.2913Z" fill="white"/>
<path d="M7.91667 10.2913C8.49196 10.2913 8.95833 9.82497 8.95833 9.24967C8.95833 8.67438 8.49196 8.20801 7.91667 8.20801C7.34137 8.20801 6.875 8.67438 6.875 9.24967C6.875 9.82497 7.34137 10.2913 7.91667 10.2913Z" fill="white"/>
<path d="M19.1163 9.95C18.908 8.69167 17.983 7.66667 16.7747 7.30833C16.333 6.375 15.708 5.55833 14.9497 4.88333C13.633 3.70833 11.8997 3 9.99967 3C8.09967 3 6.36634 3.70833 5.04967 4.88333C4.28301 5.55833 3.65801 6.38333 3.22467 7.30833C2.01634 7.66667 1.09134 8.68333 0.883008 9.95C0.849674 10.125 0.833008 10.3083 0.833008 10.5C0.833008 10.6917 0.849674 10.875 0.883008 11.05C1.09134 12.3083 2.01634 13.3333 3.22467 13.6917C3.65801 14.6167 4.28301 15.4333 5.03301 16.1C6.34967 17.2833 8.09134 18 9.99967 18C11.908 18 13.6497 17.2833 14.9747 16.1C15.7247 15.4333 16.3497 14.6083 16.783 13.6917C17.983 13.3333 18.908 12.3167 19.1163 11.05C19.1497 10.875 19.1663 10.6917 19.1663 10.5C19.1663 10.3083 19.1497 10.125 19.1163 9.95ZM15.833 12.1667C15.7497 12.1667 15.6747 12.15 15.5913 12.1417C15.4247 12.7 15.183 13.2167 14.8747 13.6917C13.833 15.2833 12.0413 16.3333 9.99967 16.3333C7.95801 16.3333 6.16634 15.2833 5.12467 13.6917C4.81634 13.2167 4.57467 12.7 4.40801 12.1417C4.32467 12.15 4.24967 12.1667 4.16634 12.1667C3.24967 12.1667 2.49967 11.4167 2.49967 10.5C2.49967 9.58333 3.24967 8.83333 4.16634 8.83333C4.24967 8.83333 4.32467 8.85 4.40801 8.85833C4.57467 8.3 4.81634 7.78333 5.12467 7.30833C6.16634 5.71667 7.95801 4.66667 9.99967 4.66667C12.0413 4.66667 13.833 5.71667 14.8747 7.30833C15.183 7.78333 15.4247 8.3 15.5913 8.85833C15.6747 8.85 15.7497 8.83333 15.833 8.83333C16.7497 8.83333 17.4997 9.58333 17.4997 10.5C17.4997 11.4167 16.7497 12.1667 15.833 12.1667ZM9.99967 14.6667C11.6747 14.6667 13.1163 13.6417 13.7497 12.1667H6.24967C6.88301 13.6417 8.32467 14.6667 9.99967 14.6667Z" fill="white"/>
</g>
<defs>
<clipPath id="clip0_567_54774">
<rect width="20" height="20" fill="white" transform="translate(0 0.5)"/>
</clipPath>
</defs>
</svg>
