<svg width="20" height="21" viewBox="0 0 20 21" fill="none" xmlns="http://www.w3.org/2000/svg">
<g clip-path="url(#clip0_399_52914)">
<path d="M10.0003 18.8337C5.40866 18.8337 1.66699 15.092 1.66699 10.5003C1.66699 5.90866 5.40866 2.16699 10.0003 2.16699C14.592 2.16699 18.3337 5.53366 18.3337 9.66699C18.3337 12.4253 16.092 14.667 13.3337 14.667H11.8587C11.6253 14.667 11.442 14.8503 11.442 15.0837C11.442 15.1837 11.4837 15.2753 11.5503 15.3587C11.892 15.7503 12.0837 16.242 12.0837 16.7503C12.0837 17.9003 11.1503 18.8337 10.0003 18.8337ZM10.0003 3.83366C6.32533 3.83366 3.33366 6.82533 3.33366 10.5003C3.33366 14.1753 6.32533 17.167 10.0003 17.167C10.2337 17.167 10.417 16.9837 10.417 16.7503C10.417 16.617 10.3503 16.517 10.3003 16.4587C9.95866 16.0753 9.77533 15.5837 9.77533 15.0837C9.77533 13.9337 10.7087 13.0003 11.8587 13.0003H13.3337C15.1753 13.0003 16.667 11.5087 16.667 9.66699C16.667 6.45033 13.6753 3.83366 10.0003 3.83366Z" fill="white"/>
<path d="M5.41699 11.333C6.10735 11.333 6.66699 10.7734 6.66699 10.083C6.66699 9.39265 6.10735 8.83301 5.41699 8.83301C4.72664 8.83301 4.16699 9.39265 4.16699 10.083C4.16699 10.7734 4.72664 11.333 5.41699 11.333Z" fill="white"/>
<path d="M7.91699 8C8.60735 8 9.16699 7.44036 9.16699 6.75C9.16699 6.05964 8.60735 5.5 7.91699 5.5C7.22664 5.5 6.66699 6.05964 6.66699 6.75C6.66699 7.44036 7.22664 8 7.91699 8Z" fill="white"/>
<path d="M12.083 8C12.7734 8 13.333 7.44036 13.333 6.75C13.333 6.05964 12.7734 5.5 12.083 5.5C11.3927 5.5 10.833 6.05964 10.833 6.75C10.833 7.44036 11.3927 8 12.083 8Z" fill="white"/>
<path d="M14.583 11.333C15.2734 11.333 15.833 10.7734 15.833 10.083C15.833 9.39265 15.2734 8.83301 14.583 8.83301C13.8927 8.83301 13.333 9.39265 13.333 10.083C13.333 10.7734 13.8927 11.333 14.583 11.333Z" fill="white"/>
</g>
<defs>
<clipPath id="clip0_399_52914">
<rect width="20" height="20" fill="white" transform="translate(0 0.5)"/>
</clipPath>
</defs>
</svg>
