<svg width="20" height="20" viewBox="0 0 20 20" fill="none" xmlns="http://www.w3.org/2000/svg">
<g clip-path="url(#clip0_437_31036)">
<path d="M5.83333 9.16602H7.5V10.8327H5.83333V9.16602ZM17.5 4.99935V16.666C17.5 17.5827 16.75 18.3327 15.8333 18.3327H4.16667C3.24167 18.3327 2.5 17.5827 2.5 16.666L2.50833 4.99935C2.50833 4.08268 3.24167 3.33268 4.16667 3.33268H5V1.66602H6.66667V3.33268H13.3333V1.66602H15V3.33268H15.8333C16.75 3.33268 17.5 4.08268 17.5 4.99935ZM4.16667 6.66602H15.8333V4.99935H4.16667V6.66602ZM15.8333 16.666V8.33268H4.16667V16.666H15.8333ZM12.5 10.8327H14.1667V9.16602H12.5V10.8327ZM9.16667 10.8327H10.8333V9.16602H9.16667V10.8327Z" fill="white"/>
</g>
<defs>
<clipPath id="clip0_437_31036">
<rect width="20" height="20" fill="white"/>
</clipPath>
</defs>
</svg>
