<svg width="20" height="21" viewBox="0 0 20 21" fill="none" xmlns="http://www.w3.org/2000/svg">
<g clip-path="url(#clip0_399_52901)">
<path d="M9.99967 2.16699C6.31634 2.16699 3.33301 2.58366 3.33301 5.50033V13.8337C3.33301 14.567 3.65801 15.2253 4.16634 15.6837V17.167C4.16634 17.6253 4.54134 18.0003 4.99967 18.0003H5.83301C6.29134 18.0003 6.66634 17.6253 6.66634 17.167V16.3337H13.333V17.167C13.333 17.6253 13.708 18.0003 14.1663 18.0003H14.9997C15.458 18.0003 15.833 17.6253 15.833 17.167V15.6837C16.3413 15.2253 16.6663 14.567 16.6663 13.8337V5.50033C16.6663 2.58366 13.683 2.16699 9.99967 2.16699ZM14.7163 4.65866H5.28301C5.74134 4.21699 6.92467 3.83366 9.99967 3.83366C13.0747 3.83366 14.258 4.21699 14.7163 4.65866ZM14.9997 6.32533V8.83366H4.99967V6.32533H14.9997ZM14.7163 14.442L14.4747 14.667H5.52467L5.28301 14.442C5.17467 14.3503 4.99967 14.142 4.99967 13.8337V10.5003H14.9997V13.8337C14.9997 14.142 14.8247 14.3503 14.7163 14.442Z" fill="white"/>
<path d="M7.08301 13.833C7.77336 13.833 8.33301 13.2734 8.33301 12.583C8.33301 11.8927 7.77336 11.333 7.08301 11.333C6.39265 11.333 5.83301 11.8927 5.83301 12.583C5.83301 13.2734 6.39265 13.833 7.08301 13.833Z" fill="white"/>
<path d="M12.917 13.833C13.6073 13.833 14.167 13.2734 14.167 12.583C14.167 11.8927 13.6073 11.333 12.917 11.333C12.2266 11.333 11.667 11.8927 11.667 12.583C11.667 13.2734 12.2266 13.833 12.917 13.833Z" fill="white"/>
</g>
<defs>
<clipPath id="clip0_399_52901">
<rect width="20" height="20" fill="white" transform="translate(0 0.5)"/>
</clipPath>
</defs>
</svg>
