<svg width="16" height="16" viewBox="0 0 16 16" fill="none" xmlns="http://www.w3.org/2000/svg">
<path fill-rule="evenodd" clip-rule="evenodd" d="M2.59988 5.75011C2.59988 5.52011 2.68988 5.29011 2.85988 5.11011C3.02855 4.94218 3.25687 4.8479 3.49488 4.8479C3.73289 4.8479 3.96121 4.94218 4.12988 5.11011L7.99988 8.98011L11.8599 5.11011C12.0285 4.94218 12.2569 4.8479 12.4949 4.8479C12.7329 4.8479 12.9612 4.94218 13.1299 5.11011C13.2978 5.27878 13.3921 5.5071 13.3921 5.74511C13.3921 5.98312 13.2978 6.21144 13.1299 6.38011L8.62988 10.8801C8.46121 11.048 8.23289 11.1423 7.99488 11.1423C7.75687 11.1423 7.52855 11.048 7.35988 10.8801L2.85988 6.38011C2.68988 6.21011 2.59988 5.98011 2.59988 5.75011Z" fill="#97A2A4"/>
</svg>
