<svg width="20" height="21" viewBox="0 0 20 21" fill="none" xmlns="http://www.w3.org/2000/svg">
<g clip-path="url(#clip0_399_52975)">
<path d="M5.83301 12.167C7.21634 12.167 8.33301 11.0503 8.33301 9.66699C8.33301 8.28366 7.21634 7.16699 5.83301 7.16699C4.44967 7.16699 3.33301 8.28366 3.33301 9.66699C3.33301 11.0503 4.44967 12.167 5.83301 12.167ZM5.83301 8.83366C6.29134 8.83366 6.66634 9.20866 6.66634 9.66699C6.66634 10.1253 6.29134 10.5003 5.83301 10.5003C5.37467 10.5003 4.99967 10.1253 4.99967 9.66699C4.99967 9.20866 5.37467 8.83366 5.83301 8.83366ZM15.833 6.33366H9.16634V13.0003H2.49967V4.66699H0.833008V17.167H2.49967V14.667H17.4997V17.167H19.1663V9.66699C19.1663 7.82533 17.6747 6.33366 15.833 6.33366ZM17.4997 13.0003H10.833V8.00033H15.833C16.7497 8.00033 17.4997 8.75033 17.4997 9.66699V13.0003Z" fill="white"/>
</g>
<defs>
<clipPath id="clip0_399_52975">
<rect width="20" height="20" fill="white" transform="translate(0 0.5)"/>
</clipPath>
</defs>
</svg>
