<svg width="20" height="20" viewBox="0 0 20 20" fill="none" xmlns="http://www.w3.org/2000/svg">
<g clip-path="url(#clip0_430_54406)">
<path d="M15 10.8337H14.4333L12.7667 12.5004H14.3583L15.8333 14.1671H4.16667L5.65 12.5004H7.35833L5.69167 10.8337H5L2.5 13.3337V16.6671C2.5 17.5837 3.24167 18.3337 4.15833 18.3337H15.8333C16.75 18.3337 17.5 17.5921 17.5 16.6671V13.3337L15 10.8337ZM15.8333 16.6671H4.16667V15.8337H15.8333V16.6671ZM9.45 12.5171C9.775 12.8421 10.3 12.8421 10.625 12.5171L15.925 7.21707C16.25 6.89207 16.25 6.36707 15.925 6.04207L11.8 1.91707C11.4833 1.58373 10.9583 1.58373 10.6333 1.90873L5.325 7.21707C5 7.54207 5 8.06707 5.325 8.39207L9.45 12.5171ZM11.2167 3.6754L14.1667 6.6254L10.0417 10.7504L7.09167 7.8004L11.2167 3.6754Z" fill="white"/>
</g>
<defs>
<clipPath id="clip0_430_54406">
<rect width="20" height="20" fill="white"/>
</clipPath>
</defs>
</svg>
