<svg width="81" height="80" viewBox="0 0 81 80" fill="none" xmlns="http://www.w3.org/2000/svg">
<path d="M52.2501 35.2V27.6806C52.2501 26.8421 51.2802 26.3759 50.6254 26.8998L40.2501 35.2V27.6806C40.2501 26.8421 39.2802 26.3759 38.6254 26.8998L28.2501 35.2V22.8C28.2501 21.6954 27.3547 20.8 26.2501 20.8H18.2501C17.1456 20.8 16.2501 21.6954 16.2501 22.8V57.2C16.2501 58.3046 17.1456 59.2 18.2501 59.2H62.2501C63.3547 59.2 64.2501 58.3046 64.2501 57.2V27.6806C64.2501 26.8421 63.2802 26.3759 62.6254 26.8998L52.2501 35.2Z" fill="url(#paint0_linear_658_19621)"/>
<rect x="28.25" y="45.0526" width="5" height="7.07368" rx="1" fill="#D7E3F9"/>
<rect x="40.2502" y="45.0526" width="5" height="7.07368" rx="1" fill="#D7E3F9"/>
<rect x="52.2501" y="45.0526" width="5" height="7.07368" rx="1" fill="#D7E3F9"/>
<defs>
<linearGradient id="paint0_linear_658_19621" x1="40.2501" y1="20.8" x2="40.2501" y2="59.2" gradientUnits="userSpaceOnUse">
<stop stop-color="#005EE7"/>
<stop offset="1" stop-color="#87ABFC"/>
</linearGradient>
</defs>
</svg>
