<svg width="81" height="80" viewBox="0 0 81 80" fill="none" xmlns="http://www.w3.org/2000/svg">
<path d="M25.55 32C28.201 32 30.35 29.851 30.35 27.2C30.35 24.549 28.201 22.4 25.55 22.4C22.899 22.4 20.75 24.549 20.75 27.2C20.75 29.851 22.899 32 25.55 32Z" fill="url(#paint0_linear_658_19593)"/>
<path d="M34.3062 58.6608L30.5499 38.5794C30.0931 36.1669 27.995 34.4 25.5415 34.4C23.0881 34.4 20.99 36.1499 20.5331 38.5794L16.7938 58.6608C16.5061 60.1899 17.6736 61.6 19.2134 61.6C20.4147 61.6 21.4468 60.7166 21.6499 59.5273L22.5805 53.9208C22.8174 52.4767 24.0695 51.4064 25.5415 51.4064C27.0136 51.4064 28.2488 52.4767 28.5026 53.9208L29.4332 59.5273C29.6362 60.7166 30.6684 61.6 31.8697 61.6H31.8866C33.4264 61.6 34.5939 60.1899 34.3062 58.6608Z" fill="url(#paint1_linear_658_19593)"/>
<path d="M55.95 32C58.601 32 60.75 29.851 60.75 27.2C60.75 24.549 58.601 22.4 55.95 22.4C53.2991 22.4 51.15 24.549 51.15 27.2C51.15 29.851 53.2991 32 55.95 32Z" fill="url(#paint2_linear_658_19593)"/>
<path d="M40.75 47.2C42.5174 47.2 43.9501 45.7673 43.9501 44C43.9501 42.2327 42.5174 40.8 40.75 40.8C38.9827 40.8 37.55 42.2327 37.55 44C37.55 45.7673 38.9827 47.2 40.75 47.2Z" fill="#00C2CE"/>
<path d="M64.7188 59.594L60.8612 38.582C60.4122 36.168 58.3504 34.4 55.9394 34.4C53.5284 34.4 51.4666 36.151 51.0177 38.582L47.1767 59.594C46.9938 60.648 47.7753 61.6 48.8062 61.6H63.0893C64.1368 61.6 64.9183 60.631 64.7188 59.594Z" fill="url(#paint3_linear_658_19593)"/>
<path d="M40.7412 49.6C39.7177 49.6 38.8177 50.3029 38.6059 51.28L36.7883 59.5257C36.5589 60.5886 37.3883 61.6 38.5177 61.6H42.9823C44.1117 61.6 44.9411 60.5886 44.7117 59.5257L42.8941 51.28C42.6823 50.3029 41.7823 49.6 40.7588 49.6H40.7412Z" fill="#00C2CE"/>
<defs>
<linearGradient id="paint0_linear_658_19593" x1="25.55" y1="22.4" x2="25.55" y2="32" gradientUnits="userSpaceOnUse">
<stop stop-color="#005EE7"/>
<stop offset="1" stop-color="#98B5FF"/>
</linearGradient>
<linearGradient id="paint1_linear_658_19593" x1="25.55" y1="34.4" x2="25.55" y2="61.6" gradientUnits="userSpaceOnUse">
<stop stop-color="#005EE7"/>
<stop offset="1" stop-color="#98B5FF"/>
</linearGradient>
<linearGradient id="paint2_linear_658_19593" x1="55.95" y1="22.4" x2="55.95" y2="32" gradientUnits="userSpaceOnUse">
<stop stop-color="#FF9393"/>
<stop offset="1" stop-color="#FFC1C1"/>
</linearGradient>
<linearGradient id="paint3_linear_658_19593" x1="55.95" y1="34.4" x2="55.95" y2="61.6" gradientUnits="userSpaceOnUse">
<stop stop-color="#FF9393"/>
<stop offset="1" stop-color="#FFC1C1"/>
</linearGradient>
</defs>
</svg>
