<svg width="81" height="80" viewBox="0 0 81 80" fill="none" xmlns="http://www.w3.org/2000/svg">
<rect x="46.5264" y="16" width="21.5428" height="24.8571" rx="2" transform="rotate(34.6422 46.5264 16)" fill="url(#paint0_linear_658_19604)"/>
<rect x="50.1689" y="18.5166" width="2.61442" height="24.8571" transform="rotate(34.6422 50.1689 18.5166)" fill="#00C2CE"/>
<path d="M22.4534 25.9429C21.1349 25.9429 19.8704 26.4667 18.938 27.399C18.0057 28.3313 17.4819 29.5958 17.4819 30.9143V54.9429C17.4819 56.9206 18.2676 58.8174 19.6661 60.2159C21.0646 61.6143 22.9613 62.4 24.9391 62.4H53.1105C55.0882 62.4 56.985 61.6143 58.3835 60.2159C59.782 58.8174 60.5676 56.9206 60.5676 54.9429V40.0286C60.5676 38.0508 59.782 36.1541 58.3835 34.7556C56.985 33.3571 55.0882 32.5715 53.1105 32.5715H22.4534C22.0139 32.5715 21.5924 32.3969 21.2816 32.0861C20.9708 31.7753 20.7962 31.3538 20.7962 30.9143C20.7962 30.4748 20.9708 30.0533 21.2816 29.7425C21.5924 29.4318 22.0139 29.2572 22.4534 29.2572H37.3806L39.6656 25.9429H22.4534ZM47.3105 45.8286H52.2819C52.7214 45.8286 53.1429 46.0032 53.4537 46.314C53.7645 46.6247 53.9391 47.0462 53.9391 47.4857C53.9391 47.9252 53.7645 48.3467 53.4537 48.6575C53.1429 48.9683 52.7214 49.1429 52.2819 49.1429H47.3105C46.871 49.1429 46.4495 48.9683 46.1387 48.6575C45.8279 48.3467 45.6533 47.9252 45.6533 47.4857C45.6533 47.0462 45.8279 46.6247 46.1387 46.314C46.4495 46.0032 46.871 45.8286 47.3105 45.8286Z" fill="url(#paint1_linear_658_19604)"/>
<rect x="45.4758" y="45.4735" width="8.7" height="3.9653" rx="1.98265" fill="#D7E3F9"/>
<defs>
<linearGradient id="paint0_linear_658_19604" x1="52.8454" y1="35.427" x2="61.8866" y2="12.4368" gradientUnits="userSpaceOnUse">
<stop stop-color="#F3F7FF"/>
<stop offset="1" stop-color="#C6D7F5"/>
</linearGradient>
<linearGradient id="paint1_linear_658_19604" x1="39.0248" y1="25.9429" x2="39.0248" y2="62.4" gradientUnits="userSpaceOnUse">
<stop stop-color="#1F70EC"/>
<stop offset="1" stop-color="#91B1FE"/>
</linearGradient>
</defs>
</svg>
