<svg width="81" height="80" viewBox="0 0 81 80" fill="none" xmlns="http://www.w3.org/2000/svg">
<path d="M40.75 20L23.15 37.5136V61.6H58.35V37.5136L40.75 20Z" fill="url(#paint0_linear_658_19663)"/>
<path d="M59.886 60.8H21.614C20.6955 60.8 19.95 61.5163 19.95 62.4C19.95 63.2838 20.6955 64 21.614 64H59.886C60.8045 64 61.55 63.2838 61.55 62.4C61.55 61.5163 60.8045 60.8 59.886 60.8Z" fill="url(#paint1_linear_658_19663)"/>
<path d="M40.1064 38.4C39.7591 38.4007 39.4194 38.304 39.1305 38.122C38.8415 37.94 38.6163 37.6811 38.4834 37.378C38.3505 37.0749 38.3159 36.7414 38.384 36.4197C38.4522 36.098 38.62 35.8027 38.8661 35.5713L50.2693 24.8L52.75 27.1432L41.3468 37.9145C41.1843 38.0689 40.991 38.1913 40.7781 38.2746C40.5652 38.358 40.3369 38.4006 40.1064 38.4Z" fill="#0661E8"/>
<path d="M59.8152 38.4C59.3723 38.4 58.9277 38.2322 58.5901 37.8949L40.749 20.1588L22.9079 37.8949C22.747 38.0548 22.5559 38.1817 22.3457 38.2682C22.1355 38.3548 21.9102 38.3994 21.6827 38.3994C21.4551 38.3994 21.2298 38.3548 21.0196 38.2682C20.8094 38.1817 20.6184 38.0548 20.4575 37.8949C20.2966 37.7349 20.169 37.545 20.0819 37.3361C19.9948 37.1271 19.95 36.9031 19.95 36.6769C19.95 36.4507 19.9948 36.2267 20.0819 36.0177C20.169 35.8088 20.2966 35.6189 20.4575 35.4589L39.5238 16.5049C39.6846 16.3449 39.8756 16.2179 40.0858 16.1312C40.296 16.0446 40.5214 16 40.749 16C40.9765 16 41.2019 16.0446 41.4121 16.1312C41.6223 16.2179 41.8133 16.3449 41.9741 16.5049L61.0404 35.4589C61.2835 35.6996 61.4491 36.0066 61.5164 36.341C61.5837 36.6754 61.5495 37.0221 61.4182 37.3372C61.287 37.6523 61.0646 37.9215 60.7792 38.1107C60.4938 38.2999 60.1583 38.4006 59.8152 38.4Z" fill="#0661E8"/>
<rect x="27.95" y="49.0083" width="4.8" height="4.8" rx="1" fill="url(#paint2_linear_658_19663)"/>
<rect x="27.95" y="41.6" width="4.8" height="4.8" rx="1" fill="url(#paint3_linear_658_19663)"/>
<rect x="34.35" y="49.0083" width="4.8" height="4.8" rx="1" fill="url(#paint4_linear_658_19663)"/>
<rect x="34.35" y="41.6" width="4.8" height="4.8" rx="1" fill="url(#paint5_linear_658_19663)"/>
<rect x="47.15" y="41.6" width="4.8" height="4.8" rx="1" fill="url(#paint6_linear_658_19663)"/>
<path d="M47.15 55.2C47.15 53.8745 48.2245 52.8 49.55 52.8C50.8755 52.8 51.95 53.8745 51.95 55.2V60.8H47.15V55.2Z" fill="url(#paint7_linear_658_19663)"/>
<defs>
<linearGradient id="paint0_linear_658_19663" x1="40.75" y1="20" x2="40.75" y2="61.6" gradientUnits="userSpaceOnUse">
<stop stop-color="#CBDAF6"/>
<stop offset="1" stop-color="#F2F6FE"/>
</linearGradient>
<linearGradient id="paint1_linear_658_19663" x1="40.75" y1="60.8" x2="40.75" y2="64" gradientUnits="userSpaceOnUse">
<stop stop-color="#3CD3E4"/>
<stop offset="1" stop-color="#48D7E9"/>
</linearGradient>
<linearGradient id="paint2_linear_658_19663" x1="30.35" y1="49.0083" x2="30.35" y2="53.8083" gradientUnits="userSpaceOnUse">
<stop stop-color="#0661E8"/>
<stop offset="1" stop-color="#80A7FB"/>
</linearGradient>
<linearGradient id="paint3_linear_658_19663" x1="30.35" y1="41.6" x2="30.35" y2="46.4" gradientUnits="userSpaceOnUse">
<stop stop-color="#0661E8"/>
<stop offset="1" stop-color="#80A7FB"/>
</linearGradient>
<linearGradient id="paint4_linear_658_19663" x1="36.75" y1="49.0083" x2="36.75" y2="53.8083" gradientUnits="userSpaceOnUse">
<stop stop-color="#0661E8"/>
<stop offset="1" stop-color="#80A7FB"/>
</linearGradient>
<linearGradient id="paint5_linear_658_19663" x1="36.75" y1="41.6" x2="36.75" y2="46.4" gradientUnits="userSpaceOnUse">
<stop stop-color="#0661E8"/>
<stop offset="1" stop-color="#80A7FB"/>
</linearGradient>
<linearGradient id="paint6_linear_658_19663" x1="49.55" y1="41.6" x2="49.55" y2="46.4" gradientUnits="userSpaceOnUse">
<stop stop-color="#0661E8"/>
<stop offset="1" stop-color="#80A7FB"/>
</linearGradient>
<linearGradient id="paint7_linear_658_19663" x1="49.55" y1="52.8" x2="49.55" y2="60.8" gradientUnits="userSpaceOnUse">
<stop stop-color="#0661E8"/>
<stop offset="1" stop-color="#80A7FB"/>
</linearGradient>
</defs>
</svg>
