<svg width="28" height="28" viewBox="0 0 28 28" fill="none" xmlns="http://www.w3.org/2000/svg">
<rect width="28" height="28" rx="14" fill="#6C94FE"/>
<g clip-path="url(#clip0_96_17260)">
<path d="M7.33317 8.99984H5.6665V20.6665C5.6665 21.5832 6.4165 22.3332 7.33317 22.3332H18.9998V20.6665H7.33317V8.99984ZM20.6665 5.6665H10.6665C9.74984 5.6665 8.99984 6.4165 8.99984 7.33317V17.3332C8.99984 18.2498 9.74984 18.9998 10.6665 18.9998H20.6665C21.5832 18.9998 22.3332 18.2498 22.3332 17.3332V7.33317C22.3332 6.4165 21.5832 5.6665 20.6665 5.6665ZM20.6665 17.3332H10.6665V7.33317H20.6665V17.3332ZM12.3332 11.4998H18.9998V13.1665H12.3332V11.4998ZM12.3332 13.9998H15.6665V15.6665H12.3332V13.9998ZM12.3332 8.99984H18.9998V10.6665H12.3332V8.99984Z" fill="white"/>
</g>
<defs>
<clipPath id="clip0_96_17260">
<rect width="20" height="20" fill="white" transform="translate(4 4)"/>
</clipPath>
</defs>
</svg>
