<svg width="81" height="80" viewBox="0 0 81 80" fill="none" xmlns="http://www.w3.org/2000/svg">
<path d="M51.1526 38.4H56.2422V50.5022H51.1506L51.1526 38.4ZM47.0793 50.5022V38.4H41.9877V50.5022H47.0793ZM37.9144 50.5043V38.402H32.8228V50.5043H37.9144ZM28.7516 50.5043V38.402H23.66V50.5043H28.7516ZM24.1691 52.5213C22.4136 52.5213 20.7301 53.212 19.4887 54.4413C18.2474 55.6707 17.55 57.3381 17.55 59.0767V60.0852C17.5506 60.4864 17.7116 60.8711 17.9979 61.155C18.2842 61.4389 18.6724 61.5989 19.0775 61.6H60.8226C61.2277 61.6 61.6162 61.4406 61.9027 61.1569C62.1891 60.8732 62.35 60.4884 62.35 60.0872V59.0787C62.35 57.3401 61.6527 55.6727 60.4114 54.4433C59.17 53.214 57.4865 52.5233 55.731 52.5233H24.1712L24.1691 52.5213Z" fill="url(#paint0_linear_658_19613)"/>
<path d="M39.9496 16C39.2973 16 38.6622 16.2051 38.1371 16.5853H38.1392L18.7967 30.5987C16.5098 32.2591 17.5789 35.7559 20.3037 36H59.5955C62.3203 35.7559 63.3915 32.2591 61.1025 30.5987L41.7621 16.5853C41.237 16.2051 40.6019 16 39.9496 16Z" fill="url(#paint1_linear_658_19613)"/>
<circle cx="56.75" cy="56" r="8" fill="#00C2CE"/>
<path fill-rule="evenodd" clip-rule="evenodd" d="M56.75 50.8143C57.247 50.8143 57.65 51.1809 57.65 51.6331V51.6446C58.9566 51.9439 60.0499 52.8808 60.0499 54.1801C60.0499 54.6323 59.647 54.9989 59.1499 54.9989C58.6529 54.9989 58.2499 54.6323 58.2499 54.1801C58.2499 53.7615 57.7397 53.1801 56.75 53.1801C55.7602 53.1801 55.25 53.7615 55.25 54.1801C55.25 54.6001 55.7606 55.1812 56.75 55.1812C58.413 55.1812 60.0499 56.2303 60.0499 57.8199C60.0499 59.1192 58.9566 60.0561 57.65 60.3554V60.3669C57.65 60.8191 57.247 61.1857 56.75 61.1857C56.2529 61.1857 55.85 60.8191 55.85 60.3669V60.3554C54.5433 60.0561 53.45 59.1192 53.45 57.8199C53.45 57.3677 53.8529 57.0011 54.35 57.0011C54.847 57.0011 55.25 57.3677 55.25 57.8199C55.25 58.2385 55.7602 58.8199 56.75 58.8199C57.7397 58.8199 58.2499 58.2385 58.2499 57.8199C58.2499 57.4007 57.7389 56.8188 56.75 56.8188C55.0873 56.8188 53.45 55.7711 53.45 54.1801C53.45 52.8808 54.5433 51.9439 55.85 51.6446V51.6331C55.85 51.1809 56.2529 50.8143 56.75 50.8143Z" fill="white"/>
<defs>
<linearGradient id="paint0_linear_658_19613" x1="39.9519" y1="16.2153" x2="39.9519" y2="61.5998" gradientUnits="userSpaceOnUse">
<stop stop-color="#F3F7FF"/>
<stop offset="1" stop-color="#CBD8EF"/>
</linearGradient>
<linearGradient id="paint1_linear_658_19613" x1="39.95" y1="16" x2="39.95" y2="61.0121" gradientUnits="userSpaceOnUse">
<stop stop-color="#769AE0"/>
<stop offset="1" stop-color="#F3F7FF"/>
</linearGradient>
</defs>
</svg>
