<svg width="12" height="12" viewBox="0 0 12 12" fill="none" xmlns="http://www.w3.org/2000/svg">
<path fill-rule="evenodd" clip-rule="evenodd" d="M6.35339 2.14639C6.44713 2.24016 6.49979 2.36731 6.49979 2.49989C6.49979 2.63248 6.44713 2.75963 6.35339 2.85339L3.20689 5.99989L6.35339 9.14639C6.44447 9.24069 6.49487 9.367 6.49373 9.49809C6.49259 9.62919 6.44001 9.7546 6.3473 9.8473C6.2546 9.94001 6.12919 9.99259 5.99809 9.99373C5.867 9.99487 5.74069 9.94447 5.64639 9.85339L2.14639 6.35339C2.05266 6.25963 2 6.13248 2 5.99989C2 5.86731 2.05266 5.74016 2.14639 5.64639L5.64639 2.14639C5.74016 2.05266 5.86731 2 5.99989 2C6.13248 2 6.25963 2.05266 6.35339 2.14639V2.14639Z" fill="#666666"/>
<path fill-rule="evenodd" clip-rule="evenodd" d="M9.35339 2.14639C9.44713 2.24016 9.49979 2.36731 9.49979 2.49989C9.49979 2.63248 9.44713 2.75963 9.35339 2.85339L6.20689 5.99989L9.35339 9.14639C9.44447 9.24069 9.49487 9.367 9.49373 9.49809C9.49259 9.62919 9.44001 9.7546 9.3473 9.8473C9.2546 9.94001 9.12919 9.99259 8.99809 9.99373C8.867 9.99487 8.74069 9.94447 8.64639 9.85339L5.14639 6.35339C5.05266 6.25963 5 6.13248 5 5.99989C5 5.86731 5.05266 5.74016 5.14639 5.64639L8.64639 2.14639C8.74016 2.05266 8.86731 2 8.99989 2C9.13248 2 9.25963 2.05266 9.35339 2.14639V2.14639Z" fill="#666666"/>
</svg>
