<svg width="12" height="12" viewBox="0 0 12 12" fill="none" xmlns="http://www.w3.org/2000/svg">
<path fill-rule="evenodd" clip-rule="evenodd" d="M8.35339 2.14639C8.44713 2.24016 8.49979 2.36731 8.49979 2.49989C8.49979 2.63248 8.44713 2.75963 8.35339 2.85339L5.20689 5.99989L8.35339 9.14639C8.44447 9.24069 8.49487 9.367 8.49373 9.49809C8.49259 9.62919 8.44001 9.7546 8.3473 9.8473C8.2546 9.94001 8.12919 9.99259 7.99809 9.99373C7.867 9.99487 7.74069 9.94447 7.64639 9.85339L4.14639 6.35339C4.05266 6.25963 4 6.13248 4 5.99989C4 5.86731 4.05266 5.74016 4.14639 5.64639L7.64639 2.14639C7.74016 2.05266 7.86731 2 7.99989 2C8.13248 2 8.25963 2.05266 8.35339 2.14639V2.14639Z" fill="#666666"/>
</svg>
