<svg width="81" height="80" viewBox="0 0 81 80" fill="none" xmlns="http://www.w3.org/2000/svg">
<ellipse cx="34.2384" cy="25.1778" rx="7.57776" ry="7.57776" fill="#005EE7"/>
<path fill-rule="evenodd" clip-rule="evenodd" d="M51.9876 20.126C53.2705 20.126 54.3105 21.166 54.3105 22.4489L55.4693 28.842C57.7922 30.4616 59.652 32.6586 60.866 35.2133H60.7605C61.9917 35.2133 63.1725 34.9172 64.0431 35.7878C64.7997 36.5445 64.5494 37.8392 64.5494 39.0704V44.1222C64.5494 45.3534 64.0431 47.4048 63.5367 47.9111C62.6661 48.7817 61.9917 49.14 60.7605 49.14H60.8647C60.0911 50.7692 59.0508 52.259 57.7881 53.5489V57.2639C57.7881 58.8029 57.1767 60.2789 56.0885 61.3671C55.0002 62.4553 53.5243 63.0667 51.9853 63.0667C50.4463 63.0667 48.9703 62.4553 47.8821 61.3671C47.0715 60.5565 46.5255 59.5308 46.2996 58.4241C46.2606 58.4243 46.2215 58.4245 46.1825 58.4245M46.1825 58.4245H36.8988C36.8598 58.4245 36.8199 58.4243 36.7809 58.4241C36.555 59.5308 36.009 60.5565 35.1984 61.3671C34.1102 62.4553 32.6342 63.0667 31.0952 63.0667C29.5562 63.0667 28.0803 62.4553 26.992 61.3671C25.9038 60.2789 25.2924 58.8029 25.2924 57.2639V53.55C23.2483 51.4646 21.799 48.8613 21.1068 46.0108C20.3302 42.8126 20.5431 39.454 21.7173 36.3795C22.8916 33.305 24.9718 30.6596 27.6827 28.7934C30.3935 26.9273 33.607 25.9284 36.898 25.9288H41.998L50.699 20.5161C51.08 20.2621 51.5282 20.126 51.9876 20.126" fill="url(#paint0_linear_658_19630)"/>
<rect x="49.3939" y="35.2815" width="5.05184" height="5.05184" rx="2.52592" fill="white"/>
<path fill-rule="evenodd" clip-rule="evenodd" d="M17.8197 36.7623C18.397 36.7623 18.865 37.2302 18.865 37.8075V40.7689C18.865 41.3462 19.3329 41.8141 19.9102 41.8141H21.6086C22.1859 41.8141 22.6538 42.2821 22.6538 42.8593C22.6538 43.4366 22.1859 43.9045 21.6086 43.9045H19.9102C18.1784 43.9045 16.7745 42.5007 16.7745 40.7689V37.8075C16.7745 37.2302 17.2425 36.7623 17.8197 36.7623Z" fill="#01C2CE"/>
<defs>
<linearGradient id="paint0_linear_658_19630" x1="20.9118" y1="41.9883" x2="64.8106" y2="41.9883" gradientUnits="userSpaceOnUse">
<stop stop-color="#00C2CE"/>
<stop offset="1" stop-color="#50D9EC"/>
</linearGradient>
</defs>
</svg>
