<svg width="40" height="40" viewBox="0 0 40 40" fill="none" xmlns="http://www.w3.org/2000/svg">
<g filter="url(#filter0_d_563_20352)">
<path d="M20 18.5C20.8937 18.5 21.6591 18.1766 22.2961 17.5298C22.9331 16.883 23.2511 16.1064 23.25 15.2C23.25 14.2925 22.9315 13.5154 22.2945 12.8686C21.6575 12.2217 20.8927 11.8989 20 11.9C19.1063 11.9 18.3409 12.2234 17.7039 12.8702C17.0669 13.517 16.7489 14.2936 16.75 15.2C16.75 16.1075 17.0685 16.8847 17.7055 17.5315C18.3425 18.1783 19.1073 18.5011 20 18.5ZM20 35C15.6396 31.2325 12.3831 27.7334 10.2305 24.5027C8.07792 21.272 7.00108 18.2811 7 15.53C7 11.405 8.30704 8.11875 10.9211 5.67125C13.5352 3.22375 16.5615 2 20 2C23.4396 2 26.4664 3.22375 29.0805 5.67125C31.6946 8.11875 33.0011 11.405 33 15.53C33 18.28 31.9232 21.2709 29.7695 24.5027C27.6158 27.7345 24.3593 31.2336 20 35Z" fill="white"/>
</g>
<ellipse cx="19.9998" cy="36.6667" rx="13.3333" ry="1.66667" fill="#2B77F1" fill-opacity="0.4"/>
<path d="M20.0002 18.334C20.8022 18.334 21.4891 18.04 22.0608 17.452C22.6325 16.864 22.9178 16.158 22.9168 15.334C22.9168 14.509 22.631 13.8025 22.0593 13.2145C21.4877 12.6265 20.8013 12.333 20.0002 12.334C19.1981 12.334 18.5112 12.628 17.9395 13.216C17.3679 13.804 17.0825 14.51 17.0835 15.334C17.0835 16.159 17.3693 16.8655 17.941 17.4535C18.5127 18.0415 19.1991 18.335 20.0002 18.334ZM20.0002 33.334C16.087 29.909 13.1645 26.728 11.2327 23.791C9.30086 20.854 8.33447 18.135 8.3335 15.634C8.3335 11.884 9.50648 8.89648 11.8525 6.67148C14.1984 4.44648 16.9143 3.33398 20.0002 3.33398C23.087 3.33398 25.8034 4.44648 28.1493 6.67148C30.4953 8.89648 31.6678 11.884 31.6668 15.634C31.6668 18.134 30.7004 20.853 28.7677 23.791C26.8349 26.729 23.9124 29.91 20.0002 33.334Z" fill="#002CAB"/>
<circle cx="20" cy="15" r="5" fill="#002CAB"/>
<path d="M20.1777 22.3008C17.4619 22.3008 15.5195 20.8242 15.4668 18.6797H17.7695C17.8311 19.6992 18.8506 20.376 20.1777 20.3672C21.5752 20.376 22.5859 19.6025 22.5859 18.4688C22.5859 17.3262 21.6016 16.5088 19.9492 16.5H18.8066V14.7422H19.9492C21.3027 14.7422 22.2432 13.9863 22.2344 12.8789C22.2432 11.8066 21.4346 11.0859 20.1953 11.0859C19 11.0859 17.9717 11.7539 17.9277 12.8262H15.7305C15.7832 10.6904 17.7256 9.22266 20.2129 9.22266C22.7969 9.22266 24.4668 10.8047 24.4492 12.7559C24.4668 14.1797 23.5176 15.208 22.1289 15.498V15.6035C23.9219 15.8408 24.9414 16.9922 24.9238 18.5918C24.9414 20.7451 22.9287 22.3008 20.1777 22.3008Z" fill="white"/>
<defs>
<filter id="filter0_d_563_20352" x="4" y="0" width="32" height="39" filterUnits="userSpaceOnUse" color-interpolation-filters="sRGB">
<feFlood flood-opacity="0" result="BackgroundImageFix"/>
<feColorMatrix in="SourceAlpha" type="matrix" values="0 0 0 0 0 0 0 0 0 0 0 0 0 0 0 0 0 0 127 0" result="hardAlpha"/>
<feOffset dy="1"/>
<feGaussianBlur stdDeviation="1.5"/>
<feComposite in2="hardAlpha" operator="out"/>
<feColorMatrix type="matrix" values="0 0 0 0 0 0 0 0 0 0 0 0 0 0 0 0 0 0 0.25 0"/>
<feBlend mode="normal" in2="BackgroundImageFix" result="effect1_dropShadow_563_20352"/>
<feBlend mode="normal" in="SourceGraphic" in2="effect1_dropShadow_563_20352" result="shape"/>
</filter>
</defs>
</svg>
