<svg width="81" height="80" viewBox="0 0 81 80" fill="none" xmlns="http://www.w3.org/2000/svg">
<rect x="22.65" y="18.4" width="35.2" height="45.6" rx="2" fill="url(#paint0_linear_658_19581)"/>
<rect x="28.1886" y="16" width="2.76923" height="6.46154" rx="1.38461" fill="#005EE7"/>
<rect x="35.5729" y="16" width="2.76923" height="6.46154" rx="1.38461" fill="#005EE7"/>
<rect x="42.9578" y="16" width="2.76923" height="6.46154" rx="1.38461" fill="#005EE7"/>
<rect x="50.3422" y="16" width="2.76923" height="6.46154" rx="1.38461" fill="#005EE7"/>
<path d="M39.0254 45.6677L44.8823 39.8107L43.7192 38.6477L39.0254 43.3415L36.6577 40.9738L35.4946 42.1369L39.0254 45.6677ZM40.1884 50.1538C39.0392 50.1538 37.9592 49.9356 36.9484 49.4992C35.9377 49.0627 35.0584 48.4709 34.3107 47.7238C33.563 46.9761 32.9713 46.0969 32.5354 45.0861C32.0995 44.0753 31.8813 42.9953 31.8807 41.8461C31.8807 40.6969 32.099 39.6169 32.5354 38.6061C32.9718 37.5953 33.5636 36.7161 34.3107 35.9684C35.0584 35.2207 35.9377 34.6289 36.9484 34.1931C37.9592 33.7572 39.0392 33.539 40.1884 33.5384C41.3377 33.5384 42.4177 33.7566 43.4284 34.1931C44.4392 34.6295 45.3184 35.2213 46.0661 35.9684C46.8138 36.7161 47.4059 37.5953 47.8423 38.6061C48.2787 39.6169 48.4967 40.6969 48.4961 41.8461C48.4961 42.9953 48.2779 44.0753 47.8415 45.0861C47.405 46.0969 46.8133 46.9761 46.0661 47.7238C45.3184 48.4715 44.4392 49.0636 43.4284 49.5C42.4177 49.9364 41.3377 50.1544 40.1884 50.1538Z" fill="#00C2CE"/>
<defs>
<linearGradient id="paint0_linear_658_19581" x1="40.25" y1="18.4" x2="40.25" y2="107.7" gradientUnits="userSpaceOnUse">
<stop stop-color="#F3F7FF"/>
<stop offset="1" stop-color="#C6D7F5"/>
</linearGradient>
</defs>
</svg>
