<svg width="16" height="16" viewBox="0 0 16 16" fill="none" xmlns="http://www.w3.org/2000/svg">
<g clip-path="url(#clip0_56_50308)">
<path fill-rule="evenodd" clip-rule="evenodd" d="M12.0001 8.83141H10.6594L10.1794 10.5774C10.1375 10.7335 10.045 10.8714 9.91645 10.9693C9.78785 11.0673 9.6304 11.1198 9.46875 11.1187H9.46808C9.13208 11.1187 8.84675 10.9007 8.75808 10.5774L8.00008 7.82541L7.24275 10.5774C7.20086 10.7335 7.10838 10.8714 6.97978 10.9693C6.85119 11.0673 6.69373 11.1198 6.53208 11.1187C6.19608 11.1187 5.91075 10.9014 5.82141 10.5781L5.34075 8.83141H4.00008C3.84095 8.83141 3.68834 8.7682 3.57582 8.65568C3.4633 8.54316 3.40008 8.39054 3.40008 8.23141C3.40008 8.07228 3.4633 7.91967 3.57582 7.80715C3.68834 7.69463 3.84095 7.63141 4.00008 7.63141H5.01075L4.59008 6.10341C4.56681 6.02674 4.55914 5.94619 4.56751 5.86651C4.57588 5.78682 4.60012 5.70962 4.63881 5.63946C4.6775 5.5693 4.72985 5.50759 4.79277 5.45799C4.8557 5.40839 4.92792 5.37189 5.00517 5.35065C5.08243 5.32941 5.16316 5.32386 5.24259 5.33432C5.32203 5.34479 5.39856 5.37106 5.46768 5.41158C5.5368 5.4521 5.59711 5.50606 5.64504 5.57026C5.69296 5.63447 5.72755 5.70763 5.74675 5.78541L6.53208 8.63741L7.28941 5.88608C7.33107 5.72976 7.42347 5.59171 7.55211 5.49361C7.68074 5.39551 7.83831 5.34291 8.00008 5.34408C8.33608 5.34408 8.62208 5.56208 8.71075 5.88608L9.46875 8.63741L10.2534 5.78541C10.2743 5.70942 10.3099 5.63829 10.3583 5.57607C10.4067 5.51385 10.4668 5.46178 10.5353 5.42281C10.6038 5.38384 10.6793 5.35874 10.7575 5.34895C10.8357 5.33916 10.9151 5.34487 10.9911 5.36575C11.0671 5.38663 11.1382 5.42227 11.2004 5.47064C11.2626 5.51901 11.3147 5.57917 11.3537 5.64767C11.3927 5.71616 11.4178 5.79167 11.4275 5.86987C11.4373 5.94806 11.4316 6.02742 11.4107 6.10341L10.9894 7.63141H12.0001C12.1592 7.63141 12.3118 7.69463 12.4243 7.80715C12.5369 7.91967 12.6001 8.07228 12.6001 8.23141C12.6001 8.39054 12.5369 8.54316 12.4243 8.65568C12.3118 8.7682 12.1592 8.83141 12.0001 8.83141M8.00008 0.666748C3.95008 0.666748 0.666748 3.95008 0.666748 8.00008C0.666748 12.0507 3.95008 15.3334 8.00008 15.3334C12.0501 15.3334 15.3334 12.0507 15.3334 8.00008C15.3334 3.95008 12.0501 0.666748 8.00008 0.666748Z" fill="#BFC3C4"/>
</g>
<defs>
<clipPath id="clip0_56_50308">
<rect width="16" height="16" fill="white"/>
</clipPath>
</defs>
</svg>
