<svg width="24" height="24" viewBox="0 0 24 24" fill="none" xmlns="http://www.w3.org/2000/svg">
<ellipse cx="12" cy="18" rx="8" ry="3.5" fill="#181C1D"/>
<path d="M12 16.5L11.3415 17.2526C11.7185 17.5825 12.2815 17.5825 12.6585 17.2526L12 16.5ZM12 16.5C12.6585 17.2526 12.6587 17.2524 12.6589 17.2522L12.6595 17.2517L12.6609 17.2505L12.6651 17.2468L12.6788 17.2346C12.6903 17.2244 12.7064 17.21 12.7268 17.1916C12.7677 17.1546 12.8258 17.1014 12.8988 17.033C13.0447 16.8962 13.2502 16.6983 13.4956 16.4478C13.9853 15.948 14.6393 15.2329 15.2954 14.3717C16.5768 12.6899 18 10.2793 18 7.75C18 6.10771 17.3791 4.52346 16.2597 3.34803C15.1386 2.17095 13.6075 1.5 12 1.5C10.3925 1.5 8.86136 2.17095 7.74033 3.34803C6.62087 4.52346 6 6.10771 6 7.75C6 10.2793 7.42321 12.6899 8.70457 14.3717C9.36074 15.2329 10.0147 15.948 10.5044 16.4478C10.7498 16.6983 10.9553 16.8962 11.1012 17.033C11.1742 17.1014 11.2323 17.1546 11.2732 17.1916C11.2936 17.21 11.3097 17.2244 11.3212 17.2346L11.3349 17.2468L11.3391 17.2505L11.3405 17.2517L11.3411 17.2522C11.3413 17.2524 11.3415 17.2526 12 16.5ZM12 8.5C11.8394 8.5 11.6748 8.43345 11.5456 8.29778C11.4148 8.16046 11.3333 7.96423 11.3333 7.75C11.3333 7.53577 11.4148 7.33954 11.5456 7.20222C11.6748 7.06655 11.8394 7 12 7C12.1606 7 12.3252 7.06655 12.4544 7.20222C12.5852 7.33955 12.6667 7.53577 12.6667 7.75C12.6667 7.96423 12.5852 8.16045 12.4544 8.29778C12.3252 8.43345 12.1606 8.5 12 8.5Z" fill="#181C1D" stroke="white" stroke-width="2" stroke-linejoin="round"/>
</svg>
