<svg width="16" height="16" viewBox="0 0 16 16" fill="none" xmlns="http://www.w3.org/2000/svg">
<rect x="1.33325" y="3.33325" width="13.3333" height="2.66667" fill="#E8F9FA"/>
<path d="M2.58558 13.9232C2.28567 13.6232 2.11719 13.2163 2.11719 12.7921V5.66675H13.8825V12.7914C13.8825 13.2156 13.714 13.6225 13.4141 13.9225C13.1142 14.2226 12.7074 14.3912 12.2832 14.3914H9.33319V11.8894C9.33319 11.7126 9.26295 11.543 9.13793 11.418C9.0129 11.293 8.84333 11.2227 8.66652 11.2227H7.33319C7.15638 11.2227 6.98681 11.293 6.86178 11.418C6.73676 11.543 6.66652 11.7126 6.66652 11.8894V14.3921H3.71652C3.29229 14.3919 2.88549 14.2233 2.58558 13.9232Z" fill="#17C7D0"/>
<path fill-rule="evenodd" clip-rule="evenodd" d="M13.9999 1.66675H1.99992C1.82311 1.66675 1.65354 1.73699 1.52851 1.86201C1.40349 1.98703 1.33325 2.1566 1.33325 2.33341V3.44475H14.6666V2.33341C14.6666 2.1566 14.5963 1.98703 14.4713 1.86201C14.3463 1.73699 14.1767 1.66675 13.9999 1.66675ZM1.33325 5.66675C1.33325 5.84356 1.40349 6.01313 1.52851 6.13815C1.65354 6.26318 1.82311 6.33341 1.99992 6.33341H13.9999C14.1767 6.33341 14.3463 6.26318 14.4713 6.13815C14.5963 6.01313 14.6666 5.84356 14.6666 5.66675V4.55541H1.33325V5.66675Z" fill="#04A6B5"/>
</svg>
