<svg width="20" height="21" viewBox="0 0 20 21" fill="none" xmlns="http://www.w3.org/2000/svg">
<g clip-path="url(#clip0_399_52879)">
<path d="M3.33366 5.50033H1.66699V17.167C1.66699 18.0837 2.41699 18.8337 3.33366 18.8337H15.0003V17.167H3.33366V5.50033ZM16.667 2.16699H6.66699C5.75033 2.16699 5.00033 2.91699 5.00033 3.83366V13.8337C5.00033 14.7503 5.75033 15.5003 6.66699 15.5003H16.667C17.5837 15.5003 18.3337 14.7503 18.3337 13.8337V3.83366C18.3337 2.91699 17.5837 2.16699 16.667 2.16699ZM16.667 13.8337H6.66699V3.83366H16.667V13.8337ZM8.33366 8.00033H15.0003V9.66699H8.33366V8.00033ZM8.33366 10.5003H11.667V12.167H8.33366V10.5003ZM8.33366 5.50033H15.0003V7.16699H8.33366V5.50033Z" fill="white"/>
</g>
<defs>
<clipPath id="clip0_399_52879">
<rect width="20" height="20" fill="white" transform="translate(0 0.5)"/>
</clipPath>
</defs>
</svg>
