<svg width="20" height="21" viewBox="0 0 20 21" fill="none" xmlns="http://www.w3.org/2000/svg">
<g clip-path="url(#clip0_399_52930)">
<path d="M11.6663 4.66667V16.3333H8.33301V4.66667H11.6663ZM16.6663 3H14.9997V4.66667H13.333V3H6.66634V4.66667H4.99967V3H3.33301V18H4.99967V16.3333H6.66634V18H13.333V16.3333H14.9997V18H16.6663V3ZM13.333 8V6.33333H14.9997V8H13.333ZM4.99967 8V6.33333H6.66634V8H4.99967ZM13.333 11.3333V9.66667H14.9997V11.3333H13.333ZM4.99967 11.3333V9.66667H6.66634V11.3333H4.99967ZM13.333 14.6667V13H14.9997V14.6667H13.333ZM4.99967 14.6667V13H6.66634V14.6667H4.99967Z" fill="white"/>
</g>
<defs>
<clipPath id="clip0_399_52930">
<rect width="20" height="20" fill="white" transform="translate(0 0.5)"/>
</clipPath>
</defs>
</svg>
