<svg width="20" height="21" viewBox="0 0 20 21" fill="none" xmlns="http://www.w3.org/2000/svg">
<g clip-path="url(#clip0_399_52941)">
<path d="M16.6663 7.16634H14.1663V3.83301H2.49967C1.58301 3.83301 0.833008 4.58301 0.833008 5.49967V14.6663H2.49967C2.49967 16.0497 3.61634 17.1663 4.99967 17.1663C6.38301 17.1663 7.49967 16.0497 7.49967 14.6663H12.4997C12.4997 16.0497 13.6163 17.1663 14.9997 17.1663C16.383 17.1663 17.4997 16.0497 17.4997 14.6663H19.1663V10.4997L16.6663 7.16634ZM16.2497 8.41634L17.883 10.4997H14.1663V8.41634H16.2497ZM4.99967 15.4997C4.54134 15.4997 4.16634 15.1247 4.16634 14.6663C4.16634 14.208 4.54134 13.833 4.99967 13.833C5.45801 13.833 5.83301 14.208 5.83301 14.6663C5.83301 15.1247 5.45801 15.4997 4.99967 15.4997ZM6.84967 12.9997C6.39134 12.4913 5.74134 12.1663 4.99967 12.1663C4.25801 12.1663 3.60801 12.4913 3.14967 12.9997H2.49967V5.49967H12.4997V12.9997H6.84967ZM14.9997 15.4997C14.5413 15.4997 14.1663 15.1247 14.1663 14.6663C14.1663 14.208 14.5413 13.833 14.9997 13.833C15.458 13.833 15.833 14.208 15.833 14.6663C15.833 15.1247 15.458 15.4997 14.9997 15.4997Z" fill="white"/>
</g>
<defs>
<clipPath id="clip0_399_52941">
<rect width="20" height="20" fill="white" transform="translate(0 0.5)"/>
</clipPath>
</defs>
</svg>
