<svg width="178" height="24" viewBox="0 0 178 24" fill="none" xmlns="http://www.w3.org/2000/svg">
<g clip-path="url(#clip0_33_411)">
<path d="M55.449 1.00488H59.0827V3.03624L53.2132 9.0536L59.3307 16.0282V18.034H55.5467L49.2114 10.4639V18.034H44.8149V1.00488H49.2114V7.73833L55.449 1.00488Z" fill="#00204F"/>
<path d="M63.0883 0C64.4148 0 65.3467 0.884153 65.3467 2.12635C65.3467 3.36855 64.4148 4.22713 63.0883 4.22713C61.7619 4.22713 60.8525 3.34298 60.8525 2.12635C60.8525 0.909728 61.7844 0 63.0883 0ZM61.1494 5.77988H65.0536V18.0301H61.1494V5.77988Z" fill="#00204F"/>
<path d="M80.3548 10.3392V18.0299H76.4506V11.249C76.4506 9.7218 75.5187 8.64766 74.1434 8.64766C72.7681 8.64766 71.8099 9.69988 71.8099 11.1796V18.0336H67.9058V5.77965H71.6897V7.45296C72.599 6.13769 73.9255 5.30469 75.5713 5.30469C78.3482 5.30469 80.3623 7.43104 80.3623 10.3429L80.3548 10.3392Z" fill="#00204F"/>
<path d="M95.9526 11.8447V18.1726C95.9526 21.6362 93.202 24 89.1738 24C85.9085 24 83.1804 22.4948 82.4928 20.299V18.7462H85.9573C86.2016 20.1309 87.4566 21.1356 89.0273 21.1356C90.7971 21.1356 92.0484 19.8459 92.0484 18.0301V16.861C91.1165 17.6721 89.8126 18.1982 88.4148 18.1982C84.7812 18.1982 82.0757 15.4983 82.0757 11.8447C82.0757 8.19121 85.0217 5.30127 89.0987 5.30127C93.1757 5.30127 95.9526 8.04872 95.9526 11.8447ZM85.9799 11.9178C85.9799 13.7811 87.28 15.0927 89.0987 15.0927C90.9174 15.0927 92.195 13.8286 92.195 11.9178C92.195 10.007 90.9437 8.64424 89.0761 8.64424C87.2086 8.64424 85.9799 9.98143 85.9799 11.9178Z" fill="#00204F"/>
<path d="M104.599 7.25956C105.361 6.01736 106.759 5.30127 108.281 5.30127C110.1 5.30127 111.573 6.13793 112.309 7.47512C113.095 6.13793 114.789 5.32684 116.51 5.32684C119.359 5.32684 121.324 7.3582 121.324 10.2701V18.0301H117.42V11.0811C117.42 9.71838 116.537 8.69174 115.21 8.64424C113.861 8.64424 112.952 9.64896 112.952 11.0811V18.0301H109.048V11.0811C109.048 9.62339 108.213 8.64424 106.936 8.64424C105.658 8.64424 104.749 9.62339 104.749 11.0811V18.0301H100.845V5.77988H104.602V7.25956H104.599Z" fill="#00204F"/>
<path d="M137.095 11.918V18.0304H133.51V16.5726C132.477 17.8148 130.981 18.5053 129.238 18.5053C125.578 18.5053 123.049 15.8054 123.049 11.9144C123.049 8.02338 125.946 5.29785 130.049 5.29785C134.153 5.29785 137.099 8.06722 137.099 11.9144L137.095 11.918ZM126.949 11.918C126.949 13.8033 128.249 15.166 130.068 15.166C131.887 15.166 133.187 13.8033 133.187 11.918C133.187 10.0328 131.887 8.64448 130.068 8.64448C128.249 8.64448 126.949 10.0072 126.949 11.918Z" fill="#00204F"/>
<path d="M147.853 5.78006H151.242V7.64335L147.019 11.6805L151.49 16.3132V18.034H147.955L143.314 12.9702V18.034H139.41V0.285156H143.314V10.3872L147.857 5.7764L147.853 5.78006Z" fill="#00204F"/>
<path d="M165.412 11.8703C165.412 12.3233 165.363 13.0394 165.288 13.3756H155.733C156.176 14.7602 157.232 15.6444 158.679 15.6444C159.907 15.6444 161.012 15.0708 161.354 14.2341H164.499V15.6188C163.688 17.3871 161.256 18.5088 158.603 18.5088C154.451 18.5088 151.603 15.7613 151.603 11.8228C151.603 7.88431 154.5 5.30127 158.701 5.30127C162.654 5.30127 165.409 8.00122 165.409 11.8703H165.412ZM155.537 11.1761H161.482C161.456 9.4809 160.231 8.16563 158.487 8.16563C156.841 8.16563 155.759 9.38226 155.541 11.1761H155.537Z" fill="#00204F"/>
<path d="M177.621 6.25854V9.69651H175.704C175.483 9.07541 174.772 8.6443 174.01 8.6443C172.758 8.6443 171.871 9.839 171.871 11.5562V18.0265H167.967V5.77993H171.725V7.3546C172.439 6.1124 173.664 5.32324 175.092 5.32324C176.099 5.32324 177.132 5.70686 177.621 6.25489V6.25854Z" fill="#00204F"/>
<path d="M13.2756 17.8219L17.007 12.0054C17.3902 11.4099 18.3409 11.4099 18.7242 12.0054L22.4555 17.8219C22.6321 18.0995 22.9591 18.2676 23.3123 18.2676H34.5814C35.3479 18.2676 35.8252 17.515 35.4381 16.9158L30.7899 9.67084C30.4217 9.09358 29.5086 9.07166 29.1028 9.627L27.2277 12.1918C26.8219 12.7471 25.9125 12.7252 25.5405 12.1479L18.6453 1.39196C18.262 0.796431 17.3113 0.796431 16.9281 1.39196L10.0291 12.1443C9.66081 12.7215 8.74771 12.7435 8.34188 12.1881L6.46683 9.62335C6.061 9.06801 5.15166 9.08993 4.77965 9.66719L0.135226 16.9158C-0.248052 17.515 0.229166 18.2676 0.991965 18.2676H12.4152C12.7684 18.2676 13.0953 18.0959 13.2719 17.8219H13.2756Z" fill="url(#paint0_linear_33_411)"/>
</g>
<defs>
<linearGradient id="paint0_linear_33_411" x1="17.7886" y1="-7.37285" x2="17.7886" y2="28.4025" gradientUnits="userSpaceOnUse">
<stop offset="0.14" stop-color="#00E1FF"/>
<stop offset="1" stop-color="#0045FD"/>
</linearGradient>
<clipPath id="clip0_33_411">
<rect width="178" height="24" fill="white"/>
</clipPath>
</defs>
</svg>
