<svg width="14" height="14" viewBox="0 0 14 14" fill="none" xmlns="http://www.w3.org/2000/svg">
<g clip-path="url(#clip0_694_25886)">
<path d="M7.00016 3.50001C7.64183 3.50001 8.16683 4.02501 8.16683 4.66668C8.16683 5.30834 7.64183 5.83334 7.00016 5.83334C6.3585 5.83334 5.8335 5.30834 5.8335 4.66668C5.8335 4.02501 6.3585 3.50001 7.00016 3.50001ZM7.00016 8.75001C8.57516 8.75001 10.3835 9.50251 10.5002 9.91668V10.5H3.50016V9.92251C3.61683 9.50251 5.42516 8.75001 7.00016 8.75001ZM7.00016 2.33334C5.711 2.33334 4.66683 3.37751 4.66683 4.66668C4.66683 5.95584 5.711 7.00001 7.00016 7.00001C8.28933 7.00001 9.3335 5.95584 9.3335 4.66668C9.3335 3.37751 8.28933 2.33334 7.00016 2.33334ZM7.00016 7.58334C5.44266 7.58334 2.3335 8.36501 2.3335 9.91668V11.6667H11.6668V9.91668C11.6668 8.36501 8.55766 7.58334 7.00016 7.58334Z" fill="#005EE7"/>
</g>
<defs>
<clipPath id="clip0_694_25886">
<rect width="14" height="14" fill="white"/>
</clipPath>
</defs>
</svg>
