<svg width="14" height="14" viewBox="0 0 14 14" fill="none" xmlns="http://www.w3.org/2000/svg">
<g clip-path="url(#clip0_694_25896)">
<path d="M11.3343 7.57166C11.3577 7.38499 11.3752 7.19832 11.3752 6.99999C11.3752 6.80166 11.3577 6.61499 11.3343 6.42832L12.5652 5.46582C12.676 5.37832 12.7052 5.22082 12.6351 5.09249L11.4685 3.07416C11.416 2.98082 11.3168 2.92832 11.2118 2.92832C11.1768 2.92832 11.1418 2.93416 11.1126 2.94582L9.66015 3.52916C9.35682 3.29582 9.03015 3.10332 8.67432 2.95749L8.45265 1.41166C8.43515 1.27166 8.31265 1.16666 8.16682 1.16666H5.83348C5.68765 1.16666 5.56515 1.27166 5.54765 1.41166L5.32598 2.95749C4.97015 3.10332 4.64348 3.30166 4.34015 3.52916L2.88765 2.94582C2.85265 2.93416 2.81765 2.92832 2.78265 2.92832C2.68348 2.92832 2.58432 2.98082 2.53182 3.07416L1.36515 5.09249C1.28932 5.22082 1.32432 5.37832 1.43515 5.46582L2.66598 6.42832C2.64265 6.61499 2.62515 6.80749 2.62515 6.99999C2.62515 7.19249 2.64265 7.38499 2.66598 7.57166L1.43515 8.53416C1.32432 8.62166 1.29515 8.77916 1.36515 8.90749L2.53182 10.9258C2.58432 11.0192 2.68348 11.0717 2.78848 11.0717C2.82348 11.0717 2.85848 11.0658 2.88765 11.0542L4.34015 10.4708C4.64348 10.7042 4.97015 10.8967 5.32598 11.0425L5.54765 12.5883C5.56515 12.7283 5.68765 12.8333 5.83348 12.8333H8.16682C8.31265 12.8333 8.43515 12.7283 8.45265 12.5883L8.67432 11.0425C9.03015 10.8967 9.35682 10.6983 9.66015 10.4708L11.1126 11.0542C11.1476 11.0658 11.1826 11.0717 11.2177 11.0717C11.3168 11.0717 11.416 11.0192 11.4685 10.9258L12.6351 8.90749C12.7052 8.77916 12.676 8.62166 12.5652 8.53416L11.3343 7.57166ZM10.1793 6.57416C10.2027 6.75499 10.2085 6.87749 10.2085 6.99999C10.2085 7.12249 10.1968 7.25082 10.1793 7.42582L10.0977 8.08499L10.6168 8.49332L11.2468 8.98332L10.8385 9.68916L10.0977 9.39166L9.49098 9.14666L8.96598 9.54332C8.71515 9.72999 8.47598 9.86999 8.23682 9.96916L7.61848 10.22L7.52515 10.8792L7.40848 11.6667H6.59182L6.48098 10.8792L6.38765 10.22L5.76932 9.96916C5.51848 9.86416 5.28515 9.72999 5.05182 9.55499L4.52098 9.14666L3.90265 9.39749L3.16182 9.69499L2.75348 8.98916L3.38348 8.49916L3.90265 8.09082L3.82098 7.43166C3.80348 7.25082 3.79182 7.11666 3.79182 6.99999C3.79182 6.88332 3.80348 6.74916 3.82098 6.57416L3.90265 5.91499L3.38348 5.50666L2.75348 5.01666L3.16182 4.31082L3.90265 4.60832L4.50932 4.85332L5.03432 4.45666C5.28515 4.26999 5.52432 4.12999 5.76348 4.03082L6.38182 3.77999L6.47515 3.12082L6.59182 2.33332H7.40265L7.51348 3.12082L7.60682 3.77999L8.22515 4.03082C8.47598 4.13582 8.70932 4.26999 8.94265 4.44499L9.47348 4.85332L10.0918 4.60249L10.8327 4.30499L11.241 5.01082L10.6168 5.50666L10.0977 5.91499L10.1793 6.57416ZM7.00015 4.66666C5.71098 4.66666 4.66682 5.71082 4.66682 6.99999C4.66682 8.28916 5.71098 9.33332 7.00015 9.33332C8.28932 9.33332 9.33348 8.28916 9.33348 6.99999C9.33348 5.71082 8.28932 4.66666 7.00015 4.66666ZM7.00015 8.16666C6.35848 8.16666 5.83348 7.64166 5.83348 6.99999C5.83348 6.35832 6.35848 5.83332 7.00015 5.83332C7.64182 5.83332 8.16682 6.35832 8.16682 6.99999C8.16682 7.64166 7.64182 8.16666 7.00015 8.16666Z" fill="#666666"/>
</g>
<defs>
<clipPath id="clip0_694_25896">
<rect width="14" height="14" fill="white"/>
</clipPath>
</defs>
</svg>
