<svg width="20" height="20" viewBox="0 0 20 20" fill="none" xmlns="http://www.w3.org/2000/svg">
<g clip-path="url(#clip0_399_47304)">
<path d="M15.8335 11.6663V4.99967C15.8335 4.08301 15.0835 3.33301 14.1668 3.33301H2.50016C1.5835 3.33301 0.833496 4.08301 0.833496 4.99967V11.6663C0.833496 12.583 1.5835 13.333 2.50016 13.333H14.1668C15.0835 13.333 15.8335 12.583 15.8335 11.6663ZM14.1668 11.6663H2.50016V4.99967H14.1668V11.6663ZM8.3335 5.83301C6.95016 5.83301 5.8335 6.94967 5.8335 8.33301C5.8335 9.71634 6.95016 10.833 8.3335 10.833C9.71683 10.833 10.8335 9.71634 10.8335 8.33301C10.8335 6.94967 9.71683 5.83301 8.3335 5.83301ZM19.1668 5.83301V14.9997C19.1668 15.9163 18.4168 16.6663 17.5002 16.6663H3.3335C3.3335 15.833 3.3335 15.9163 3.3335 14.9997H17.5002V5.83301C18.4168 5.83301 18.3335 5.83301 19.1668 5.83301Z" fill="white"/>
</g>
<defs>
<clipPath id="clip0_399_47304">
<rect width="20" height="20" fill="white"/>
</clipPath>
</defs>
</svg>
