<svg width="26" height="26" viewBox="0 0 26 26" fill="none" xmlns="http://www.w3.org/2000/svg">
<path d="M19.5 5.69364V13V20.3064C19.5 20.5235 19.4124 20.7317 19.2565 20.8852C19.1007 21.0388 18.8892 21.125 18.6688 21.125H7.3312C7.11075 21.125 6.89933 21.0388 6.74345 20.8852C6.58757 20.7317 6.5 20.5235 6.5 20.3064V10.9902L11.0716 4.875H18.6688C18.8892 4.875 19.1007 4.96125 19.2565 5.11477C19.4124 5.2683 19.5 5.47652 19.5 5.69364Z" fill="#EDEEEF"/>
<path d="M11.0716 4.88281V10.1344C11.0716 10.3515 10.984 10.5597 10.8281 10.7133C10.6722 10.8668 10.4608 10.953 10.2404 10.953H6.52075L11.0716 4.88281Z" fill="#CFD0D1"/>
<path d="M20.7961 13H5.20394C4.57354 13 4.0625 13.5182 4.0625 14.1574V19.9676C4.0625 20.6068 4.57354 21.125 5.20394 21.125H20.7961C21.4265 21.125 21.9375 20.6068 21.9375 19.9676V14.1574C21.9375 13.5182 21.4265 13 20.7961 13Z" fill="#FF4057"/>
<path d="M6.29846 19.7579V14.4624H8.55124C9.73614 14.4624 10.5115 15.2085 10.5115 16.3202C10.5115 17.4539 9.7142 18.1634 8.50736 18.1634H7.68816V19.7579H6.29846ZM7.68816 17.0809H8.22941C8.75604 17.0809 9.05592 16.7883 9.05592 16.3202C9.05592 15.8594 8.75604 15.5742 8.22941 15.5742H7.68816V17.0809Z" fill="white"/>
<path d="M13.1885 19.7579H11.177V14.4624H13.1738C14.8049 14.4624 15.8216 15.4571 15.8216 17.1101C15.8216 18.7632 14.8049 19.7579 13.1885 19.7579ZM12.5667 18.573H13.1373C13.9564 18.573 14.4172 18.2292 14.4172 17.1101C14.4172 15.9911 13.9564 15.6473 13.1007 15.6473H12.5667V18.573Z" fill="white"/>
<path d="M16.6188 19.7579V14.4624H20.3125V15.5888H18.0085V16.547H20.0784V17.6733H18.0085V19.7579H16.6188Z" fill="white"/>
</svg>
