<svg width="24" height="20" viewBox="0 0 24 20" fill="none" xmlns="http://www.w3.org/2000/svg">
<path d="M20.574 17.0131L18.009 12.5601L17.999 12.5641C17.4526 13.39 16.71 14.0677 15.8377 14.5364C14.9653 15.0051 13.9903 15.2503 13 15.2501C12.871 15.2501 12.746 15.2391 12.619 15.2301L13.009 15.9001L15.383 20.0121C15.4266 20.0874 15.4892 20.1501 15.5645 20.1939C15.6398 20.2377 15.7252 20.261 15.8123 20.2616C15.8994 20.2622 15.9851 20.2401 16.061 20.1973C16.1369 20.1546 16.2004 20.0928 16.245 20.0181L17.57 17.8001L20.149 17.7621C20.2362 17.7608 20.3215 17.7369 20.3966 17.6925C20.4716 17.6481 20.5337 17.5849 20.5768 17.5091C20.6199 17.4332 20.6423 17.3475 20.642 17.2603C20.6417 17.1731 20.6186 17.0876 20.575 17.0121L20.574 17.0131Z" fill="#F4B18A"/>
<path d="M10.6189 15.23C9.69507 15.1725 8.7971 14.9017 7.9955 14.4388C7.19391 13.9758 6.51051 13.3335 5.99894 12.562L3.43494 17.012C3.39134 17.0875 3.36823 17.1731 3.36792 17.2603C3.36761 17.3475 3.3901 17.4332 3.43316 17.509C3.47622 17.5848 3.53835 17.648 3.61339 17.6924C3.68842 17.7368 3.77376 17.7608 3.86094 17.762L6.43994 17.8L7.76394 20.018C7.8086 20.0928 7.87202 20.1546 7.94792 20.1973C8.02382 20.24 8.10956 20.2622 8.19665 20.2616C8.28374 20.261 8.36917 20.2376 8.44446 20.1938C8.51976 20.1501 8.58231 20.0874 8.62594 20.012L10.9999 15.9L11.0039 15.893L10.6189 15.231V15.23Z" fill="#F4B18A"/>
<g filter="url(#filter0_d_73_10443)">
<path d="M12 16C16.4183 16 20 12.4183 20 8C20 3.58172 16.4183 0 12 0C7.58172 0 4 3.58172 4 8C4 12.4183 7.58172 16 12 16Z" fill="#BD7B56"/>
<path d="M12 16C16.4183 16 20 12.4183 20 8C20 3.58172 16.4183 0 12 0C7.58172 0 4 3.58172 4 8C4 12.4183 7.58172 16 12 16Z" fill="url(#paint0_linear_73_10443)" fill-opacity="0.2" style="mix-blend-mode:overlay"/>
<path d="M19.5 8C19.5 12.1421 16.1421 15.5 12 15.5C7.85786 15.5 4.5 12.1421 4.5 8C4.5 3.85786 7.85786 0.5 12 0.5C16.1421 0.5 19.5 3.85786 19.5 8Z" stroke="black" stroke-opacity="0.06" style="mix-blend-mode:overlay"/>
</g>
<g filter="url(#filter1_d_73_10443)">
<path d="M10.9419 7.33252H11.8228C12.0483 7.33252 12.2327 7.29313 12.376 7.21436C12.5228 7.132 12.632 7.01742 12.7036 6.87061C12.7752 6.72021 12.811 6.54297 12.811 6.33887C12.811 6.18132 12.777 6.0363 12.709 5.90381C12.6445 5.77132 12.5443 5.66569 12.4082 5.58691C12.2721 5.50456 12.0985 5.46338 11.8872 5.46338C11.744 5.46338 11.6043 5.49382 11.4683 5.55469C11.3322 5.61198 11.2194 5.69434 11.1299 5.80176C11.0439 5.90918 11.001 6.03988 11.001 6.19385H9.18555C9.18555 5.74984 9.30729 5.37028 9.55078 5.05518C9.79785 4.73649 10.1219 4.493 10.5229 4.32471C10.9276 4.15283 11.3626 4.06689 11.8281 4.06689C12.3831 4.06689 12.8701 4.15283 13.2891 4.32471C13.708 4.493 14.0339 4.74365 14.2666 5.07666C14.5029 5.40609 14.6211 5.81429 14.6211 6.30127C14.6211 6.56982 14.5584 6.82227 14.4331 7.05859C14.3078 7.29492 14.1323 7.5026 13.9067 7.68164C13.6812 7.86068 13.4162 8.00212 13.1118 8.10596C12.811 8.20622 12.4816 8.25635 12.1235 8.25635H10.9419V7.33252ZM10.9419 8.68066V7.77832H12.1235C12.5138 7.77832 12.8701 7.82308 13.1924 7.9126C13.5146 7.99854 13.7922 8.12744 14.0249 8.29932C14.2576 8.47119 14.4367 8.68424 14.562 8.93848C14.6873 9.18913 14.75 9.47738 14.75 9.80322C14.75 10.1685 14.6766 10.4943 14.5298 10.7808C14.383 11.0672 14.1771 11.3089 13.9121 11.5059C13.6471 11.7028 13.3374 11.8532 12.9829 11.957C12.6284 12.0573 12.2435 12.1074 11.8281 12.1074C11.5023 12.1074 11.1764 12.0645 10.8506 11.9785C10.5247 11.889 10.2275 11.7529 9.95898 11.5703C9.69043 11.3841 9.4738 11.1478 9.30908 10.8613C9.14795 10.5713 9.06738 10.2257 9.06738 9.82471H10.8828C10.8828 9.98942 10.9276 10.1398 11.0171 10.2759C11.1102 10.4084 11.2337 10.514 11.3877 10.5928C11.5417 10.6715 11.7082 10.7109 11.8872 10.7109C12.1092 10.7109 12.2972 10.6698 12.4512 10.5874C12.6087 10.5015 12.7287 10.3869 12.811 10.2437C12.8934 10.1004 12.9346 9.94108 12.9346 9.76562C12.9346 9.50065 12.8898 9.28939 12.8003 9.13184C12.7144 8.97428 12.5872 8.8597 12.4189 8.78809C12.2542 8.71647 12.0555 8.68066 11.8228 8.68066H10.9419Z" fill="white"/>
</g>
<g filter="url(#filter2_d_73_10443)">
<path fill-rule="evenodd" clip-rule="evenodd" d="M10.6418 7.33247C10.6418 7.16679 10.7762 7.03247 10.9418 7.03247H11.8227C12.0152 7.03247 12.145 6.99863 12.2303 6.95202C12.3245 6.89889 12.3895 6.82951 12.4333 6.74027C12.4816 6.6384 12.511 6.50743 12.511 6.33882C12.511 6.22609 12.4871 6.12843 12.4421 6.0408L12.4391 6.03503C12.4026 5.95996 12.3458 5.89744 12.2578 5.84649L12.2528 5.84356C12.1766 5.79742 12.0611 5.76333 11.8872 5.76333C11.7879 5.76333 11.6899 5.78414 11.5907 5.82848L11.5847 5.8312C11.4914 5.87046 11.4191 5.92396 11.3624 5.9913C11.325 6.03889 11.3009 6.10078 11.3009 6.1938C11.3009 6.35948 11.1666 6.4938 11.0009 6.4938H9.1855C9.01981 6.4938 8.8855 6.35948 8.8855 6.1938C8.8855 5.69146 9.0246 5.24537 9.31335 4.87169C9.59443 4.50914 9.96164 4.23495 10.4062 4.04828C10.8499 3.8599 11.3249 3.76685 11.8281 3.76685C12.4132 3.76685 12.9399 3.85735 13.4019 4.04671C13.8676 4.23399 14.2419 4.5183 14.5114 4.90325C14.7904 5.29294 14.921 5.76511 14.921 6.30122C14.921 6.61858 14.8465 6.9193 14.6981 7.1991C14.5519 7.47472 14.3487 7.71381 14.0932 7.91658C14.078 7.9286 14.0627 7.94046 14.0473 7.95216C14.1008 7.98554 14.1528 8.02079 14.2031 8.05794C14.4733 8.25748 14.6837 8.50725 14.8307 8.80502C14.9797 9.10342 15.05 9.43864 15.05 9.80317C15.05 10.2095 14.968 10.5833 14.7967 10.9175C14.6284 11.246 14.3919 11.5229 14.091 11.7466C13.7944 11.9671 13.4517 12.1322 13.0672 12.2449L13.0645 12.2457C12.6803 12.3543 12.2676 12.4074 11.8281 12.4074C11.4755 12.4074 11.124 12.3608 10.774 12.2685L10.7711 12.2678C10.4147 12.1699 10.0872 12.0202 9.79024 11.8183L9.788 11.8168C9.4825 11.605 9.23558 11.3354 9.04896 11.0108L9.04676 11.007C8.85618 10.664 8.76733 10.2661 8.76733 9.82466C8.76733 9.65897 8.90165 9.52466 9.06733 9.52466H10.8828C11.0484 9.52466 11.1828 9.65897 11.1828 9.82466C11.1828 9.92991 11.2099 10.0217 11.2652 10.1071C11.2643 10.1059 11.2634 10.1046 11.2625 10.1033L11.017 10.2758L11.2677 10.1109C11.2668 10.1097 11.266 10.1084 11.2652 10.1071C11.3281 10.1953 11.4123 10.2684 11.5243 10.3257C11.6345 10.382 11.7539 10.4109 11.8872 10.4109C12.0722 10.4109 12.2084 10.3767 12.3085 10.3234C12.3082 10.3236 12.3078 10.3238 12.3075 10.324L12.4511 10.5874L12.3096 10.3228C12.3093 10.323 12.3089 10.3232 12.3085 10.3234C12.4213 10.2617 12.4987 10.1849 12.5509 10.0941C12.6055 9.99917 12.6345 9.89192 12.6345 9.76558C12.6345 9.53014 12.5941 9.37621 12.5394 9.27999L12.5368 9.27547C12.4839 9.17843 12.4089 9.1098 12.3014 9.06408L12.2993 9.06317C12.1817 9.01204 12.0259 8.98062 11.8227 8.98062H10.9418C10.7762 8.98062 10.6418 8.8463 10.6418 8.68062V8.2563C10.6418 8.42198 10.7762 8.5563 10.9418 8.5563V7.47827C10.7762 7.47827 10.6418 7.61259 10.6418 7.77827V7.33247ZM9.0835 10.1247C9.07272 10.0284 9.06733 9.92837 9.06733 9.82466V10.1247H9.0835ZM13.4182 7.98242C13.5428 8.02663 13.6596 8.07822 13.7688 8.13718L13.4182 7.98242Z" fill="black" fill-opacity="0.1" style="mix-blend-mode:overlay" shape-rendering="crispEdges"/>
</g>
<defs>
<filter id="filter0_d_73_10443" x="3" y="0" width="18" height="18" filterUnits="userSpaceOnUse" color-interpolation-filters="sRGB">
<feFlood flood-opacity="0" result="BackgroundImageFix"/>
<feColorMatrix in="SourceAlpha" type="matrix" values="0 0 0 0 0 0 0 0 0 0 0 0 0 0 0 0 0 0 127 0" result="hardAlpha"/>
<feOffset dy="1"/>
<feGaussianBlur stdDeviation="0.5"/>
<feComposite in2="hardAlpha" operator="out"/>
<feColorMatrix type="matrix" values="0 0 0 0 0 0 0 0 0 0 0 0 0 0 0 0 0 0 0.08 0"/>
<feBlend mode="normal" in2="BackgroundImageFix" result="effect1_dropShadow_73_10443"/>
<feBlend mode="normal" in="SourceGraphic" in2="effect1_dropShadow_73_10443" result="shape"/>
</filter>
<filter id="filter1_d_73_10443" x="8.06738" y="4.06689" width="7.68262" height="10.0405" filterUnits="userSpaceOnUse" color-interpolation-filters="sRGB">
<feFlood flood-opacity="0" result="BackgroundImageFix"/>
<feColorMatrix in="SourceAlpha" type="matrix" values="0 0 0 0 0 0 0 0 0 0 0 0 0 0 0 0 0 0 127 0" result="hardAlpha"/>
<feOffset dy="1"/>
<feGaussianBlur stdDeviation="0.5"/>
<feComposite in2="hardAlpha" operator="out"/>
<feColorMatrix type="matrix" values="0 0 0 0 0 0 0 0 0 0 0 0 0 0 0 0 0 0 0.18 0"/>
<feBlend mode="normal" in2="BackgroundImageFix" result="effect1_dropShadow_73_10443"/>
<feBlend mode="normal" in="SourceGraphic" in2="effect1_dropShadow_73_10443" result="shape"/>
</filter>
<filter id="filter2_d_73_10443" x="7.76733" y="3.76685" width="8.28259" height="10.6406" filterUnits="userSpaceOnUse" color-interpolation-filters="sRGB">
<feFlood flood-opacity="0" result="BackgroundImageFix"/>
<feColorMatrix in="SourceAlpha" type="matrix" values="0 0 0 0 0 0 0 0 0 0 0 0 0 0 0 0 0 0 127 0" result="hardAlpha"/>
<feOffset dy="1"/>
<feGaussianBlur stdDeviation="0.5"/>
<feComposite in2="hardAlpha" operator="out"/>
<feColorMatrix type="matrix" values="0 0 0 0 0 0 0 0 0 0 0 0 0 0 0 0 0 0 0.18 0"/>
<feBlend mode="normal" in2="BackgroundImageFix" result="effect1_dropShadow_73_10443"/>
<feBlend mode="normal" in="SourceGraphic" in2="effect1_dropShadow_73_10443" result="shape"/>
</filter>
<linearGradient id="paint0_linear_73_10443" x1="12" y1="0" x2="28" y2="16" gradientUnits="userSpaceOnUse">
<stop stop-color="white"/>
<stop offset="1" stop-opacity="0"/>
</linearGradient>
</defs>
</svg>
