<svg width="24" height="20" viewBox="0 0 24 20" fill="none" xmlns="http://www.w3.org/2000/svg">
<path d="M20.574 17.0131L18.009 12.5601L17.999 12.5641C17.4526 13.39 16.71 14.0677 15.8377 14.5364C14.9653 15.0051 13.9903 15.2503 13 15.2501C12.871 15.2501 12.746 15.2391 12.619 15.2301L13.009 15.9001L15.383 20.0121C15.4266 20.0874 15.4892 20.1501 15.5645 20.1939C15.6398 20.2377 15.7252 20.261 15.8123 20.2616C15.8994 20.2622 15.9851 20.2401 16.061 20.1973C16.1369 20.1546 16.2004 20.0928 16.245 20.0181L17.57 17.8001L20.149 17.7621C20.2362 17.7608 20.3215 17.7369 20.3966 17.6925C20.4716 17.6481 20.5337 17.5849 20.5768 17.5091C20.6199 17.4332 20.6423 17.3475 20.642 17.2603C20.6417 17.1731 20.6186 17.0876 20.575 17.0121L20.574 17.0131Z" fill="#B4C3C6"/>
<path d="M10.6189 15.23C9.69507 15.1725 8.7971 14.9017 7.9955 14.4388C7.19391 13.9758 6.51051 13.3335 5.99894 12.562L3.43494 17.012C3.39134 17.0875 3.36823 17.1731 3.36792 17.2603C3.36761 17.3475 3.3901 17.4332 3.43316 17.509C3.47622 17.5848 3.53835 17.648 3.61339 17.6924C3.68842 17.7368 3.77376 17.7608 3.86094 17.762L6.43994 17.8L7.76394 20.018C7.8086 20.0928 7.87202 20.1546 7.94792 20.1973C8.02382 20.24 8.10956 20.2622 8.19665 20.2616C8.28374 20.261 8.36917 20.2376 8.44446 20.1938C8.51976 20.1501 8.58231 20.0874 8.62594 20.012L10.9999 15.9L11.0039 15.893L10.6189 15.231V15.23Z" fill="#B4C3C6"/>
<g filter="url(#filter0_d_73_10472)">
<path d="M12 16C16.4183 16 20 12.4183 20 8C20 3.58172 16.4183 0 12 0C7.58172 0 4 3.58172 4 8C4 12.4183 7.58172 16 12 16Z" fill="#7B8587"/>
<path d="M12 16C16.4183 16 20 12.4183 20 8C20 3.58172 16.4183 0 12 0C7.58172 0 4 3.58172 4 8C4 12.4183 7.58172 16 12 16Z" fill="url(#paint0_linear_73_10472)" fill-opacity="0.2" style="mix-blend-mode:overlay"/>
<path d="M19.5 8C19.5 12.1421 16.1421 15.5 12 15.5C7.85786 15.5 4.5 12.1421 4.5 8C4.5 3.85786 7.85786 0.5 12 0.5C16.1421 0.5 19.5 3.85786 19.5 8Z" stroke="black" stroke-opacity="0.06" style="mix-blend-mode:overlay"/>
</g>
<g filter="url(#filter1_d_73_10472)">
<path d="M14.75 10.6035V12H9.29297V10.8184L11.8066 8.17578C12.0286 7.92155 12.2077 7.69417 12.3438 7.49365C12.4798 7.28955 12.5783 7.10514 12.6392 6.94043C12.7036 6.77572 12.7358 6.62712 12.7358 6.49463C12.7358 6.26904 12.7018 6.08105 12.6338 5.93066C12.5693 5.77669 12.4727 5.66032 12.3438 5.58154C12.2184 5.50277 12.0627 5.46338 11.8765 5.46338C11.6903 5.46338 11.5273 5.51709 11.3877 5.62451C11.248 5.73193 11.1388 5.87874 11.0601 6.06494C10.9849 6.25114 10.9473 6.46061 10.9473 6.69336H9.13184C9.13184 6.21354 9.24821 5.7749 9.48096 5.37744C9.71729 4.97998 10.0449 4.66309 10.4639 4.42676C10.8828 4.18685 11.368 4.06689 11.9194 4.06689C12.4959 4.06689 12.9793 4.15641 13.3696 4.33545C13.7599 4.51449 14.0535 4.77409 14.2505 5.11426C14.451 5.45085 14.5513 5.85726 14.5513 6.3335C14.5513 6.60563 14.5083 6.86702 14.4224 7.11768C14.3364 7.36833 14.2129 7.61719 14.0518 7.86426C13.8906 8.10775 13.6937 8.3584 13.4609 8.61621C13.2318 8.87402 12.9704 9.14795 12.6768 9.43799L11.667 10.6035H14.75Z" fill="white"/>
</g>
<g filter="url(#filter2_d_73_10472)">
<path fill-rule="evenodd" clip-rule="evenodd" d="M14.75 10.3035C14.9156 10.3035 15.05 10.4378 15.05 10.6035V12C15.05 12.1656 14.9156 12.3 14.75 12.3H9.29292C9.12723 12.3 8.99292 12.1656 8.99292 12V10.8183C8.99292 10.7413 9.0225 10.6673 9.07555 10.6115L11.5848 7.97363C11.7993 7.72773 11.9685 7.51214 12.0948 7.32617C12.2222 7.13494 12.3075 6.97214 12.3577 6.83639L12.3597 6.83104C12.4148 6.69017 12.4358 6.57943 12.4358 6.49458C12.4358 6.29691 12.4057 6.15432 12.3604 6.05427L12.3569 6.0465C12.3141 5.94433 12.2567 5.87991 12.1873 5.83748L12.184 5.83551C12.1175 5.79366 12.0206 5.76333 11.8764 5.76333C11.7524 5.76333 11.6547 5.79756 11.5706 5.86225C11.4782 5.93333 11.3987 6.03508 11.3373 6.17952C11.2792 6.32431 11.2472 6.49407 11.2472 6.69331C11.2472 6.859 11.1129 6.99331 10.9472 6.99331H9.13179C8.9661 6.99331 8.83179 6.859 8.83179 6.69331C8.83179 6.16253 8.96121 5.6712 9.22203 5.2258L9.22305 5.22407C9.48708 4.78001 9.85333 4.42683 10.3156 4.16589C10.7858 3.89681 11.3236 3.76685 11.9194 3.76685C12.525 3.76685 13.0541 3.86063 13.4947 4.06272C13.9353 4.26486 14.2782 4.56421 14.5091 4.9623C14.7421 5.35406 14.8512 5.81553 14.8512 6.33345C14.8512 6.63778 14.8031 6.93211 14.7061 7.21492C14.6113 7.4915 14.4762 7.76256 14.303 8.02809L14.3019 8.02977C14.1313 8.28753 13.925 8.54966 13.6844 8.81625C13.4526 9.07706 13.1896 9.35272 12.8958 9.64316L12.3238 10.3035H14.75ZM11.6669 10.6035L12.6767 9.43794C12.9703 9.1479 13.2317 8.87397 13.4609 8.61616C13.6936 8.35835 13.8906 8.1077 14.0517 7.86421C14.2128 7.61714 14.3364 7.36828 14.4223 7.11763C14.5083 6.86698 14.5512 6.60558 14.5512 6.33345C14.5512 5.85721 14.451 5.4508 14.2504 5.11421C14.0535 4.77404 13.7599 4.51444 13.3696 4.3354C12.9793 4.15636 12.4959 4.06685 11.9194 4.06685C11.368 4.06685 10.8828 4.1868 10.4638 4.42671C10.0449 4.66304 9.71724 4.97993 9.48091 5.37739C9.29757 5.69048 9.18644 6.02912 9.14752 6.39331C9.13703 6.49145 9.13179 6.59145 9.13179 6.69331H10.9472C10.9472 6.46056 10.9848 6.25109 11.06 6.06489C11.1388 5.87869 11.248 5.73188 11.3876 5.62446C11.5273 5.51704 11.6902 5.46333 11.8764 5.46333C12.0626 5.46333 12.2184 5.50272 12.3437 5.58149C12.4726 5.66027 12.5693 5.77664 12.6337 5.93062C12.7018 6.08101 12.7358 6.26899 12.7358 6.49458C12.7358 6.62707 12.7036 6.77567 12.6391 6.94038C12.5782 7.10509 12.4798 7.2895 12.3437 7.4936C12.2076 7.69412 12.0286 7.9215 11.8066 8.17573L9.29292 10.8183V12H14.75V10.6035H11.6669Z" fill="black" fill-opacity="0.1" style="mix-blend-mode:overlay" shape-rendering="crispEdges"/>
</g>
<defs>
<filter id="filter0_d_73_10472" x="3" y="0" width="18" height="18" filterUnits="userSpaceOnUse" color-interpolation-filters="sRGB">
<feFlood flood-opacity="0" result="BackgroundImageFix"/>
<feColorMatrix in="SourceAlpha" type="matrix" values="0 0 0 0 0 0 0 0 0 0 0 0 0 0 0 0 0 0 127 0" result="hardAlpha"/>
<feOffset dy="1"/>
<feGaussianBlur stdDeviation="0.5"/>
<feComposite in2="hardAlpha" operator="out"/>
<feColorMatrix type="matrix" values="0 0 0 0 0 0 0 0 0 0 0 0 0 0 0 0 0 0 0.08 0"/>
<feBlend mode="normal" in2="BackgroundImageFix" result="effect1_dropShadow_73_10472"/>
<feBlend mode="normal" in="SourceGraphic" in2="effect1_dropShadow_73_10472" result="shape"/>
</filter>
<filter id="filter1_d_73_10472" x="8.13184" y="4.06689" width="7.61816" height="9.93311" filterUnits="userSpaceOnUse" color-interpolation-filters="sRGB">
<feFlood flood-opacity="0" result="BackgroundImageFix"/>
<feColorMatrix in="SourceAlpha" type="matrix" values="0 0 0 0 0 0 0 0 0 0 0 0 0 0 0 0 0 0 127 0" result="hardAlpha"/>
<feOffset dy="1"/>
<feGaussianBlur stdDeviation="0.5"/>
<feComposite in2="hardAlpha" operator="out"/>
<feColorMatrix type="matrix" values="0 0 0 0 0 0 0 0 0 0 0 0 0 0 0 0 0 0 0.18 0"/>
<feBlend mode="normal" in2="BackgroundImageFix" result="effect1_dropShadow_73_10472"/>
<feBlend mode="normal" in="SourceGraphic" in2="effect1_dropShadow_73_10472" result="shape"/>
</filter>
<filter id="filter2_d_73_10472" x="7.83179" y="3.76685" width="8.21814" height="10.5332" filterUnits="userSpaceOnUse" color-interpolation-filters="sRGB">
<feFlood flood-opacity="0" result="BackgroundImageFix"/>
<feColorMatrix in="SourceAlpha" type="matrix" values="0 0 0 0 0 0 0 0 0 0 0 0 0 0 0 0 0 0 127 0" result="hardAlpha"/>
<feOffset dy="1"/>
<feGaussianBlur stdDeviation="0.5"/>
<feComposite in2="hardAlpha" operator="out"/>
<feColorMatrix type="matrix" values="0 0 0 0 0 0 0 0 0 0 0 0 0 0 0 0 0 0 0.18 0"/>
<feBlend mode="normal" in2="BackgroundImageFix" result="effect1_dropShadow_73_10472"/>
<feBlend mode="normal" in="SourceGraphic" in2="effect1_dropShadow_73_10472" result="shape"/>
</filter>
<linearGradient id="paint0_linear_73_10472" x1="12" y1="0" x2="28" y2="16" gradientUnits="userSpaceOnUse">
<stop stop-color="white"/>
<stop offset="0.895833" stop-opacity="0"/>
</linearGradient>
</defs>
</svg>
