<svg width="24" height="20" viewBox="0 0 24 20" fill="none" xmlns="http://www.w3.org/2000/svg">
<path d="M20.574 17.0131L18.009 12.5601L17.999 12.5641C17.4526 13.39 16.71 14.0677 15.8377 14.5364C14.9653 15.0051 13.9903 15.2503 13 15.2501C12.871 15.2501 12.746 15.2391 12.619 15.2301L13.009 15.9001L15.383 20.0121C15.4266 20.0874 15.4892 20.1501 15.5645 20.1939C15.6398 20.2377 15.7252 20.261 15.8123 20.2616C15.8994 20.2622 15.9851 20.2401 16.061 20.1973C16.1369 20.1546 16.2004 20.0928 16.245 20.0181L17.57 17.8001L20.149 17.7621C20.2362 17.7608 20.3215 17.7369 20.3966 17.6925C20.4716 17.6481 20.5337 17.5849 20.5768 17.5091C20.6199 17.4332 20.6423 17.3475 20.642 17.2603C20.6417 17.1731 20.6186 17.0876 20.575 17.0121L20.574 17.0131Z" fill="#FFE39A"/>
<path d="M10.6189 15.23C9.69507 15.1725 8.7971 14.9017 7.9955 14.4388C7.19391 13.9758 6.51051 13.3335 5.99894 12.562L3.43494 17.012C3.39134 17.0875 3.36823 17.1731 3.36792 17.2603C3.36761 17.3475 3.3901 17.4332 3.43316 17.509C3.47622 17.5848 3.53835 17.648 3.61339 17.6924C3.68842 17.7368 3.77376 17.7608 3.86094 17.762L6.43994 17.8L7.76394 20.018C7.8086 20.0928 7.87202 20.1546 7.94792 20.1973C8.02382 20.24 8.10956 20.2622 8.19665 20.2616C8.28374 20.261 8.36917 20.2376 8.44446 20.1938C8.51976 20.1501 8.58231 20.0874 8.62594 20.012L10.9999 15.9L11.0039 15.893L10.6189 15.231V15.23Z" fill="#FFE39A"/>
<g filter="url(#filter0_d_73_10501)">
<path d="M12 16C16.4183 16 20 12.4183 20 8C20 3.58172 16.4183 0 12 0C7.58172 0 4 3.58172 4 8C4 12.4183 7.58172 16 12 16Z" fill="#F5A115"/>
<path d="M12 16C16.4183 16 20 12.4183 20 8C20 3.58172 16.4183 0 12 0C7.58172 0 4 3.58172 4 8C4 12.4183 7.58172 16 12 16Z" fill="url(#paint0_linear_73_10501)" fill-opacity="0.2" style="mix-blend-mode:overlay"/>
<path d="M19.5 8C19.5 12.1421 16.1421 15.5 12 15.5C7.85786 15.5 4.5 12.1421 4.5 8C4.5 3.85786 7.85786 0.5 12 0.5C16.1421 0.5 19.5 3.85786 19.5 8Z" stroke="black" stroke-opacity="0.06" style="mix-blend-mode:overlay"/>
</g>
<g filter="url(#filter1_d_73_10501)">
<path d="M13.2998 4.17969V12H11.4897V6.2207L9.70654 6.7417V5.3667L13.1333 4.17969H13.2998Z" fill="white"/>
</g>
<g filter="url(#filter2_d_73_10501)">
<path fill-rule="evenodd" clip-rule="evenodd" d="M13.2998 3.87964C13.4654 3.87964 13.5998 4.01395 13.5998 4.17964V12C13.5998 12.1656 13.4654 12.3 13.2998 12.3H11.4897C11.324 12.3 11.1897 12.1656 11.1897 12V6.62085L9.79063 7.02961C9.69997 7.0561 9.60212 7.03835 9.52655 6.98169C9.45098 6.92504 9.40649 6.8361 9.40649 6.74165V5.36665C9.40649 5.23881 9.4875 5.12502 9.6083 5.08318L13.0351 3.89616C13.0666 3.88522 13.0998 3.87964 13.1333 3.87964H13.2998ZM11.4897 6.22065V12H13.2998V4.17964H13.1333L9.70649 5.36665V6.74165L11.4897 6.22065Z" fill="black" fill-opacity="0.1" style="mix-blend-mode:overlay" shape-rendering="crispEdges"/>
</g>
<defs>
<filter id="filter0_d_73_10501" x="3" y="0" width="18" height="18" filterUnits="userSpaceOnUse" color-interpolation-filters="sRGB">
<feFlood flood-opacity="0" result="BackgroundImageFix"/>
<feColorMatrix in="SourceAlpha" type="matrix" values="0 0 0 0 0 0 0 0 0 0 0 0 0 0 0 0 0 0 127 0" result="hardAlpha"/>
<feOffset dy="1"/>
<feGaussianBlur stdDeviation="0.5"/>
<feComposite in2="hardAlpha" operator="out"/>
<feColorMatrix type="matrix" values="0 0 0 0 0 0 0 0 0 0 0 0 0 0 0 0 0 0 0.08 0"/>
<feBlend mode="normal" in2="BackgroundImageFix" result="effect1_dropShadow_73_10501"/>
<feBlend mode="normal" in="SourceGraphic" in2="effect1_dropShadow_73_10501" result="shape"/>
</filter>
<filter id="filter1_d_73_10501" x="8.70654" y="4.17969" width="5.59326" height="9.82031" filterUnits="userSpaceOnUse" color-interpolation-filters="sRGB">
<feFlood flood-opacity="0" result="BackgroundImageFix"/>
<feColorMatrix in="SourceAlpha" type="matrix" values="0 0 0 0 0 0 0 0 0 0 0 0 0 0 0 0 0 0 127 0" result="hardAlpha"/>
<feOffset dy="1"/>
<feGaussianBlur stdDeviation="0.5"/>
<feComposite in2="hardAlpha" operator="out"/>
<feColorMatrix type="matrix" values="0 0 0 0 0 0 0 0 0 0 0 0 0 0 0 0 0 0 0.18 0"/>
<feBlend mode="normal" in2="BackgroundImageFix" result="effect1_dropShadow_73_10501"/>
<feBlend mode="normal" in="SourceGraphic" in2="effect1_dropShadow_73_10501" result="shape"/>
</filter>
<filter id="filter2_d_73_10501" x="8.40649" y="3.87964" width="6.19324" height="10.4204" filterUnits="userSpaceOnUse" color-interpolation-filters="sRGB">
<feFlood flood-opacity="0" result="BackgroundImageFix"/>
<feColorMatrix in="SourceAlpha" type="matrix" values="0 0 0 0 0 0 0 0 0 0 0 0 0 0 0 0 0 0 127 0" result="hardAlpha"/>
<feOffset dy="1"/>
<feGaussianBlur stdDeviation="0.5"/>
<feComposite in2="hardAlpha" operator="out"/>
<feColorMatrix type="matrix" values="0 0 0 0 0 0 0 0 0 0 0 0 0 0 0 0 0 0 0.18 0"/>
<feBlend mode="normal" in2="BackgroundImageFix" result="effect1_dropShadow_73_10501"/>
<feBlend mode="normal" in="SourceGraphic" in2="effect1_dropShadow_73_10501" result="shape"/>
</filter>
<linearGradient id="paint0_linear_73_10501" x1="12" y1="0" x2="28" y2="16" gradientUnits="userSpaceOnUse">
<stop stop-color="white"/>
<stop offset="1" stop-opacity="0"/>
</linearGradient>
</defs>
</svg>
