<svg width="127" height="78" viewBox="0 0 127 78" fill="none" xmlns="http://www.w3.org/2000/svg">
<path fill-rule="evenodd" clip-rule="evenodd" d="M0 41.8184C0 55.2803 10.9131 66.1934 24.375 66.1934H102.375C115.837 66.1934 126.75 55.2803 126.75 41.8184C126.75 28.3564 115.837 17.4434 102.375 17.4434C98.3409 17.4434 94.5357 18.4234 91.1844 20.1583C87.3608 8.45511 76.3553 0 63.375 0C50.3947 0 39.3892 8.45511 35.5655 20.1583C32.2143 18.4234 28.4091 17.4434 24.375 17.4434C10.9131 17.4434 0 28.3564 0 41.8184Z" fill="url(#paint0_linear_744_94529)"/>
<circle cx="95.8242" cy="61.6992" r="15.3867" fill="#00C2CE"/>
<path fill-rule="evenodd" clip-rule="evenodd" d="M88.882 55.2902C89.8835 54.2887 91.5072 54.2887 92.5087 55.2902L95.8242 58.6057L99.1398 55.2902C100.141 54.2887 101.765 54.2887 102.766 55.2902C103.768 56.2917 103.768 57.9154 102.766 58.9169L99.4509 62.2324L102.766 65.548C103.768 66.5495 103.768 68.1732 102.766 69.1747C101.765 70.1762 100.141 70.1762 99.1398 69.1747L95.8242 65.8591L92.5087 69.1747C91.5072 70.1762 89.8835 70.1762 88.882 69.1747C87.8805 68.1732 87.8805 66.5495 88.882 65.548L92.1975 62.2324L88.882 58.9169C87.8805 57.9154 87.8805 56.2917 88.882 55.2902Z" fill="white"/>
<defs>
<linearGradient id="paint0_linear_744_94529" x1="63.375" y1="0.380859" x2="63.375" y2="66.1934" gradientUnits="userSpaceOnUse">
<stop stop-color="#CFDDF7"/>
<stop offset="1" stop-color="#EAEEF5"/>
</linearGradient>
</defs>
</svg>
