<svg width="16" height="16" viewBox="0 0 16 16" fill="none" xmlns="http://www.w3.org/2000/svg">
<g clip-path="url(#clip0_122_69602)">
<path fill-rule="evenodd" clip-rule="evenodd" d="M12 8.83117H10.6593L10.1793 10.5772C10.1374 10.7333 10.0449 10.8711 9.91633 10.9691C9.78773 11.0671 9.63028 11.1196 9.46863 11.1185H9.46796C9.13196 11.1185 8.84663 10.9005 8.75796 10.5772L7.99996 7.82517L7.24263 10.5772C7.20074 10.7333 7.10826 10.8711 6.97966 10.9691C6.85106 11.0671 6.69361 11.1196 6.53196 11.1185C6.19596 11.1185 5.91063 10.9012 5.82129 10.5778L5.34063 8.83117H3.99996C3.84083 8.83117 3.68822 8.76796 3.5757 8.65543C3.46317 8.54291 3.39996 8.3903 3.39996 8.23117C3.39996 8.07204 3.46317 7.91943 3.5757 7.80691C3.68822 7.69438 3.84083 7.63117 3.99996 7.63117H5.01063L4.58996 6.10317C4.56669 6.0265 4.55902 5.94595 4.56739 5.86626C4.57576 5.78658 4.6 5.70938 4.63869 5.63921C4.67738 5.56905 4.72973 5.50735 4.79265 5.45775C4.85557 5.40814 4.92779 5.37164 5.00505 5.3504C5.08231 5.32916 5.16303 5.32361 5.24247 5.33408C5.32191 5.34454 5.39844 5.37081 5.46756 5.41133C5.53668 5.45186 5.59698 5.50581 5.64491 5.57002C5.69284 5.63423 5.72743 5.70738 5.74663 5.78517L6.53196 8.63717L7.28929 5.88584C7.33095 5.72952 7.42335 5.59147 7.55198 5.49337C7.68062 5.39526 7.83819 5.34267 7.99996 5.34384C8.33596 5.34384 8.62196 5.56184 8.71063 5.88584L9.46863 8.63717L10.2533 5.78517C10.2742 5.70918 10.3098 5.63804 10.3582 5.57583C10.4066 5.51361 10.4667 5.46153 10.5352 5.42256C10.6037 5.38359 10.6792 5.3585 10.7574 5.34871C10.8356 5.33892 10.915 5.34462 10.991 5.3655C11.0669 5.38638 11.1381 5.42203 11.2003 5.4704C11.2625 5.51877 11.3146 5.57892 11.3536 5.64742C11.3925 5.71592 11.4176 5.79142 11.4274 5.86962C11.4372 5.94782 11.4315 6.02718 11.4106 6.10317L10.9893 7.63117H12C12.1591 7.63117 12.3117 7.69438 12.4242 7.80691C12.5367 7.91943 12.6 8.07204 12.6 8.23117C12.6 8.3903 12.5367 8.54291 12.4242 8.65543C12.3117 8.76796 12.1591 8.83117 12 8.83117ZM7.99996 0.666504C3.94996 0.666504 0.666626 3.94984 0.666626 7.99984C0.666626 12.0505 3.94996 15.3332 7.99996 15.3332C12.05 15.3332 15.3333 12.0505 15.3333 7.99984C15.3333 3.94984 12.05 0.666504 7.99996 0.666504Z" fill="#FFA715"/>
</g>
<defs>
<clipPath id="clip0_122_69602">
<rect width="16" height="16" fill="white"/>
</clipPath>
</defs>
</svg>
