<svg width="16" height="16" viewBox="0 0 16 16" fill="none" xmlns="http://www.w3.org/2000/svg">
<path d="M11.873 5.53467L12.6311 8.17618V10.5535H2.12583H1.59753C1.52747 10.5535 1.46028 10.5257 1.41074 10.4762C1.3612 10.4266 1.33337 10.3594 1.33337 10.2894C1.33349 9.66978 1.50126 9.06174 1.81888 8.52974C2.1365 7.99773 2.59215 7.56157 3.13752 7.2675L7.4969 7.24196C7.69088 7.41502 7.93248 7.71332 8.03898 7.95046C8.14549 8.18759 8.2008 8.44452 8.2013 8.70448V9.23278H8.7296C9.07989 9.23278 9.41583 9.09363 9.66352 8.84594C9.91121 8.59825 10.0504 8.26231 10.0504 7.91203V5.53467H11.873Z" fill="#09B5FF"/>
<path d="M10.0503 3.59765V5.71085C10.0503 5.78091 10.0781 5.8481 10.1277 5.89764C10.1772 5.94718 10.2444 5.97501 10.3144 5.97501H12.1635C12.3737 5.97501 12.5752 5.89152 12.7238 5.7429C12.8725 5.59429 12.956 5.39272 12.956 5.18255V4.12595C12.956 3.91578 12.8725 3.71421 12.7238 3.5656C12.5752 3.41699 12.3737 3.3335 12.1635 3.3335H10.3144C10.2444 3.3335 10.1772 3.36133 10.1277 3.41086C10.0781 3.4604 10.0503 3.52759 10.0503 3.59765Z" fill="#6CD3FF"/>
<path d="M2.56604 6.6795C2.56604 6.29047 2.88141 5.9751 3.27044 5.9751H7.14466C7.53369 5.9751 7.84906 6.29047 7.84906 6.6795C7.84906 7.06853 7.53369 7.3839 7.14466 7.3839H3.27044C2.88141 7.3839 2.56604 7.06853 2.56604 6.6795Z" fill="#039AEF"/>
<circle cx="12.4277" cy="10.2012" r="2.46541" fill="#039AEF"/>
<circle cx="4.67928" cy="10.2012" r="2.46541" fill="#039AEF"/>
<circle cx="4.67928" cy="10.2016" r="1.0566" fill="#6CD3FF"/>
<circle cx="12.4277" cy="10.2016" r="1.0566" fill="#6CD3FF"/>
<rect x="9.25793" y="4.21387" width="2.11321" height="0.704403" rx="0.352201" fill="#039AEF"/>
<rect x="2.40002" y="1.6001" width="5.6" height="4" rx="1" fill="#74DDE3"/>
</svg>
