<svg width="16" height="16" viewBox="0 0 16 16" fill="none" xmlns="http://www.w3.org/2000/svg">
<rect x="7" y="3" width="2" height="3" rx="1" fill="#A2E9EC"/>
<path d="M7.99995 4.3999C6.32968 4.40185 4.72838 5.06622 3.54733 6.24728C2.36627 7.42834 1.7019 9.02964 1.69995 10.6999V11.3999C1.69995 11.4927 1.73683 11.5818 1.80246 11.6474C1.8681 11.713 1.95713 11.7499 2.04995 11.7499H13.95C14.0428 11.7499 14.1318 11.713 14.1974 11.6474C14.2631 11.5818 14.3 11.4927 14.3 11.3999V10.6999C14.298 9.02964 13.6336 7.42834 12.4526 6.24728C11.2715 5.06622 9.67022 4.40185 7.99995 4.3999Z" fill="#17C7D0"/>
<rect x="1" y="10.7998" width="14" height="2" rx="1" fill="#04A6B5"/>
<path d="M11.835 8.59973C11.7762 8.59977 11.7183 8.58501 11.6668 8.55681C11.6152 8.52861 11.5716 8.48788 11.5399 8.43838C11.1429 7.81858 10.5908 7.31329 9.9383 6.97258C9.89632 6.95207 9.85886 6.92335 9.82815 6.88814C9.79744 6.85292 9.77409 6.81191 9.75949 6.76752C9.74488 6.72314 9.73931 6.67628 9.7431 6.6297C9.74689 6.58313 9.75997 6.53779 9.78156 6.49635C9.80316 6.45491 9.83283 6.41822 9.86884 6.38843C9.90484 6.35865 9.94644 6.33637 9.99119 6.32292C10.0359 6.30947 10.0829 6.30512 10.1294 6.31011C10.1758 6.31511 10.2208 6.32937 10.2617 6.35203C11.0229 6.74902 11.6669 7.33821 12.13 8.06108C12.1639 8.11399 12.1829 8.17503 12.185 8.23781C12.1871 8.30059 12.1723 8.36278 12.1422 8.41787C12.112 8.47296 12.0675 8.51892 12.0135 8.55091C11.9594 8.58291 11.8978 8.59977 11.835 8.59973Z" fill="#D1F4F6"/>
</svg>
