<svg width="16" height="16" viewBox="0 0 16 16" fill="none" xmlns="http://www.w3.org/2000/svg">
<rect x="1.33325" y="3.3335" width="13.3333" height="2.66667" fill="#E0EDA3"/>
<path d="M2.58558 13.923C2.28567 13.6229 2.11719 13.2161 2.11719 12.7918V5.6665H13.8825V12.7912C13.8825 13.2154 13.714 13.6223 13.4141 13.9223C13.1142 14.2223 12.7074 14.391 12.2832 14.3912H9.33319V11.8892C9.33319 11.7124 9.26295 11.5428 9.13793 11.4178C9.0129 11.2927 8.84333 11.2225 8.66652 11.2225H7.33319C7.15638 11.2225 6.98681 11.2927 6.86178 11.4178C6.73676 11.5428 6.66652 11.7124 6.66652 11.8892V14.3918H3.71652C3.29229 14.3917 2.88549 14.223 2.58558 13.923Z" fill="#BBDD72"/>
<path fill-rule="evenodd" clip-rule="evenodd" d="M13.9999 1.6665H1.99992C1.82311 1.6665 1.65354 1.73674 1.52851 1.86177C1.40349 1.98679 1.33325 2.15636 1.33325 2.33317V3.4445H14.6666V2.33317C14.6666 2.15636 14.5963 1.98679 14.4713 1.86177C14.3463 1.73674 14.1767 1.6665 13.9999 1.6665ZM1.33325 5.6665C1.33325 5.84332 1.40349 6.01288 1.52851 6.13791C1.65354 6.26293 1.82311 6.33317 1.99992 6.33317H13.9999C14.1767 6.33317 14.3463 6.26293 14.4713 6.13791C14.5963 6.01288 14.6666 5.84332 14.6666 5.6665V4.55517H1.33325V5.6665Z" fill="#89C707"/>
</svg>
