<svg width="16" height="16" viewBox="0 0 16 16" fill="none" xmlns="http://www.w3.org/2000/svg">
<path fill-rule="evenodd" clip-rule="evenodd" d="M10.6038 11.5466C9.70064 12.2486 8.56581 12.6667 7.33333 12.6667C4.38781 12.6667 2 10.2789 2 7.33333C2 4.38781 4.38781 2 7.33333 2C10.2789 2 12.6667 4.38781 12.6667 7.33333C12.6667 8.56581 12.2486 9.70064 11.5466 10.6038L14.2762 13.3334L13.3334 14.2762L10.6038 11.5466ZM11.3333 7.33333C11.3333 9.54247 9.54247 11.3333 7.33333 11.3333C5.12419 11.3333 3.33333 9.54247 3.33333 7.33333C3.33333 5.12419 5.12419 3.33333 7.33333 3.33333C9.54247 3.33333 11.3333 5.12419 11.3333 7.33333Z" fill="#35393A"/>
</svg>
