<svg width="24" height="24" viewBox="0 0 24 24" fill="none" xmlns="http://www.w3.org/2000/svg">
<path d="M17.551 11.6768L20.683 6.71787L18.9541 5.62598L15.6464 10.8632C16.3561 10.9708 17.0069 11.2579 17.551 11.6768Z" fill="#BFC3C4"/>
<path d="M11.4988 12.7629L9.45194 10.716L4.95827 15.9586L3.40576 14.6279L9.33645 7.70874L12.9785 11.3508C12.3757 11.6913 11.8664 12.178 11.4988 12.7629Z" fill="#BFC3C4"/>
<path d="M12 9.21218C12 10.6515 10.8333 11.8183 9.39395 11.8183C7.95465 11.8183 6.78786 10.6515 6.78786 9.21218C6.78786 7.77288 7.95465 6.60609 9.39395 6.60609C10.8333 6.60609 12 7.77288 12 9.21218Z" fill="#97A2A4"/>
<path d="M22.4244 6.60609C22.4244 8.04539 21.2576 9.21218 19.8183 9.21218C18.379 9.21218 17.2122 8.04539 17.2122 6.60609C17.2122 5.16679 18.379 4 19.8183 4C21.2576 4 22.4244 5.16679 22.4244 6.60609Z" fill="#97A2A4"/>
<path d="M6.78786 15.2931C6.78786 16.7324 5.62108 17.8991 4.18177 17.8991C2.74247 17.8991 1.57568 16.7324 1.57568 15.2931C1.57568 13.8538 2.74247 12.687 4.18177 12.687C5.62108 12.687 6.78786 13.8538 6.78786 15.2931Z" fill="#97A2A4"/>
<path fill-rule="evenodd" clip-rule="evenodd" d="M17.0412 18.5999C16.4426 18.9343 15.7527 19.1249 15.0182 19.1249C12.7238 19.1249 10.8638 17.2648 10.8638 14.9704C10.8638 12.6759 12.7238 10.8159 15.0182 10.8159C17.3127 10.8159 19.1727 12.6759 19.1727 14.9704C19.1727 15.7048 18.9821 16.3947 18.6478 16.9934L20.755 19.1007L19.1485 20.7072L17.0412 18.5999ZM16.9007 14.9704C16.9007 16.0101 16.0579 16.8529 15.0182 16.8529C13.9786 16.8529 13.1357 16.0101 13.1357 14.9704C13.1357 13.9307 13.9786 13.0879 15.0182 13.0879C16.0579 13.0879 16.9007 13.9307 16.9007 14.9704Z" fill="#97A2A4"/>
</svg>
