<svg width="22" height="22" viewBox="0 0 22 22" fill="none" xmlns="http://www.w3.org/2000/svg">
<path d="M16.0882 10.7036L18.9591 6.15789L17.3744 5.15698L14.3423 9.9578C14.9929 10.0564 15.5894 10.3196 16.0882 10.7036Z" fill="#BFC3C4"/>
<path d="M10.5403 11.6991L8.66404 9.82282L4.54484 14.6286L3.1217 13.4087L8.55817 7.06618L11.8967 10.4047C11.3441 10.7169 10.8773 11.163 10.5403 11.6991Z" fill="#BFC3C4"/>
<path d="M10.9999 8.44458C10.9999 9.76394 9.93038 10.8335 8.61102 10.8335C7.29166 10.8335 6.22211 9.76394 6.22211 8.44458C6.22211 7.12522 7.29166 6.05566 8.61102 6.05566C9.93038 6.05566 10.9999 7.12522 10.9999 8.44458Z" fill="#97A2A4"/>
<path d="M20.5556 6.05566C20.5556 7.37503 19.486 8.44458 18.1667 8.44458C16.8473 8.44458 15.7778 7.37503 15.7778 6.05566C15.7778 4.7363 16.8473 3.66675 18.1667 3.66675C19.486 3.66675 20.5556 4.7363 20.5556 6.05566Z" fill="#97A2A4"/>
<path d="M6.22211 14.0187C6.22211 15.3381 5.15255 16.4076 3.83319 16.4076C2.51383 16.4076 1.44427 15.3381 1.44427 14.0187C1.44427 12.6994 2.51383 11.6298 3.83319 11.6298C5.15255 11.6298 6.22211 12.6994 6.22211 14.0187Z" fill="#97A2A4"/>
<path fill-rule="evenodd" clip-rule="evenodd" d="M15.6212 17.0499C15.0725 17.3564 14.44 17.5311 13.7668 17.5311C11.6636 17.5311 9.95856 15.8261 9.95856 13.7228C9.95856 11.6196 11.6636 9.91455 13.7668 9.91455C15.8701 9.91455 17.5751 11.6196 17.5751 13.7228C17.5751 14.396 17.4004 15.0285 17.0939 15.5772L19.0256 17.5089L17.5529 18.9815L15.6212 17.0499ZM15.4924 13.7228C15.4924 14.6758 14.7199 15.4484 13.7668 15.4484C12.8138 15.4484 12.0412 14.6758 12.0412 13.7228C12.0412 12.7698 12.8138 11.9972 13.7668 11.9972C14.7199 11.9972 15.4924 12.7698 15.4924 13.7228Z" fill="#97A2A4"/>
</svg>
