<svg width="24" height="24" viewBox="0 0 24 24" fill="none" xmlns="http://www.w3.org/2000/svg">
<rect x="5" y="2" width="14" height="20" fill="white"/>
<path d="M5.04894 2H19V9H5L5.04894 2Z" fill="#D1F4F6"/>
<path d="M6.54195 3.5H17.5V7.5H6.5L6.54195 3.5Z" fill="#17C7D0"/>
<path d="M7 10.5H9.5V13H7V10.5Z" fill="#0AB5C4"/>
<path d="M7 14H9.5V16.5H7V14Z" fill="#0AB5C4"/>
<path d="M7 17.5H9.5V20H7V17.5Z" fill="#0AB5C4"/>
<path d="M10.75 14H13.25V16.5H10.75V14Z" fill="#0AB5C4"/>
<path d="M10.75 17.5H13.25V20H10.75V17.5Z" fill="#0AB5C4"/>
<path d="M10.75 10.5H13.25V13H10.75L10.75 10.5Z" fill="#0AB5C4"/>
<path d="M14.5 10.5H17V13H14.5V10.5Z" fill="#0AB5C4"/>
<path d="M14.5 14H17V20H14.5L14.5 14Z" fill="#17C7D0"/>
</svg>
