<svg width="24" height="24" viewBox="0 0 24 24" fill="none" xmlns="http://www.w3.org/2000/svg">
<path d="M17.551 11.6766L20.683 6.71763L18.9541 5.62573L15.6464 10.863C16.3561 10.9705 17.0069 11.2577 17.551 11.6766Z" fill="#D1F4F6"/>
<path d="M11.4988 12.7626L9.45194 10.7157L4.95827 15.9584L3.40576 14.6276L9.33645 7.7085L12.9785 11.3505C12.3757 11.6911 11.8664 12.1778 11.4988 12.7626Z" fill="#D1F4F6"/>
<path d="M12 9.21218C12 10.6515 10.8333 11.8183 9.39395 11.8183C7.95465 11.8183 6.78786 10.6515 6.78786 9.21218C6.78786 7.77288 7.95465 6.60609 9.39395 6.60609C10.8333 6.60609 12 7.77288 12 9.21218Z" fill="white"/>
<path d="M22.4244 6.60609C22.4244 8.04539 21.2576 9.21218 19.8183 9.21218C18.379 9.21218 17.2122 8.04539 17.2122 6.60609C17.2122 5.16679 18.379 4 19.8183 4C21.2576 4 22.4244 5.16679 22.4244 6.60609Z" fill="white"/>
<path d="M6.78786 15.2931C6.78786 16.7324 5.62108 17.8991 4.18177 17.8991C2.74247 17.8991 1.57568 16.7324 1.57568 15.2931C1.57568 13.8538 2.74247 12.687 4.18177 12.687C5.62108 12.687 6.78786 13.8538 6.78786 15.2931Z" fill="white"/>
<path fill-rule="evenodd" clip-rule="evenodd" d="M17.0417 18.5999C16.4431 18.9343 15.7531 19.1249 15.0187 19.1249C12.7243 19.1249 10.8643 17.2648 10.8643 14.9704C10.8643 12.6759 12.7243 10.8159 15.0187 10.8159C17.3132 10.8159 19.1732 12.6759 19.1732 14.9704C19.1732 15.7048 18.9826 16.3947 18.6482 16.9934L20.7555 19.1007L19.149 20.7072L17.0417 18.5999ZM16.9012 14.9704C16.9012 16.0101 16.0584 16.8529 15.0187 16.8529C13.9791 16.8529 13.1362 16.0101 13.1362 14.9704C13.1362 13.9307 13.9791 13.0879 15.0187 13.0879C16.0584 13.0879 16.9012 13.9307 16.9012 14.9704Z" fill="white"/>
</svg>
