<svg width="22" height="22" viewBox="0 0 22 22" fill="none" xmlns="http://www.w3.org/2000/svg">
<path d="M19.25 2.75H2.75V6.41667C2.75 7.93545 3.98122 9.16667 5.5 9.16667C7.01878 9.16667 8.25 7.93545 8.25 6.41667C8.25 7.93545 9.48122 9.16667 11 9.16667C12.5188 9.16667 13.75 7.93545 13.75 6.41667C13.75 7.93545 14.9812 9.16667 16.5 9.16667C18.0188 9.16667 19.25 7.93545 19.25 6.41667V2.75Z" fill="#97A2A4"/>
<path fill-rule="evenodd" clip-rule="evenodd" d="M3.66667 20.1667V11H18.3333V20.1667H3.66667ZM13.9236 13.9792H11.9167V12.6042H16.2708V16.9583H14.8958V14.9514L11.5729 18.2744L9.28125 15.9827L6.9028 18.3611L5.93053 17.3889L9.28125 14.0381L11.5729 16.3298L13.9236 13.9792Z" fill="#97A2A4"/>
</svg>
