<svg width="22" height="22" viewBox="0 0 22 22" fill="none" xmlns="http://www.w3.org/2000/svg">
<path d="M16.0882 10.7036L18.9591 6.15789L17.3744 5.15698L14.3423 9.9578C14.9929 10.0564 15.5894 10.3196 16.0882 10.7036Z" fill="#74DDE3"/>
<path d="M10.5403 11.6991L8.66404 9.82282L4.54484 14.6286L3.1217 13.4087L8.55817 7.06618L11.8967 10.4047C11.3441 10.7169 10.8773 11.163 10.5403 11.6991Z" fill="#74DDE3"/>
<path d="M11 8.44458C11 9.76394 9.93041 10.8335 8.61105 10.8335C7.29169 10.8335 6.22214 9.76394 6.22214 8.44458C6.22214 7.12522 7.29169 6.05566 8.61105 6.05566C9.93041 6.05566 11 7.12522 11 8.44458Z" fill="#0AB5C4"/>
<path d="M20.5556 6.05566C20.5556 7.37503 19.4861 8.44458 18.1667 8.44458C16.8474 8.44458 15.7778 7.37503 15.7778 6.05566C15.7778 4.7363 16.8474 3.66675 18.1667 3.66675C19.4861 3.66675 20.5556 4.7363 20.5556 6.05566Z" fill="#0AB5C4"/>
<path d="M6.22214 14.0187C6.22214 15.3381 5.15258 16.4076 3.83322 16.4076C2.51386 16.4076 1.44431 15.3381 1.44431 14.0187C1.44431 12.6994 2.51386 11.6298 3.83322 11.6298C5.15258 11.6298 6.22214 12.6994 6.22214 14.0187Z" fill="#0AB5C4"/>
<path fill-rule="evenodd" clip-rule="evenodd" d="M15.6213 17.0501C15.0726 17.3566 14.4402 17.5313 13.7669 17.5313C11.6637 17.5313 9.95868 15.8263 9.95868 13.7231C9.95868 11.6198 11.6637 9.91479 13.7669 9.91479C15.8702 9.91479 17.5752 11.6198 17.5752 13.7231C17.5752 14.3963 17.4005 15.0287 17.094 15.5775L19.0257 17.5091L17.553 18.9818L15.6213 17.0501ZM15.4926 13.7231C15.4926 14.6761 14.72 15.4487 13.7669 15.4487C12.8139 15.4487 12.0413 14.6761 12.0413 13.7231C12.0413 12.77 12.8139 11.9974 13.7669 11.9974C14.72 11.9974 15.4926 12.77 15.4926 13.7231Z" fill="#04A6B5"/>
</svg>
