<svg width="24" height="24" viewBox="0 0 24 24" fill="none" xmlns="http://www.w3.org/2000/svg">
<path d="M21 3H3V7C3 8.65685 4.34315 10 6 10C7.65685 10 9 8.65685 9 7C9 8.65685 10.3431 10 12 10C13.6569 10 15 8.65685 15 7C15 8.65685 16.3431 10 18 10C19.6569 10 21 8.65685 21 7V3Z" fill="#97A2A4"/>
<path fill-rule="evenodd" clip-rule="evenodd" d="M4 22V12H20V22H4ZM15.1893 15.25H13V13.75H17.75V18.5H16.25V16.3107L12.625 19.9357L10.125 17.4357L7.53033 20.0303L6.46967 18.9697L10.125 15.3143L12.625 17.8143L15.1893 15.25Z" fill="#97A2A4"/>
</svg>
