<svg width="22" height="22" viewBox="0 0 22 22" fill="none" xmlns="http://www.w3.org/2000/svg">
<path fill-rule="evenodd" clip-rule="evenodd" d="M3.66666 20.1667V11H18.3333V20.1667H3.66666ZM13.9235 13.9792H11.9167V12.6042H16.2708V16.9583H14.8958V14.9514L11.5729 18.2744L9.28124 15.9827L6.90279 18.3611L5.93052 17.3889L9.28124 14.0381L11.5729 16.3298L13.9235 13.9792Z" fill="#5CD8DE"/>
<path d="M19.25 2.75H2.75V6.41667C2.75 7.93545 3.98122 9.16667 5.5 9.16667C7.01878 9.16667 8.25 7.93545 8.25 6.41667C8.25 7.93545 9.48122 9.16667 11 9.16667C12.5188 9.16667 13.75 7.93545 13.75 6.41667C13.75 7.93545 14.9812 9.16667 16.5 9.16667C18.0188 9.16667 19.25 7.93545 19.25 6.41667V2.75Z" fill="#0AB5C4"/>
<path fill-rule="evenodd" clip-rule="evenodd" d="M13.9235 13.9792H11.9166V12.6042H16.2708V16.9584H14.8958V14.9515L11.5728 18.2744L9.28117 15.9828L6.90272 18.3612L5.93045 17.3889L9.28117 14.0382L11.5728 16.3299L13.9235 13.9792Z" fill="#F3FCFD"/>
</svg>
