<svg width="58" height="58" viewBox="0 0 58 58" fill="none" xmlns="http://www.w3.org/2000/svg">
<g filter="url(#filter0_dd_42_35213)">
<rect x="3" y="2" width="52" height="52" rx="8" fill="white" shape-rendering="crispEdges"/>
<g clip-path="url(#clip0_42_35213)">
<path d="M37.5312 35.7584L37.2769 35.2496L38.5569 34.3951L41.9715 32.5134L42.3793 33.3001L41.675 35.8401L38.8025 36.5072L37.5312 35.7584Z" fill="#4A4F60"/>
<path d="M26.5615 18.1904H20.4624C20.1172 18.1904 19.8374 18.4703 19.8374 18.8154V24.4017C19.8374 24.7469 20.1172 25.0267 20.4624 25.0267H26.5615C26.9066 25.0267 27.1865 24.7469 27.1865 24.4017V18.8154C27.1865 18.4703 26.9066 18.1904 26.5615 18.1904Z" fill="#FFE966"/>
<path d="M26.5615 18.1904H24.6865C24.8523 18.1904 25.0113 18.2563 25.1285 18.3735C25.2457 18.4907 25.3115 18.6497 25.3115 18.8154V24.4018C25.3115 24.5676 25.2457 24.7265 25.1285 24.8437C25.0113 24.961 24.8523 25.0268 24.6865 25.0268H26.5615C26.7273 25.0268 26.8863 24.961 27.0035 24.8437C27.1207 24.7265 27.1865 24.5676 27.1865 24.4018V18.8154C27.1865 18.6497 27.1207 18.4907 27.0035 18.3735C26.8863 18.2563 26.7273 18.1904 26.5615 18.1904Z" fill="#FFE236"/>
<path d="M26.4836 34.7588C26.4836 35.5679 26.1622 36.3439 25.59 36.9161C25.0179 37.4883 24.2419 37.8097 23.4327 37.8097C22.6235 37.8097 21.8475 37.4883 21.2754 36.9161C20.7032 36.3439 20.3818 35.5679 20.3818 34.7588C20.3818 34.7588 20.342 34.1974 20.5592 34.2109C20.7765 34.2245 26.4836 34.1431 26.4836 34.1431L26.4836 34.7588Z" fill="#4A4F60"/>
<path d="M25.5461 34.1561V34.7587C25.546 35.4866 25.2857 36.1906 24.8122 36.7434C24.3387 37.2963 23.6831 37.6617 22.9639 37.7737C23.3989 37.841 23.8433 37.8134 24.2667 37.6929C24.6901 37.5723 25.0824 37.3616 25.4167 37.0752C25.7511 36.7888 26.0195 36.4335 26.2036 36.0337C26.3878 35.6338 26.4833 35.1989 26.4836 34.7587V34.1431C26.4836 34.1431 26.1078 34.1484 25.5461 34.1561Z" fill="#3B3F4D"/>
<path d="M24.618 34.8898C24.5363 35.3935 24.081 35.9396 23.4327 35.9343C22.7764 35.9288 22.2654 35.361 22.2573 34.7588C22.2575 34.5458 22.3156 34.3368 22.4253 34.1543C22.5351 33.9717 22.6924 33.8224 22.8804 33.7223C23.4677 33.4138 24.2276 33.6976 24.5094 34.2111C24.6194 34.4191 24.6576 34.6577 24.618 34.8898Z" fill="white"/>
<path d="M37.0815 34.2536L18.2495 34.4864C17.2022 32.6873 18.7372 29.0195 21.3373 27.5169C22.7033 26.7275 24.0979 26.689 24.8823 26.7355H29.6725C28.6726 28.2579 28.7768 30.2006 29.8665 31.4482C30.7456 32.4547 32.1621 32.8906 33.428 32.6118C36.4626 31.9435 36.2731 28.4345 35.7711 26.064C35.7333 25.8855 35.1971 23.9655 34.9278 23.1777L36.9384 23.6349C37.6712 25.6736 39.3693 31.004 39.3693 31.004L37.0815 34.2536Z" fill="#FF6666"/>
<path d="M24.8824 26.7355C24.5939 26.7182 24.3046 26.7182 24.0161 26.7355H24.8824ZM28.9291 31.4482C29.7387 32.3752 31.0041 32.8175 32.1878 32.6641C31.2919 32.5545 30.4667 32.1222 29.8666 31.4482C28.7769 30.2006 28.6727 28.2579 29.6726 26.7355H28.7351C27.7352 28.2579 27.8394 30.2006 28.9291 31.4482ZM36.9384 23.6349L34.9279 23.1777C34.9514 23.2464 34.977 23.3242 35.0041 23.4082L36.0009 23.6349C36.7337 25.6736 38.4319 31.004 38.4319 31.004H39.3694C39.3694 31.004 37.6712 25.6735 36.9385 23.6349H36.9384Z" fill="#FF4E4E"/>
<path d="M42.628 32.6709C42.9432 33.0012 43.1802 33.3981 43.3216 33.8322C43.463 34.2663 43.5052 34.7266 43.445 35.1791C43.3849 35.6317 43.2239 36.065 42.974 36.4471C42.7242 36.8292 42.3917 37.1504 42.0012 37.3869C41.6107 37.6234 41.1721 37.7693 40.7178 37.8138C40.2634 37.8583 39.8048 37.8003 39.3759 37.644C38.9469 37.4877 38.5585 37.2371 38.2392 36.9107C37.92 36.5844 37.678 36.1905 37.5312 35.7582" fill="#4A4F60"/>
<path d="M42.628 32.6709L41.9987 33.0521C42.2904 33.4772 42.4697 33.9692 42.5197 34.4823C42.5698 34.9954 42.489 35.5127 42.2848 35.9861C42.0807 36.4595 41.7598 36.8734 41.3523 37.1891C40.9448 37.5049 40.4639 37.7122 39.9546 37.7917C40.5843 37.8892 41.2288 37.787 41.7975 37.4996C42.3662 37.2121 42.8306 36.7537 43.1255 36.1889C43.4204 35.624 43.531 34.9809 43.4417 34.35C43.3525 33.719 43.068 33.1319 42.628 32.6709Z" fill="#3B3F4D"/>
<path d="M40.9849 33.7459C41.1664 33.8451 41.3185 33.9904 41.4258 34.1671C41.5332 34.3439 41.5921 34.5458 41.5965 34.7525C41.6009 34.9593 41.5507 35.1635 41.4509 35.3446C41.3512 35.5258 41.2054 35.6774 41.0283 35.7842C40.8513 35.891 40.6492 35.9492 40.4424 35.953C40.2357 35.9567 40.0316 35.9059 39.8508 35.8056C39.6699 35.7052 39.5188 35.559 39.4125 35.3816C39.3063 35.2042 39.2487 35.0019 39.2456 34.7951C39.278 34.6051 39.3511 34.4243 39.4597 34.265C39.5683 34.1058 39.71 33.9718 39.875 33.8722C40.0401 33.7727 40.2247 33.7098 40.4162 33.688C40.6078 33.6662 40.8018 33.686 40.985 33.7459H40.9849Z" fill="white"/>
<path d="M18.25 34.4865C18.9675 31.1637 22.0691 29.2892 24.5916 29.9355C26.4193 30.4037 27.8616 32.1745 28.198 34.3583L18.25 34.4865Z" fill="#FF4E4E"/>
<path d="M24.5916 29.9356C23.9438 29.7752 23.2676 29.7669 22.6161 29.9115C22.6497 29.9191 22.6832 29.927 22.7166 29.9356C24.5443 30.4038 25.9866 32.1746 26.323 34.3584L18.2555 34.4623C18.2537 34.4705 18.2518 34.4785 18.25 34.4866L28.198 34.3585C27.8616 32.1747 26.4193 30.4038 24.5916 29.9356Z" fill="#FF3636"/>
<path d="M38.0384 31.0495L38.2242 30.9389C38.6473 30.6871 39.1158 30.5211 39.603 30.4505C40.0902 30.3798 40.5866 30.4057 41.0638 30.5269C41.5409 30.648 41.9896 30.862 42.384 31.1565C42.7785 31.4511 43.1111 31.8204 43.3629 32.2435L36.7338 36.1881C36.482 35.765 36.3161 35.2965 36.2454 34.8093C36.1747 34.3221 36.2007 33.8258 36.3218 33.3486C36.4429 32.8714 36.6569 32.4228 36.9514 32.0283C37.2459 31.6338 37.6153 31.3012 38.0384 31.0495Z" fill="#FF4E4E"/>
<path d="M43.3626 32.2435C42.9477 31.5466 42.3181 31.003 41.5682 30.6942C40.8182 30.3855 39.9884 30.3282 39.2031 30.531C39.7969 30.6838 40.3442 30.9801 40.7968 31.3937C40.8933 31.4832 40.9675 31.5939 41.0136 31.7171C41.0597 31.8403 41.0763 31.9726 41.0623 32.1033C41.0483 32.2341 41.0039 32.3598 40.9327 32.4704C40.8616 32.581 40.7656 32.6735 40.6523 32.7405L36.3501 35.3006C36.4391 35.6117 36.568 35.91 36.7336 36.1881L43.3626 32.2435Z" fill="#FF3636"/>
<path d="M35.5124 22.7258H32.373C32.2487 22.7258 32.1295 22.6764 32.0416 22.5885C31.9537 22.5006 31.9043 22.3814 31.9043 22.2571C31.9043 22.1328 31.9537 22.0135 32.0416 21.9256C32.1295 21.8377 32.2487 21.7883 32.373 21.7883H35.5124C35.6367 21.7883 35.756 21.8377 35.8439 21.9256C35.9318 22.0135 35.9812 22.1328 35.9812 22.2571C35.9812 22.3814 35.9318 22.5006 35.8439 22.5885C35.756 22.6764 35.6367 22.7258 35.5124 22.7258Z" fill="#4A4F60"/>
<path d="M35.9531 20.8792H37.6634C37.7131 20.8792 37.7608 20.8989 37.796 20.9341C37.8311 20.9692 37.8509 21.0169 37.8509 21.0667V23.4474C37.8509 23.4971 37.8311 23.5448 37.796 23.58C37.7608 23.6151 37.7131 23.6349 37.6634 23.6349H35.9531C35.5876 23.6349 35.2372 23.4897 34.9788 23.2313C34.7204 22.9729 34.5752 22.6225 34.5752 22.257C34.5752 21.8916 34.7204 21.5411 34.9788 21.2827C35.2372 21.0243 35.5876 20.8792 35.9531 20.8792Z" fill="#FF4E4E"/>
<path d="M37.6631 20.8792H36.7256C36.7753 20.8792 36.823 20.8989 36.8582 20.9341C36.8933 20.9692 36.9131 21.0169 36.9131 21.0667V23.4474C36.9131 23.4971 36.8933 23.5448 36.8582 23.58C36.823 23.6151 36.7753 23.6349 36.7256 23.6349H37.6631C37.7128 23.6349 37.7605 23.6151 37.7957 23.58C37.8308 23.5448 37.8506 23.4971 37.8506 23.4474V21.0667C37.8506 21.0169 37.8308 20.9692 37.7957 20.9341C37.7605 20.8989 37.7128 20.8792 37.6631 20.8792Z" fill="#FF3636"/>
<path d="M17.9625 20.2021H15.3438C15.2194 20.2021 15.1002 20.1528 15.0123 20.0649C14.9244 19.9769 14.875 19.8577 14.875 19.7334C14.875 19.6091 14.9244 19.4898 15.0123 19.4019C15.1002 19.314 15.2194 19.2646 15.3438 19.2646H17.9625C18.0868 19.2646 18.206 19.314 18.294 19.4019C18.3819 19.4898 18.4313 19.6091 18.4313 19.7334C18.4313 19.8577 18.3819 19.9769 18.294 20.0649C18.206 20.1528 18.0868 20.2021 17.9625 20.2021ZM17.9625 22.0771H14.4062C14.2819 22.0771 14.1627 22.0278 14.0748 21.9399C13.9869 21.8519 13.9375 21.7327 13.9375 21.6084C13.9375 21.4841 13.9869 21.3648 14.0748 21.2769C14.1627 21.189 14.2819 21.1396 14.4062 21.1396H17.9625C18.0868 21.1396 18.206 21.189 18.294 21.2769C18.3819 21.3648 18.4313 21.4841 18.4313 21.6084C18.4313 21.7327 18.3819 21.8519 18.294 21.9399C18.206 22.0278 18.0868 22.0771 17.9625 22.0771ZM17.9625 23.9521H13.4688C13.3444 23.9521 13.2252 23.9028 13.1373 23.8149C13.0494 23.7269 13 23.6077 13 23.4834C13 23.3591 13.0494 23.2398 13.1373 23.1519C13.2252 23.064 13.3444 23.0146 13.4688 23.0146H17.9625C18.0868 23.0146 18.206 23.064 18.294 23.1519C18.3819 23.2398 18.4313 23.3591 18.4313 23.4834C18.4313 23.6077 18.3819 23.7269 18.294 23.8149C18.206 23.9028 18.0868 23.9521 17.9625 23.9521Z" fill="#CED0D8"/>
<path d="M29.5524 25.0266H22.4581C21.9861 25.0266 21.6035 25.4092 21.6035 25.8811C21.6035 26.3531 21.9861 26.7357 22.4581 26.7357H29.5524C30.0244 26.7357 30.407 26.3531 30.407 25.8811C30.407 25.4092 30.0244 25.0266 29.5524 25.0266Z" fill="#4A4F60"/>
<path d="M29.5522 25.0266H27.6772C27.7901 25.0257 27.902 25.0471 28.0065 25.0896C28.111 25.1321 28.2061 25.1949 28.2862 25.2743C28.3664 25.3538 28.43 25.4483 28.4734 25.5525C28.5168 25.6566 28.5391 25.7683 28.5391 25.8812C28.5391 25.994 28.5168 26.1057 28.4734 26.2099C28.43 26.314 28.3664 26.4086 28.2862 26.488C28.2061 26.5675 28.111 26.6303 28.0065 26.6728C27.902 26.7153 27.7901 26.7367 27.6772 26.7357H29.5522C29.6651 26.7367 29.777 26.7153 29.8815 26.6728C29.986 26.6303 30.0811 26.5675 30.1612 26.488C30.2414 26.4086 30.305 26.314 30.3484 26.2099C30.3918 26.1057 30.4141 25.994 30.4141 25.8812C30.4141 25.7683 30.3918 25.6566 30.3484 25.5525C30.305 25.4483 30.2414 25.3538 30.1612 25.2743C30.0811 25.1949 29.986 25.1321 29.8815 25.0896C29.777 25.0471 29.6651 25.0257 29.5522 25.0266Z" fill="#3B3F4D"/>
<path d="M44.5312 38.3438H13.4688C13.3444 38.3438 13.2252 38.2944 13.1373 38.2065C13.0494 38.1185 13 37.9993 13 37.875C13 37.7507 13.0494 37.6315 13.1373 37.5435C13.2252 37.4556 13.3444 37.4062 13.4688 37.4062H44.5312C44.6556 37.4062 44.7748 37.4556 44.8627 37.5435C44.9506 37.6315 45 37.7507 45 37.875C45 37.9993 44.9506 38.1185 44.8627 38.2065C44.7748 38.2944 44.6556 38.3438 44.5312 38.3438Z" fill="#ABB0BF"/>
</g>
</g>
<defs>
<filter id="filter0_dd_42_35213" x="0" y="0" width="58" height="58" filterUnits="userSpaceOnUse" color-interpolation-filters="sRGB">
<feFlood flood-opacity="0" result="BackgroundImageFix"/>
<feColorMatrix in="SourceAlpha" type="matrix" values="0 0 0 0 0 0 0 0 0 0 0 0 0 0 0 0 0 0 127 0" result="hardAlpha"/>
<feMorphology radius="1" operator="erode" in="SourceAlpha" result="effect1_dropShadow_42_35213"/>
<feOffset dy="1"/>
<feGaussianBlur stdDeviation="1"/>
<feComposite in2="hardAlpha" operator="out"/>
<feColorMatrix type="matrix" values="0 0 0 0 0.0627451 0 0 0 0 0.0941176 0 0 0 0 0.156863 0 0 0 0.1 0"/>
<feBlend mode="normal" in2="BackgroundImageFix" result="effect1_dropShadow_42_35213"/>
<feColorMatrix in="SourceAlpha" type="matrix" values="0 0 0 0 0 0 0 0 0 0 0 0 0 0 0 0 0 0 127 0" result="hardAlpha"/>
<feOffset dy="1"/>
<feGaussianBlur stdDeviation="1.5"/>
<feComposite in2="hardAlpha" operator="out"/>
<feColorMatrix type="matrix" values="0 0 0 0 0 0 0 0 0 0 0 0 0 0 0 0 0 0 0.1 0"/>
<feBlend mode="normal" in2="effect1_dropShadow_42_35213" result="effect2_dropShadow_42_35213"/>
<feBlend mode="normal" in="SourceGraphic" in2="effect2_dropShadow_42_35213" result="shape"/>
</filter>
<clipPath id="clip0_42_35213">
<rect width="32" height="32" fill="white" transform="translate(13 12)"/>
</clipPath>
</defs>
</svg>
