<svg width="24" height="24" viewBox="0 0 24 24" fill="none" xmlns="http://www.w3.org/2000/svg">
<path fill-rule="evenodd" clip-rule="evenodd" d="M21 3H3V21H21V3ZM16.4185 8.39643C16.0071 8.14006 15.516 8.00165 15.0121 8.00001C15.0131 8 15.014 8 15.015 8H15.0098C15.0106 8 15.0114 8 15.0121 8.00001C14.3619 8.00186 13.7389 8.23034 13.279 8.63564C12.8185 9.04153 12.5592 9.59169 12.5578 10.1657C12.5632 10.4973 12.6492 10.824 12.8102 11.1237C12.9968 11.4536 13.2751 11.7366 13.6192 11.9462C13.9632 12.1557 14.3619 12.2851 14.778 12.3223C14.9532 13.5981 14.0208 13.9523 13.9796 13.9523C13.9298 13.9681 13.8868 13.9971 13.8564 14.0353C13.8259 14.0735 13.8096 14.119 13.8096 14.1657V15.7547C13.8096 15.8149 13.8367 15.8727 13.885 15.9153C13.9333 15.9578 13.9988 15.9818 14.0671 15.9818C14.1011 15.9879 14.1362 15.9879 14.1702 15.9818C17.8378 14.5561 17.5288 10.7423 17.4669 10.2247V10.1657C17.4577 9.91655 17.4056 9.67009 17.3124 9.43472C17.1428 9.01579 16.8306 8.6532 16.4185 8.39643ZM7.83749 15.9334C7.88579 15.976 7.9513 15.9999 8.01961 15.9999C8.05673 16.0008 8.09363 15.9946 8.12779 15.9818C8.34771 15.8957 8.56108 15.7971 8.76654 15.6866C8.96601 15.5801 9.15704 15.4618 9.33832 15.3325C9.61321 15.1355 9.86358 14.9133 10.0852 14.6696C10.4677 14.2492 10.7703 13.7769 10.9816 13.2712C11.1162 12.9539 11.2213 12.6274 11.2958 12.2951C11.3018 12.2702 11.308 12.2449 11.3143 12.2193C11.362 12.0251 11.4143 11.8122 11.4143 11.6277C11.4734 11.1417 11.4734 10.6516 11.4143 10.1657C11.4142 9.74589 11.2758 9.33513 11.0157 8.98341C10.7557 8.6317 10.3852 8.35418 9.94949 8.18463C9.51375 8.01508 9.0315 7.96081 8.56141 8.02842C8.09132 8.09603 7.65366 8.28261 7.30169 8.56545C6.94971 8.84829 6.69858 9.2152 6.57887 9.62154C6.45916 10.0279 6.47602 10.4561 6.6274 10.8542C6.77879 11.2522 7.05817 11.6029 7.43154 11.8636C7.80492 12.1242 8.2562 12.2836 8.73048 12.3223C8.90562 13.5981 7.97325 13.9523 7.93204 13.9523C7.88226 13.9681 7.83924 13.9971 7.80882 14.0353C7.7784 14.0735 7.76207 14.119 7.76205 14.1657V15.7729C7.76205 15.8331 7.78919 15.8909 7.83749 15.9334Z" fill="#111414"/>
</svg>
