<svg width="58" height="58" viewBox="0 0 58 58" fill="none" xmlns="http://www.w3.org/2000/svg">
<g filter="url(#filter0_dd_42_36197)">
<rect x="3" y="2" width="52" height="52" rx="8" fill="white" shape-rendering="crispEdges"/>
<path d="M19.4312 38.0049H39.5005C39.7759 38.0049 40 37.7815 40 37.5054V16.4999C40 16.2237 39.7759 16 39.5005 16H19.9996C18.895 16 18 16.8954 18 17.9999V38.5001C18 39.3284 18.6717 40 19.5 40H39.5005C39.7759 40 40 39.7759 40 39.5005C40 39.2236 39.7759 38.9995 39.5005 38.9995H19.5C19.2239 38.9995 18.9998 38.7754 18.9998 38.5001C18.9998 38.2481 19.188 38.0386 19.4312 38.0049Z" fill="#FF6666"/>
<path opacity="0.2" d="M39.334 16H38C38.3691 16 38.668 16.2237 38.668 16.4998V37.5006C38.668 37.7767 38.3691 38 38 38H39.334C39.7012 38 40 37.7766 40 37.5006V16.4998C40 16.2237 39.7012 16 39.334 16Z" fill="#FF9B9B"/>
<path d="M28.9995 31.7625C28.9279 31.7624 28.857 31.7747 28.7909 31.7986C28.7248 31.8225 28.6647 31.8576 28.6141 31.9017C28.5635 31.9459 28.5233 31.9984 28.496 32.0561C28.4686 32.1139 28.4545 32.1757 28.4546 32.2382C28.4538 32.5012 28.6983 32.714 28.9995 32.714C29.3006 32.714 29.5452 32.5012 29.5452 32.2382C29.5452 31.9753 29.3007 31.7625 28.9995 31.7625ZM26.8175 31.7625C26.693 31.7621 26.5722 31.7994 26.4755 31.8678V31.8671C26.4739 31.8685 26.3173 31.9717 26.1192 32.0206C25.8867 32.0792 25.7181 32.0429 25.5543 31.9006C25.1093 31.5141 24.5316 31.3857 23.9276 31.5406C23.5225 31.6438 23.2357 31.8434 23.199 31.8699C23.199 31.8706 23.1981 31.8713 23.1981 31.8713H23.1973C23.0767 31.9592 23 32.0903 23 32.2382C23 32.5012 23.2445 32.714 23.5449 32.714C23.6775 32.714 23.799 32.6735 23.8932 32.6051C23.8948 32.6038 24.0435 32.5033 24.2335 32.4545C24.4564 32.3979 24.621 32.4335 24.784 32.5759C25.106 32.8549 25.4991 33 25.9242 33C26.0856 33 26.2517 32.9791 26.4203 32.9365C26.8342 32.8326 27.1282 32.6317 27.1602 32.6093C27.284 32.5214 27.3631 32.3882 27.3631 32.2382C27.3632 31.9752 27.1195 31.7625 26.8175 31.7625ZM34.8019 31.8713C34.8003 31.8713 34.8003 31.8706 34.8003 31.8699C34.762 31.8434 34.476 31.6439 34.0717 31.5406C33.4677 31.3857 32.8892 31.5141 32.445 31.9006C32.2868 32.0387 32.1238 32.0764 31.9033 32.0261C31.6891 31.9787 31.5214 31.8657 31.5198 31.865L31.523 31.8671V31.8678C31.4303 31.8015 31.3105 31.7625 31.181 31.7625C30.8806 31.7625 30.6361 31.9753 30.6361 32.2382C30.6361 32.3882 30.716 32.5215 30.8391 32.6093C30.871 32.6317 31.1651 32.8326 31.5789 32.9365C31.7467 32.9791 31.9129 33 32.0743 33C32.4993 33 32.894 32.8549 33.2152 32.5759C33.3718 32.4384 33.53 32.4007 33.7425 32.4489C33.9486 32.4963 34.1084 32.6065 34.1101 32.6079L34.1069 32.6065C34.2049 32.6761 34.3273 32.714 34.4536 32.7139C34.5252 32.714 34.5961 32.7018 34.6623 32.6779C34.7284 32.654 34.7885 32.619 34.8391 32.5748C34.8897 32.5306 34.9299 32.4781 34.9572 32.4204C34.9846 32.3626 34.9986 32.3007 34.9985 32.2382C34.9984 32.0904 34.9217 31.9592 34.8019 31.8713ZM28.9995 21.285C28.6982 21.285 28.4546 21.4985 28.4546 21.7614C28.4546 22.0244 28.6983 22.2375 28.9995 22.2375C29.3006 22.2375 29.5452 22.0244 29.5452 21.7614C29.5452 21.4985 29.3007 21.285 28.9995 21.285ZM31.181 22.2375C31.3104 22.2375 31.4302 22.1978 31.523 22.1319V22.1322C31.5245 22.1312 31.6812 22.0283 31.8793 21.9784C32.1126 21.9201 32.282 21.9561 32.445 22.0987C32.7661 22.3785 33.1577 22.5229 33.5779 22.5229C33.7393 22.5229 33.9039 22.5016 34.0717 22.459C34.4776 22.3555 34.7635 22.1556 34.8003 22.129C34.8003 22.129 34.8003 22.1287 34.8019 22.1283V22.128C34.9217 22.0404 35 21.9086 35 21.7614C35 21.4984 34.7555 21.285 34.4535 21.285C34.3209 21.285 34.1994 21.3261 34.1052 21.3945C34.1052 21.3955 33.955 21.496 33.7648 21.5448C33.5427 21.6016 33.3782 21.5654 33.2151 21.4238C32.7709 21.038 32.1893 20.91 31.5788 21.0631C31.165 21.1667 30.871 21.3679 30.839 21.3906C30.716 21.4781 30.6361 21.6114 30.6361 21.7613C30.6361 22.0244 30.8806 22.2375 31.181 22.2375ZM27.1603 21.3907C27.1283 21.368 26.8343 21.1668 26.4204 21.0632C25.8092 20.9097 25.2283 21.0381 24.7841 21.4238C24.6267 21.5609 24.4685 21.599 24.2568 21.5505C24.0515 21.5034 23.8917 21.3932 23.8901 21.3921L23.8917 21.3935C23.7943 21.3233 23.672 21.285 23.5458 21.285C23.2445 21.285 23.0001 21.4985 23.0001 21.7614C23.0001 21.9086 23.0768 22.0405 23.1974 22.128C23.1974 22.128 23.1982 22.1284 23.1982 22.1287C23.1982 22.1287 23.1982 22.1291 23.199 22.1291C23.235 22.1553 23.5218 22.3551 23.9277 22.4591C24.0947 22.5016 24.26 22.5229 24.4206 22.5229C24.8417 22.5229 25.2324 22.3785 25.5544 22.0988C25.7126 21.9606 25.8748 21.9233 26.0969 21.9732C26.311 22.0214 26.4771 22.1333 26.4787 22.1347L26.4756 22.1323V22.1319C26.5723 22.2003 26.693 22.2377 26.8176 22.2376C27.1196 22.2376 27.3633 22.0245 27.3633 21.7615C27.3633 21.6903 27.3451 21.6201 27.31 21.5559C27.2749 21.4918 27.2237 21.4353 27.1603 21.3907Z" fill="#E74646"/>
<path d="M23.7052 25C23.5447 25 23.4012 25.0681 23.3043 25.1747L22.117 26.2955L20.9313 25.1751C20.8336 25.0681 20.6901 25 20.5288 25C20.2373 25 20 25.2238 20 25.4999V28.4994C20 28.7758 20.2373 29 20.5288 29C20.822 29 21.0585 28.7759 21.0585 28.4994V26.7096L21.7433 27.3559C21.7923 27.4024 21.8505 27.4393 21.9147 27.4644C21.9788 27.4895 22.0476 27.5024 22.117 27.5024C22.2636 27.5024 22.3962 27.4464 22.4916 27.3559L23.1763 26.7096V28.4994C23.1763 28.7758 23.4136 29 23.7052 29C23.9983 29 24.2349 28.7759 24.2349 28.4994V25.4999C24.2349 25.2238 23.9983 25 23.7052 25ZM33.2355 25.4999C33.2355 25.2238 32.9982 25 32.705 25C32.4134 25 32.1761 25.2238 32.1761 25.4999V27.1186L30.4654 25.1798C30.4155 25.1235 30.3531 25.0781 30.2827 25.0471C30.2122 25.016 30.1353 25 30.0575 25.0001C29.7663 25.0001 29.529 25.2238 29.529 25.4999V28.4994C29.529 28.7759 29.7663 29 30.0575 29C30.3506 29 30.5879 28.7759 30.5879 28.4994V26.8807L32.2987 28.8198C32.3964 28.9297 32.5421 29 32.705 29C32.9982 29 33.2355 28.7759 33.2355 28.4994L33.234 28.4991V25.5006C33.2339 25.5002 33.2355 25.5002 33.2355 25.4999ZM38 25.4999C38 25.2238 37.7627 25 37.4695 25C37.1779 25 36.9407 25.2238 36.9407 25.4999V27.2496C36.9407 27.663 36.5839 27.9995 36.1466 27.9995C35.7092 27.9995 35.3524 27.663 35.3524 27.2496V25.4998C35.3524 25.2237 35.1152 25 34.8236 25C34.5305 25 34.2932 25.2237 34.2932 25.4998V27.2496C34.2932 28.2159 35.1229 28.9999 36.1466 28.9999C37.1702 28.9999 37.9984 28.2159 37.9984 27.2496V25.5006C37.9984 25.5002 38 25.5002 38 25.4999ZM27.9409 26C28.2333 26 28.4697 25.7759 28.4697 25.4998C28.4697 25.2237 28.2332 25 27.9409 25H25.823C25.5307 25 25.2942 25.2237 25.2942 25.4998H25.2934V28.4993H25.2942C25.2942 28.7758 25.5307 28.9999 25.823 28.9999H27.9409C28.2333 28.9999 28.4697 28.7758 28.4697 28.4993C28.4697 28.2232 28.2332 27.9995 27.9409 27.9995H26.3527V27.4997H27.4112C27.7036 27.4997 27.9409 27.2757 27.9409 26.9996C27.9409 26.7235 27.7036 26.4998 27.4112 26.4998H26.3527V26H27.9409Z" fill="#FFE966"/>
<path fill-rule="evenodd" clip-rule="evenodd" d="M19.5 38C19.2239 38 19 38.2239 19 38.5C19 38.7761 19.2239 39 19.5 39H39.5C39.2239 39 39 38.7761 39 38.5C39 38.2239 39.2239 38 39.5 38H19.5Z" fill="#E6E9ED"/>
</g>
<defs>
<filter id="filter0_dd_42_36197" x="0" y="0" width="58" height="58" filterUnits="userSpaceOnUse" color-interpolation-filters="sRGB">
<feFlood flood-opacity="0" result="BackgroundImageFix"/>
<feColorMatrix in="SourceAlpha" type="matrix" values="0 0 0 0 0 0 0 0 0 0 0 0 0 0 0 0 0 0 127 0" result="hardAlpha"/>
<feMorphology radius="1" operator="erode" in="SourceAlpha" result="effect1_dropShadow_42_36197"/>
<feOffset dy="1"/>
<feGaussianBlur stdDeviation="1"/>
<feComposite in2="hardAlpha" operator="out"/>
<feColorMatrix type="matrix" values="0 0 0 0 0.0627451 0 0 0 0 0.0941176 0 0 0 0 0.156863 0 0 0 0.1 0"/>
<feBlend mode="normal" in2="BackgroundImageFix" result="effect1_dropShadow_42_36197"/>
<feColorMatrix in="SourceAlpha" type="matrix" values="0 0 0 0 0 0 0 0 0 0 0 0 0 0 0 0 0 0 127 0" result="hardAlpha"/>
<feOffset dy="1"/>
<feGaussianBlur stdDeviation="1.5"/>
<feComposite in2="hardAlpha" operator="out"/>
<feColorMatrix type="matrix" values="0 0 0 0 0 0 0 0 0 0 0 0 0 0 0 0 0 0 0.1 0"/>
<feBlend mode="normal" in2="effect1_dropShadow_42_36197" result="effect2_dropShadow_42_36197"/>
<feBlend mode="normal" in="SourceGraphic" in2="effect2_dropShadow_42_36197" result="shape"/>
</filter>
</defs>
</svg>
