<svg width="58" height="58" viewBox="0 0 58 58" fill="none" xmlns="http://www.w3.org/2000/svg">
<g filter="url(#filter0_dd_42_36208)">
<rect x="3" y="2" width="52" height="52" rx="8" fill="white" shape-rendering="crispEdges"/>
<path d="M38 27.9625V37.0971C38 37.3366 37.907 37.5662 37.7414 37.7355C37.5758 37.9049 37.3513 38 37.1171 38H20.8829C20.6487 38 20.4242 37.9049 20.2586 37.7355C20.093 37.5662 20 37.3366 20 37.0971V27.9625L28.3388 18.3044C28.4217 18.2087 28.5235 18.1321 28.6374 18.0796C28.7514 18.0271 28.8749 18 28.9999 18C29.1249 18 29.2484 18.0271 29.3624 18.0796C29.4763 18.1321 29.5781 18.2087 29.6609 18.3044L38 27.9625Z" fill="url(#paint0_linear_42_36208)"/>
<path d="M22.3332 35.3333C23.8059 35.3333 24.9998 34.1394 24.9998 32.6667C24.9998 31.1939 23.8059 30 22.3332 30C20.8604 30 19.6665 31.1939 19.6665 32.6667C19.6665 34.1394 20.8604 35.3333 22.3332 35.3333Z" fill="#009DF5"/>
<path d="M22.3333 35.3333C20.9188 35.3333 19.5623 35.9654 18.5621 37.0906C17.5619 38.2158 17 39.742 17 41.3333H27.6667C27.6667 39.742 27.1048 38.2158 26.1046 37.0906C25.1044 35.9654 23.7478 35.3333 22.3333 35.3333Z" fill="#09B5FF"/>
<path d="M35.6667 35.3333C37.1394 35.3333 38.3333 34.1394 38.3333 32.6667C38.3333 31.1939 37.1394 30 35.6667 30C34.1939 30 33 31.1939 33 32.6667C33 34.1394 34.1939 35.3333 35.6667 35.3333Z" fill="#09B5FF"/>
<path d="M35.6668 35.3333C34.2523 35.3333 32.8958 35.9654 31.8956 37.0906C30.8954 38.2158 30.3335 39.742 30.3335 41.3333H41.0002C41.0002 39.742 40.4383 38.2158 39.4381 37.0906C38.4379 35.9654 37.0813 35.3333 35.6668 35.3333Z" fill="#009DF5"/>
<path d="M29.0002 37.9998C29.9206 37.9998 30.6668 37.2536 30.6668 36.3332C30.6668 35.4127 29.9206 34.6665 29.0002 34.6665C28.0797 34.6665 27.3335 35.4127 27.3335 36.3332C27.3335 37.2536 28.0797 37.9998 29.0002 37.9998Z" fill="#38C3FF"/>
<path d="M29 37.9998C28.2044 37.9998 27.4413 38.3509 26.8787 38.9761C26.3161 39.6012 26 40.449 26 41.3331H32C32 40.449 31.6839 39.6012 31.1213 38.9761C30.5587 38.3509 29.7956 37.9998 29 37.9998Z" fill="#6AD2FF"/>
<path fill-rule="evenodd" clip-rule="evenodd" d="M29 15C29.4075 15 29.7977 15.1672 30.0827 15.4638L40.5681 26.3791C41.153 26.988 41.1425 27.9645 40.5446 28.5602C39.9466 29.1558 38.9877 29.1451 38.4028 28.5362L29 18.748L19.5972 28.5362C19.0123 29.1451 18.0534 29.1558 17.4554 28.5602C16.8575 27.9645 16.847 26.988 17.4319 26.3791L27.9173 15.4638C28.2023 15.1672 28.5925 15 29 15Z" fill="#17C7D0"/>
<path d="M18.5386 16.1314L19.7512 16.7501L18.5386 17.3688L17.8754 18.5001L17.2126 17.3688L16 16.7501L17.2126 16.1314L17.8754 15L18.5386 16.1314ZM40.7874 19.6312L42 20.2502L40.7874 20.8689L40.1243 22L39.4614 20.8689L38.2488 20.2502L39.4614 19.6312L40.1243 18.5001L40.7874 19.6312Z" fill="#FFE966"/>
</g>
<defs>
<filter id="filter0_dd_42_36208" x="0" y="0" width="58" height="58" filterUnits="userSpaceOnUse" color-interpolation-filters="sRGB">
<feFlood flood-opacity="0" result="BackgroundImageFix"/>
<feColorMatrix in="SourceAlpha" type="matrix" values="0 0 0 0 0 0 0 0 0 0 0 0 0 0 0 0 0 0 127 0" result="hardAlpha"/>
<feMorphology radius="1" operator="erode" in="SourceAlpha" result="effect1_dropShadow_42_36208"/>
<feOffset dy="1"/>
<feGaussianBlur stdDeviation="1"/>
<feComposite in2="hardAlpha" operator="out"/>
<feColorMatrix type="matrix" values="0 0 0 0 0.0627451 0 0 0 0 0.0941176 0 0 0 0 0.156863 0 0 0 0.1 0"/>
<feBlend mode="normal" in2="BackgroundImageFix" result="effect1_dropShadow_42_36208"/>
<feColorMatrix in="SourceAlpha" type="matrix" values="0 0 0 0 0 0 0 0 0 0 0 0 0 0 0 0 0 0 127 0" result="hardAlpha"/>
<feOffset dy="1"/>
<feGaussianBlur stdDeviation="1.5"/>
<feComposite in2="hardAlpha" operator="out"/>
<feColorMatrix type="matrix" values="0 0 0 0 0 0 0 0 0 0 0 0 0 0 0 0 0 0 0.1 0"/>
<feBlend mode="normal" in2="effect1_dropShadow_42_36208" result="effect2_dropShadow_42_36208"/>
<feBlend mode="normal" in="SourceGraphic" in2="effect2_dropShadow_42_36208" result="shape"/>
</filter>
<linearGradient id="paint0_linear_42_36208" x1="29" y1="32.5" x2="29" y2="38" gradientUnits="userSpaceOnUse">
<stop stop-color="#D1F4F6"/>
<stop offset="1" stop-color="#D1F4F6" stop-opacity="0"/>
</linearGradient>
</defs>
</svg>
