<svg width="58" height="58" viewBox="0 0 58 58" fill="none" xmlns="http://www.w3.org/2000/svg">
<g filter="url(#filter0_dd_42_35451)">
<rect x="3" y="2" width="52" height="52" rx="8" fill="white" shape-rendering="crispEdges"/>
<path d="M28.5 19H29.5V21.5H28.5V19ZM35 35H17L19 37H39L41 35H35Z" fill="#676E87"/>
<path d="M35 35H14.5V33H43.5V35H35Z" fill="#CED0D8"/>
<path d="M41 33C41 29.8174 39.7357 26.7652 37.4853 24.5147C35.2348 22.2643 32.1826 21 29 21C25.8174 21 22.7652 22.2643 20.5147 24.5147C18.2643 26.7652 17 29.8174 17 33H41Z" fill="#ABB0BF"/>
<path d="M38.8 31.5C38.6848 31.4999 38.5732 31.4601 38.484 31.3872C38.3948 31.3143 38.3335 31.2129 38.3105 31.1C37.8668 28.9569 36.6993 27.0318 35.0039 25.6479C33.3085 24.2639 31.1885 23.5055 29 23.5C28.8674 23.5 28.7402 23.4473 28.6464 23.3536C28.5527 23.2598 28.5 23.1326 28.5 23C28.5 22.8674 28.5527 22.7402 28.6464 22.6464C28.7402 22.5527 28.8674 22.5 29 22.5C31.4187 22.5063 33.7615 23.3446 35.6351 24.8742C37.5086 26.4038 38.7988 28.5315 39.289 30.9C39.3038 30.9726 39.3023 31.0475 39.2846 31.1194C39.2669 31.1914 39.2335 31.2585 39.1867 31.3159C39.1399 31.3733 39.0809 31.4196 39.0141 31.4514C38.9472 31.4833 38.8741 31.4999 38.8 31.5Z" fill="#CED0D8"/>
<path d="M30 17.5H28C27.4477 17.5 27 17.9477 27 18.5C27 19.0523 27.4477 19.5 28 19.5H30C30.5523 19.5 31 19.0523 31 18.5C31 17.9477 30.5523 17.5 30 17.5Z" fill="#ABB0BF"/>
</g>
<defs>
<filter id="filter0_dd_42_35451" x="0" y="0" width="58" height="58" filterUnits="userSpaceOnUse" color-interpolation-filters="sRGB">
<feFlood flood-opacity="0" result="BackgroundImageFix"/>
<feColorMatrix in="SourceAlpha" type="matrix" values="0 0 0 0 0 0 0 0 0 0 0 0 0 0 0 0 0 0 127 0" result="hardAlpha"/>
<feMorphology radius="1" operator="erode" in="SourceAlpha" result="effect1_dropShadow_42_35451"/>
<feOffset dy="1"/>
<feGaussianBlur stdDeviation="1"/>
<feComposite in2="hardAlpha" operator="out"/>
<feColorMatrix type="matrix" values="0 0 0 0 0.0627451 0 0 0 0 0.0941176 0 0 0 0 0.156863 0 0 0 0.1 0"/>
<feBlend mode="normal" in2="BackgroundImageFix" result="effect1_dropShadow_42_35451"/>
<feColorMatrix in="SourceAlpha" type="matrix" values="0 0 0 0 0 0 0 0 0 0 0 0 0 0 0 0 0 0 127 0" result="hardAlpha"/>
<feOffset dy="1"/>
<feGaussianBlur stdDeviation="1.5"/>
<feComposite in2="hardAlpha" operator="out"/>
<feColorMatrix type="matrix" values="0 0 0 0 0 0 0 0 0 0 0 0 0 0 0 0 0 0 0.1 0"/>
<feBlend mode="normal" in2="effect1_dropShadow_42_35451" result="effect2_dropShadow_42_35451"/>
<feBlend mode="normal" in="SourceGraphic" in2="effect2_dropShadow_42_35451" result="shape"/>
</filter>
</defs>
</svg>
