<svg width="58" height="58" viewBox="0 0 58 58" fill="none" xmlns="http://www.w3.org/2000/svg">
<g filter="url(#filter0_dd_279_5818)">
<rect x="3" y="2" width="52" height="52" rx="8" fill="white" shape-rendering="crispEdges"/>
<path d="M24.1111 17.1111H33.8889V25.3333H24.1111L24.1111 17.1111Z" fill="#FFE193"/>
<path fill-rule="evenodd" clip-rule="evenodd" d="M32.5556 18.4444H25.4445L25.4445 24H32.5556L32.5556 18.4444ZM24.1111 25.3333V17.1111H33.8889V25.3333H24.1111Z" fill="#FFDD8C"/>
<rect x="25" y="21.3335" width="3.11111" height="4" fill="#FFBD5A"/>
<path fill-rule="evenodd" clip-rule="evenodd" d="M26.7778 22.889C26.7778 22.7662 26.8773 22.6667 27 22.6667H27.2222C27.3449 22.6667 27.4444 22.7662 27.4444 22.889C27.4444 23.0117 27.3449 23.1112 27.2222 23.1112V23.5556C27.3449 23.5556 27.4444 23.6551 27.4444 23.7779C27.4444 23.9006 27.3449 24.0001 27.2222 24.0001H27C26.8773 24.0001 26.7778 23.9006 26.7778 23.7779V22.889Z" fill="white"/>
<rect x="29" y="20.8889" width="3.55556" height="2.22222" fill="#FFF3D4"/>
<path d="M24.5556 14.6667L23.6667 17.7779H34.3334L33.4445 14.6667H24.5556Z" fill="#FF6666"/>
<path opacity="0.7" d="M25.8889 14.6667L25.8011 17.7779H32.1999L32.1111 14.6667H25.8889Z" fill="#FFC0C0"/>
<path d="M28.1112 14.6667L27.9332 17.7779H30.0666L29.8889 14.6667H28.1112Z" fill="#FF6666"/>
<path d="M32.2 17.7778H34.3333V18.0445C34.3333 18.6336 33.8558 19.1112 33.2667 19.1112C32.6776 19.1112 32.2 18.6336 32.2 18.0445V17.7778Z" fill="#E74646"/>
<path d="M30.0667 17.7778H32.2V18.0445C32.2 18.6336 31.7225 19.1112 31.1334 19.1112C30.5443 19.1112 30.0667 18.6336 30.0667 18.0445V17.7778Z" fill="#E74646"/>
<path d="M27.9333 17.7778H30.0667V18.0445C30.0667 18.6336 29.5891 19.1112 29 19.1112C28.4109 19.1112 27.9333 18.6336 27.9333 18.0445V17.7778Z" fill="#E74646"/>
<path d="M25.8 17.7778H27.9333V18.0445C27.9333 18.6336 27.4558 19.1112 26.8667 19.1112C26.2776 19.1112 25.8 18.6336 25.8 18.0445V17.7778Z" fill="#E74646"/>
<path d="M23.6667 17.7778H25.8V18.0445C25.8 18.6336 25.3225 19.1112 24.7334 19.1112C24.1442 19.1112 23.6667 18.6336 23.6667 18.0445V17.7778Z" fill="#E74646"/>
<path d="M16.1111 33.1111H25.8889V41.3333H16.1111L16.1111 33.1111Z" fill="#FFE193"/>
<path fill-rule="evenodd" clip-rule="evenodd" d="M24.5555 34.4444H17.4444L17.4444 40H24.5555L24.5555 34.4444ZM16.1111 41.3333V33.1111H25.8889V41.3333H16.1111Z" fill="#FFDD8C"/>
<rect x="17" y="37.3335" width="3.11111" height="4" fill="#FFBD5A"/>
<path fill-rule="evenodd" clip-rule="evenodd" d="M18.7778 38.889C18.7778 38.7662 18.8773 38.6667 19 38.6667H19.2222C19.3449 38.6667 19.4444 38.7662 19.4444 38.889C19.4444 39.0117 19.3449 39.1112 19.2222 39.1112V39.5556C19.3449 39.5556 19.4444 39.6551 19.4444 39.7779C19.4444 39.9006 19.3449 40.0001 19.2222 40.0001H19C18.8773 40.0001 18.7778 39.9006 18.7778 39.7779V38.889Z" fill="white"/>
<rect x="21" y="36.8892" width="3.55556" height="2.22222" fill="#FFF3D4"/>
<path d="M16.5556 30.6667L15.6667 33.7779H26.3334L25.4445 30.6667H16.5556Z" fill="#FF6666"/>
<path opacity="0.7" d="M17.8889 30.6667L17.8011 33.7779H24.1999L24.1111 30.6667H17.8889Z" fill="#FFC0C0"/>
<path d="M20.1112 30.6667L19.9332 33.7779H22.0666L21.8889 30.6667H20.1112Z" fill="#FF6666"/>
<path d="M24.2 33.7778H26.3333V34.0445C26.3333 34.6336 25.8558 35.1112 25.2667 35.1112C24.6776 35.1112 24.2 34.6336 24.2 34.0445V33.7778Z" fill="#E74646"/>
<path d="M22.0667 33.7778H24.2V34.0445C24.2 34.6336 23.7225 35.1112 23.1334 35.1112C22.5443 35.1112 22.0667 34.6336 22.0667 34.0445V33.7778Z" fill="#E74646"/>
<path d="M19.9333 33.7778H22.0667V34.0445C22.0667 34.6336 21.5891 35.1112 21 35.1112C20.4109 35.1112 19.9333 34.6336 19.9333 34.0445V33.7778Z" fill="#E74646"/>
<path d="M17.8 33.7778H19.9333V34.0445C19.9333 34.6336 19.4558 35.1112 18.8667 35.1112C18.2776 35.1112 17.8 34.6336 17.8 34.0445V33.7778Z" fill="#E74646"/>
<path d="M15.6667 33.7778H17.8V34.0445C17.8 34.6336 17.3225 35.1112 16.7334 35.1112C16.1442 35.1112 15.6667 34.6336 15.6667 34.0445V33.7778Z" fill="#E74646"/>
<path d="M32.1111 33.1111H41.8889V41.3333H32.1111L32.1111 33.1111Z" fill="#FFE193"/>
<path fill-rule="evenodd" clip-rule="evenodd" d="M40.5556 34.4444H33.4445L33.4445 40H40.5556L40.5556 34.4444ZM32.1111 41.3333V33.1111H41.8889V41.3333H32.1111Z" fill="#FFDD8C"/>
<rect x="33" y="37.3335" width="3.11111" height="4" fill="#FFBD5A"/>
<path fill-rule="evenodd" clip-rule="evenodd" d="M34.7778 38.889C34.7778 38.7662 34.8773 38.6667 35 38.6667H35.2222C35.3449 38.6667 35.4444 38.7662 35.4444 38.889C35.4444 39.0117 35.3449 39.1112 35.2222 39.1112V39.5556C35.3449 39.5556 35.4444 39.6551 35.4444 39.7779C35.4444 39.9006 35.3449 40.0001 35.2222 40.0001H35C34.8773 40.0001 34.7778 39.9006 34.7778 39.7779V38.889Z" fill="white"/>
<rect x="37" y="36.8889" width="3.55556" height="2.22222" fill="#FFF3D4"/>
<path d="M32.5556 30.6667L31.6667 33.7779H42.3334L41.4445 30.6667H32.5556Z" fill="#FF6666"/>
<path opacity="0.7" d="M33.8889 30.6667L33.8011 33.7779H40.1999L40.1111 30.6667H33.8889Z" fill="#FFC0C0"/>
<path d="M36.1112 30.6667L35.9332 33.7779H38.0666L37.8889 30.6667H36.1112Z" fill="#FF6666"/>
<path d="M40.2 33.7778H42.3333V34.0445C42.3333 34.6336 41.8558 35.1112 41.2667 35.1112C40.6776 35.1112 40.2 34.6336 40.2 34.0445V33.7778Z" fill="#E74646"/>
<path d="M38.0667 33.7778H40.2V34.0445C40.2 34.6336 39.7225 35.1112 39.1334 35.1112C38.5443 35.1112 38.0667 34.6336 38.0667 34.0445V33.7778Z" fill="#E74646"/>
<path d="M35.9333 33.7778H38.0667V34.0445C38.0667 34.6336 37.5891 35.1112 37 35.1112C36.4109 35.1112 35.9333 34.6336 35.9333 34.0445V33.7778Z" fill="#E74646"/>
<path d="M33.8 33.7778H35.9333V34.0445C35.9333 34.6336 35.4558 35.1112 34.8667 35.1112C34.2776 35.1112 33.8 34.6336 33.8 34.0445V33.7778Z" fill="#E74646"/>
<path d="M31.6667 33.7778H33.8V34.0445C33.8 34.6336 33.3225 35.1112 32.7334 35.1112C32.1442 35.1112 31.6667 34.6336 31.6667 34.0445V33.7778Z" fill="#E74646"/>
<path d="M29.6666 27.3333V25.3333H28.3333V27.3333H22.3333C21.2287 27.3333 20.3333 28.2287 20.3333 29.3333V30.6666H21.6666V29.3333C21.6666 28.9651 21.9651 28.6666 22.3333 28.6666H35.6666C36.0348 28.6666 36.3333 28.9651 36.3333 29.3333V30.6666H37.6666V29.3333C37.6666 28.2287 36.7712 27.3333 35.6666 27.3333H29.6666Z" fill="#DADADA"/>
</g>
<defs>
<filter id="filter0_dd_279_5818" x="0" y="0" width="58" height="58" filterUnits="userSpaceOnUse" color-interpolation-filters="sRGB">
<feFlood flood-opacity="0" result="BackgroundImageFix"/>
<feColorMatrix in="SourceAlpha" type="matrix" values="0 0 0 0 0 0 0 0 0 0 0 0 0 0 0 0 0 0 127 0" result="hardAlpha"/>
<feMorphology radius="1" operator="erode" in="SourceAlpha" result="effect1_dropShadow_279_5818"/>
<feOffset dy="1"/>
<feGaussianBlur stdDeviation="1"/>
<feComposite in2="hardAlpha" operator="out"/>
<feColorMatrix type="matrix" values="0 0 0 0 0.0627451 0 0 0 0 0.0941176 0 0 0 0 0.156863 0 0 0 0.1 0"/>
<feBlend mode="normal" in2="BackgroundImageFix" result="effect1_dropShadow_279_5818"/>
<feColorMatrix in="SourceAlpha" type="matrix" values="0 0 0 0 0 0 0 0 0 0 0 0 0 0 0 0 0 0 127 0" result="hardAlpha"/>
<feOffset dy="1"/>
<feGaussianBlur stdDeviation="1.5"/>
<feComposite in2="hardAlpha" operator="out"/>
<feColorMatrix type="matrix" values="0 0 0 0 0 0 0 0 0 0 0 0 0 0 0 0 0 0 0.1 0"/>
<feBlend mode="normal" in2="effect1_dropShadow_279_5818" result="effect2_dropShadow_279_5818"/>
<feBlend mode="normal" in="SourceGraphic" in2="effect2_dropShadow_279_5818" result="shape"/>
</filter>
</defs>
</svg>
