<svg width="58" height="58" viewBox="0 0 58 58" fill="none" xmlns="http://www.w3.org/2000/svg">
<g filter="url(#filter0_dd_42_35237)">
<rect x="3" y="2" width="52" height="52" rx="8" fill="white" shape-rendering="crispEdges"/>
<circle cx="29" cy="29" r="11" fill="#E8F9FA"/>
<circle cx="29" cy="29" r="7" fill="#D1F4F6"/>
<path d="M20.5 37C21.8807 37 23 35.8807 23 34.5C23 33.1193 21.8807 32 20.5 32C19.1193 32 18 33.1193 18 34.5C18 35.8807 19.1193 37 20.5 37Z" fill="#009DF5"/>
<path d="M20.5 37C19.3065 37 18.1619 37.5268 17.318 38.4645C16.4741 39.4021 16 40.6739 16 42H25C25 40.6739 24.5259 39.4021 23.682 38.4645C22.8381 37.5268 21.6935 37 20.5 37Z" fill="#38C3FF"/>
<path d="M37.5 37C38.8807 37 40 35.8807 40 34.5C40 33.1193 38.8807 32 37.5 32C36.1193 32 35 33.1193 35 34.5C35 35.8807 36.1193 37 37.5 37Z" fill="#38C3FF"/>
<path d="M37.5 37C36.3065 37 35.1619 37.5268 34.318 38.4645C33.4741 39.4021 33 40.6739 33 42H42C42 40.6739 41.5259 39.4021 40.682 38.4645C39.8381 37.5268 38.6935 37 37.5 37Z" fill="#09B5FF"/>
<path d="M29 19C30.3807 19 31.5 17.8807 31.5 16.5C31.5 15.1193 30.3807 14 29 14C27.6193 14 26.5 15.1193 26.5 16.5C26.5 17.8807 27.6193 19 29 19Z" fill="#09B5FF"/>
<path d="M29 19C27.8065 19 26.6619 19.5268 25.818 20.4645C24.9741 21.4021 24.5 22.6739 24.5 24H33.5C33.5 22.6739 33.0259 21.4021 32.182 20.4645C31.3381 19.5268 30.1935 19 29 19Z" fill="#009DF5"/>
</g>
<defs>
<filter id="filter0_dd_42_35237" x="0" y="0" width="58" height="58" filterUnits="userSpaceOnUse" color-interpolation-filters="sRGB">
<feFlood flood-opacity="0" result="BackgroundImageFix"/>
<feColorMatrix in="SourceAlpha" type="matrix" values="0 0 0 0 0 0 0 0 0 0 0 0 0 0 0 0 0 0 127 0" result="hardAlpha"/>
<feMorphology radius="1" operator="erode" in="SourceAlpha" result="effect1_dropShadow_42_35237"/>
<feOffset dy="1"/>
<feGaussianBlur stdDeviation="1"/>
<feComposite in2="hardAlpha" operator="out"/>
<feColorMatrix type="matrix" values="0 0 0 0 0.0627451 0 0 0 0 0.0941176 0 0 0 0 0.156863 0 0 0 0.1 0"/>
<feBlend mode="normal" in2="BackgroundImageFix" result="effect1_dropShadow_42_35237"/>
<feColorMatrix in="SourceAlpha" type="matrix" values="0 0 0 0 0 0 0 0 0 0 0 0 0 0 0 0 0 0 127 0" result="hardAlpha"/>
<feOffset dy="1"/>
<feGaussianBlur stdDeviation="1.5"/>
<feComposite in2="hardAlpha" operator="out"/>
<feColorMatrix type="matrix" values="0 0 0 0 0 0 0 0 0 0 0 0 0 0 0 0 0 0 0.1 0"/>
<feBlend mode="normal" in2="effect1_dropShadow_42_35237" result="effect2_dropShadow_42_35237"/>
<feBlend mode="normal" in="SourceGraphic" in2="effect2_dropShadow_42_35237" result="shape"/>
</filter>
</defs>
</svg>
