<svg width="24" height="24" viewBox="0 0 24 24" fill="none" xmlns="http://www.w3.org/2000/svg">
<path d="M8.33331 3.83325H15.6666L15.6666 9.99992H8.33331L8.33331 3.83325Z" fill="#FFE193"/>
<path fill-rule="evenodd" clip-rule="evenodd" d="M14.6666 4.83325H9.33331L9.33331 8.99992H14.6666L14.6666 4.83325ZM8.33331 9.99992V3.83325H15.6666L15.6666 9.99992H8.33331Z" fill="#FFDD8C"/>
<rect x="9" y="7" width="2.33333" height="3" fill="#FFBD5A"/>
<path fill-rule="evenodd" clip-rule="evenodd" d="M10.3333 8.16667C10.3333 8.07462 10.4079 8 10.5 8H10.6666C10.7587 8 10.8333 8.07462 10.8333 8.16667C10.8333 8.25871 10.7587 8.33333 10.6666 8.33333V8.66667C10.7587 8.66667 10.8333 8.74129 10.8333 8.83333C10.8333 8.92538 10.7587 9 10.6666 9H10.5C10.4079 9 10.3333 8.92538 10.3333 8.83333V8.16667Z" fill="white"/>
<rect x="12" y="6.66675" width="2.66667" height="1.66667" fill="#FFF3D4"/>
<path d="M8.66667 2L8 4.33333H16L15.3333 2H8.66667Z" fill="#FF6666"/>
<path opacity="0.7" d="M9.66666 2L9.60083 4.33333H14.3999L14.3333 2H9.66666Z" fill="#FFC0C0"/>
<path d="M11.3333 2L11.1999 4.33333H12.7999L12.6667 2H11.3333Z" fill="#FF6666"/>
<path d="M14.4 4.33325H16V4.53325C16 4.97508 15.6419 5.33325 15.2 5.33325V5.33325C14.7582 5.33325 14.4 4.97508 14.4 4.53325V4.33325Z" fill="#E74646"/>
<path d="M12.8 4.33325H14.4V4.53325C14.4 4.97508 14.0418 5.33325 13.6 5.33325V5.33325C13.1582 5.33325 12.8 4.97508 12.8 4.53325V4.33325Z" fill="#E74646"/>
<path d="M11.2 4.33325H12.8V4.53325C12.8 4.97508 12.4418 5.33325 12 5.33325V5.33325C11.5582 5.33325 11.2 4.97508 11.2 4.53325V4.33325Z" fill="#E74646"/>
<path d="M9.59998 4.33325H11.2V4.53325C11.2 4.97508 10.8418 5.33325 10.4 5.33325V5.33325C9.95815 5.33325 9.59998 4.97508 9.59998 4.53325V4.33325Z" fill="#E74646"/>
<path d="M8 4.33325H9.6V4.53325C9.6 4.97508 9.24183 5.33325 8.8 5.33325V5.33325C8.35817 5.33325 8 4.97508 8 4.53325V4.33325Z" fill="#E74646"/>
<path d="M2.33331 15.8333H9.66665L9.66665 21.9999H2.33331L2.33331 15.8333Z" fill="#FFE193"/>
<path fill-rule="evenodd" clip-rule="evenodd" d="M8.66665 16.8333H3.33331L3.33331 20.9999H8.66665L8.66665 16.8333ZM2.33331 21.9999V15.8333H9.66665L9.66665 21.9999H2.33331Z" fill="#FFDD8C"/>
<rect x="3" y="19" width="2.33333" height="3" fill="#FFBD5A"/>
<path fill-rule="evenodd" clip-rule="evenodd" d="M4.33331 20.1667C4.33331 20.0746 4.40793 20 4.49998 20H4.66665C4.75869 20 4.83331 20.0746 4.83331 20.1667C4.83331 20.2587 4.75869 20.3333 4.66665 20.3333V20.6667C4.75869 20.6667 4.83331 20.7413 4.83331 20.8333C4.83331 20.9254 4.75869 21 4.66665 21H4.49998C4.40793 21 4.33331 20.9254 4.33331 20.8333V20.1667Z" fill="white"/>
<rect x="6" y="18.6667" width="2.66667" height="1.66667" fill="#FFF3D4"/>
<path d="M2.66667 14L2 16.3333H10L9.33333 14H2.66667Z" fill="#FF6666"/>
<path opacity="0.7" d="M3.66666 14L3.60083 16.3333H8.39992L8.33333 14H3.66666Z" fill="#FFC0C0"/>
<path d="M5.33334 14L5.19989 16.3333H6.79989L6.66667 14H5.33334Z" fill="#FF6666"/>
<path d="M8.40002 16.3333H10V16.5333C10 16.9751 9.64185 17.3333 9.20002 17.3333V17.3333C8.7582 17.3333 8.40002 16.9751 8.40002 16.5333V16.3333Z" fill="#E74646"/>
<path d="M6.79999 16.3333H8.39999V16.5333C8.39999 16.9751 8.04182 17.3333 7.59999 17.3333V17.3333C7.15816 17.3333 6.79999 16.9751 6.79999 16.5333V16.3333Z" fill="#E74646"/>
<path d="M5.20001 16.3333H6.80001V16.5333C6.80001 16.9751 6.44184 17.3333 6.00001 17.3333V17.3333C5.55818 17.3333 5.20001 16.9751 5.20001 16.5333V16.3333Z" fill="#E74646"/>
<path d="M3.59998 16.3333H5.19998V16.5333C5.19998 16.9751 4.8418 17.3333 4.39998 17.3333V17.3333C3.95815 17.3333 3.59998 16.9751 3.59998 16.5333V16.3333Z" fill="#E74646"/>
<path d="M2 16.3333H3.6V16.5333C3.6 16.9751 3.24183 17.3333 2.8 17.3333V17.3333C2.35817 17.3333 2 16.9751 2 16.5333V16.3333Z" fill="#E74646"/>
<path d="M14.3333 15.8333H21.6666L21.6666 21.9999H14.3333L14.3333 15.8333Z" fill="#FFE193"/>
<path fill-rule="evenodd" clip-rule="evenodd" d="M20.6666 16.8333H15.3333L15.3333 20.9999H20.6666L20.6666 16.8333ZM14.3333 21.9999V15.8333H21.6666L21.6666 21.9999H14.3333Z" fill="#FFDD8C"/>
<rect x="15" y="19" width="2.33333" height="3" fill="#FFBD5A"/>
<path fill-rule="evenodd" clip-rule="evenodd" d="M16.3333 20.1667C16.3333 20.0746 16.4079 20 16.5 20H16.6666C16.7587 20 16.8333 20.0746 16.8333 20.1667C16.8333 20.2587 16.7587 20.3333 16.6666 20.3333V20.6667C16.7587 20.6667 16.8333 20.7413 16.8333 20.8333C16.8333 20.9254 16.7587 21 16.6666 21H16.5C16.4079 21 16.3333 20.9254 16.3333 20.8333V20.1667Z" fill="white"/>
<rect x="18" y="18.6667" width="2.66667" height="1.66667" fill="#FFF3D4"/>
<path d="M14.6667 14L14 16.3333H22L21.3333 14H14.6667Z" fill="#FF6666"/>
<path opacity="0.7" d="M15.6667 14L15.6008 16.3333H20.3999L20.3333 14H15.6667Z" fill="#FFC0C0"/>
<path d="M17.3333 14L17.1999 16.3333H18.7999L18.6667 14H17.3333Z" fill="#FF6666"/>
<path d="M20.4 16.3333H22V16.5333C22 16.9751 21.6419 17.3333 21.2 17.3333V17.3333C20.7582 17.3333 20.4 16.9751 20.4 16.5333V16.3333Z" fill="#E74646"/>
<path d="M18.8 16.3333H20.4V16.5333C20.4 16.9751 20.0418 17.3333 19.6 17.3333V17.3333C19.1582 17.3333 18.8 16.9751 18.8 16.5333V16.3333Z" fill="#E74646"/>
<path d="M17.2 16.3333H18.8V16.5333C18.8 16.9751 18.4418 17.3333 18 17.3333V17.3333C17.5582 17.3333 17.2 16.9751 17.2 16.5333V16.3333Z" fill="#E74646"/>
<path d="M15.6 16.3333H17.2V16.5333C17.2 16.9751 16.8418 17.3333 16.4 17.3333V17.3333C15.9581 17.3333 15.6 16.9751 15.6 16.5333V16.3333Z" fill="#E74646"/>
<path d="M14 16.3333H15.6V16.5333C15.6 16.9751 15.2418 17.3333 14.8 17.3333V17.3333C14.3582 17.3333 14 16.9751 14 16.5333V16.3333Z" fill="#E74646"/>
<path d="M12.5 11.5V10H11.5V11.5H7C6.17157 11.5 5.5 12.1716 5.5 13V14H6.5V13C6.5 12.7239 6.72386 12.5 7 12.5H17C17.2761 12.5 17.5 12.7239 17.5 13V14H18.5V13C18.5 12.1716 17.8284 11.5 17 11.5H12.5Z" fill="#DADADA"/>
</svg>
